<?xml version="1.0" standalone="no"?>
<!DOCTYPE svg PUBLIC "-//W3C//DTD SVG 1.1//EN" "http://www.w3.org/Graphics/SVG/1.1/DTD/svg11.dtd" >
<svg xmlns="http://www.w3.org/2000/svg">
<metadata></metadata>
<defs>
<font id="Base5Regular" horiz-adv-x="1273" >
<font-face units-per-em="2048" ascent="1638" descent="-410" />
<missing-glyph horiz-adv-x="1024" />
<glyph horiz-adv-x="2048" />
<glyph horiz-adv-x="2048" d="M0 76q0 -74 74 -74h913q74 0 74 74v1683q0 74 -74 74h-913q-74 0 -74 -74v-1683zM145 150v1536h232q-7 -28 -31 -39v-25h115v31h-74l16 33h512v-1536h-104v149l-172 29l-12 -74q22 -22 22 -45q0 -45 -55 -45t-55 43q0 12 12 29q10 10 33 14l-11 90q-16 -2 -35 -14 t-28 -27q-16 -18 -18 -32.5t-7 -41.5q-8 8 -18 8h-4l4 -30q8 -8 8 -13q0 -14 -16 -14h-13q13 13 13 28t-15 23q-8 8 -26 9q-39 0 -39 -33q0 -17 12 -29h-10v-24h-236zM346 1337q0 -49 58.5 -49t58.5 47q0 20 -2 22.5t-4 5.5t-6 7q-4 2 -7.5 4t-7.5 4l-4 -30q12 -6 12 -13 q0 -14 -18 -14q-8 0 -12 -2q10 10 10 24q0 37 -39 37t-39 -43zM346 1446q0 -40 25 -47q14 -6 35 -6q57 0 57 47q0 23 -12 35q-4 2 -7.5 4t-7.5 4l-4 -33q12 0 12 -10q0 -12 -10 -13.5t-20 -3.5q10 10 10 22.5t-10 29.5q-10 10 -25.5 10t-21.5 -6q-21 -8 -21 -33zM346 1546 q0 -51 60 -51q29 0 43 14.5t14 34.5t-2 22.5t-4 5.5q-5 8 -21 13l-4 -31q4 0 8 -4t4 -10q0 -7 -10 -8.5t-20 -3.5q10 10 10 24q0 37 -39 37t-39 -43zM348 670h41q-10 -10 -10 -29q0 -25 31 -27h51v31h-43q-13 0 -15 12q0 12 19 13h39v30h-113v-30zM348 928h113v35h-45v36h45 v35h-113v-35h39v-36h-39v-35zM348 1100l43 41l70 -41v41l-45 24l18 19h27v33h-113v-33h43l-43 -37v-47zM367 1335q0 6 4 11l14 4q-2 0 14 -4q6 -4 6.5 -14.5t-19 -10.5t-19.5 14zM367 1439q0 7 4 11q20 4 14 4t14 -4q6 -4 6.5 -11t-6.5 -9q-4 -5 -13 -5t-13 5q-6 2 -6 9z M367 1544q0 6 4 10q16 4 14 5q-2 0 14 -5q6 -4 6.5 -14t-19 -10t-19.5 14zM379 399q0 -18 1 -19t5 -18q8 -8 23 -8h45l8 -4v29l-4 4h-6q12 12 12 36.5t-23 24.5q-28 0 -28 -49q-2 -2 -2 -5t-2 -5q-10 0 -11 10q0 13 9 17l-3 28l-12 -4q-10 -10 -10 -14t-2 -6v-17zM379 485 q0 -26 31 -26h51v30h-45q-10 0 -13 11q0 12 17 12h41v31h-45q-4 0 -6 2q-8 0 -9 8q6 12 19 12h41v31h-80v-29h10q-12 -12 -12 -30.5t12 -22.5q-12 -12 -12 -29zM379 752q0 -33 27 -37l4 28q-11 0 -11 15q0 16 21.5 16t21.5 -14.5t-14 -18.5l4 -28q4 2 8 3q13 3 18 19t5 31 t-3 16.5t-7 8t-7.5 8.5t-5.5 4l-18 4q-31 0 -39 -25q-4 -20 -4 -30zM379 866q0 -18 2 -22q0 -23 27 -23h36q13 0 17 -4v29l-4 4h-6q12 12 12 36.5t-23 24.5q-28 0 -28 -49q-2 -4 -4 -10q-11 0 -11 11t9 16l-3 28q-16 -5 -17 -7.5t-3 -8.5l-3 -9q-1 -3 -1 1v-17zM381 307h12 q-9 -9 -11.5 -26t3.5 -25q8 -6 25 -6h51v31h-43q-13 0 -15 12q0 7 19 12h39v31h-80v-29zM401 190q1 15 18 15t17 -15q0 -14 -17 -14t-18 14zM424 385q3 19 8 25q0 4 3 4t7 -4t4 -9q0 -4 -6 -10t-12 -6h-4zM424 852q3 19 8 25q0 4 3 4t7 -4.5t4 -8.5t-6 -10t-12 -6h-4z M430 1057h31v33h-31v-33zM475 150l14 14q0 6 5 -14h-19zM485 854q0 -115 54 -143q50 -35 102 -4q33 23 44 60.5t19 67.5q11 46 27 46q8 0 19 -11q6 -10 6 -28.5t-11 -28.5q-10 -14 -30 -16l6 -92q96 8 94 131q0 87 -47 120q-20 14 -52 14.5t-57 -28.5t-35 -79 q-13 -72 -42 -72q-33 0 -33 44.5t53 55.5l-6 92q-49 -4 -80 -34.5t-31 -94.5zM492 375h71v170h64v-154h63v154h51v-164h70v262h-319v-268zM492 997l319 121v109l-319 119v-101l51 -16v-113l-51 -14v-105zM492 1483q0 -54 11 -78t34 -37q27 -10 50.5 -10t45.5 16q16 16 26 49 q8 -27 23 -32q18 -18 50 -18.5t55.5 24.5t23.5 71v185h-319v-170zM559 1503v49h66v-49q0 -47 -33 -47t-33 47zM612 1137v71l115 -34zM684 1509v43h61v-43q0 -39 -30 -41q-31 0 -31 41zM690 240l49 -9v-81h-39q5 25 5 41t-3.5 23t-6.5 14.5t-5 11.5z" />
<glyph horiz-adv-x="2048" d="M0 76q0 -74 74 -74h913q74 0 74 74v1683q0 74 -74 74h-913q-74 0 -74 -74v-1683zM145 150v1536h232q-7 -28 -31 -39v-25h115v31h-74l16 33h512v-1536h-104v149l-172 29l-12 -74q22 -22 22 -45q0 -45 -55 -45t-55 43q0 12 12 29q10 10 33 14l-11 90q-16 -2 -35 -14 t-28 -27q-16 -18 -18 -32.5t-7 -41.5q-8 8 -18 8h-4l4 -30q8 -8 8 -13q0 -14 -16 -14h-13q13 13 13 28t-15 23q-8 8 -26 9q-39 0 -39 -33q0 -17 12 -29h-10v-24h-236zM346 1337q0 -49 58.5 -49t58.5 47q0 20 -2 22.5t-4 5.5t-6 7q-4 2 -7.5 4t-7.5 4l-4 -30q12 -6 12 -13 q0 -14 -18 -14q-8 0 -12 -2q10 10 10 24q0 37 -39 37t-39 -43zM346 1446q0 -40 25 -47q14 -6 35 -6q57 0 57 47q0 23 -12 35q-4 2 -7.5 4t-7.5 4l-4 -33q12 0 12 -10q0 -12 -10 -13.5t-20 -3.5q10 10 10 22.5t-10 29.5q-10 10 -25.5 10t-21.5 -6q-21 -8 -21 -33zM346 1546 q0 -51 60 -51q29 0 43 14.5t14 34.5t-2 22.5t-4 5.5q-5 8 -21 13l-4 -31q4 0 8 -4t4 -10q0 -7 -10 -8.5t-20 -3.5q10 10 10 24q0 37 -39 37t-39 -43zM348 670h41q-10 -10 -10 -29q0 -25 31 -27h51v31h-43q-13 0 -15 12q0 12 19 13h39v30h-113v-30zM348 928h113v35h-45v36h45 v35h-113v-35h39v-36h-39v-35zM348 1100l43 41l70 -41v41l-45 24l18 19h27v33h-113v-33h43l-43 -37v-47zM367 1335q0 6 4 11l14 4q-2 0 14 -4q6 -4 6.5 -14.5t-19 -10.5t-19.5 14zM367 1439q0 7 4 11q20 4 14 4t14 -4q6 -4 6.5 -11t-6.5 -9q-4 -5 -13 -5t-13 5q-6 2 -6 9z M367 1544q0 6 4 10q16 4 14 5q-2 0 14 -5q6 -4 6.5 -14t-19 -10t-19.5 14zM379 399q0 -18 1 -19t5 -18q8 -8 23 -8h45l8 -4v29l-4 4h-6q12 12 12 36.5t-23 24.5q-28 0 -28 -49q-2 -2 -2 -5t-2 -5q-10 0 -11 10q0 13 9 17l-3 28l-12 -4q-10 -10 -10 -14t-2 -6v-17zM379 485 q0 -26 31 -26h51v30h-45q-10 0 -13 11q0 12 17 12h41v31h-45q-4 0 -6 2q-8 0 -9 8q6 12 19 12h41v31h-80v-29h10q-12 -12 -12 -30.5t12 -22.5q-12 -12 -12 -29zM379 752q0 -33 27 -37l4 28q-11 0 -11 15q0 16 21.5 16t21.5 -14.5t-14 -18.5l4 -28q4 2 8 3q13 3 18 19t5 31 t-3 16.5t-7 8t-7.5 8.5t-5.5 4l-18 4q-31 0 -39 -25q-4 -20 -4 -30zM379 866q0 -18 2 -22q0 -23 27 -23h36q13 0 17 -4v29l-4 4h-6q12 12 12 36.5t-23 24.5q-28 0 -28 -49q-2 -4 -4 -10q-11 0 -11 11t9 16l-3 28q-16 -5 -17 -7.5t-3 -8.5l-3 -9q-1 -3 -1 1v-17zM381 307h12 q-9 -9 -11.5 -26t3.5 -25q8 -6 25 -6h51v31h-43q-13 0 -15 12q0 7 19 12h39v31h-80v-29zM401 190q1 15 18 15t17 -15q0 -14 -17 -14t-18 14zM424 385q3 19 8 25q0 4 3 4t7 -4t4 -9q0 -4 -6 -10t-12 -6h-4zM424 852q3 19 8 25q0 4 3 4t7 -4.5t4 -8.5t-6 -10t-12 -6h-4z M430 1057h31v33h-31v-33zM475 150l14 14q0 6 5 -14h-19zM485 854q0 -115 54 -143q50 -35 102 -4q33 23 44 60.5t19 67.5q11 46 27 46q8 0 19 -11q6 -10 6 -28.5t-11 -28.5q-10 -14 -30 -16l6 -92q96 8 94 131q0 87 -47 120q-20 14 -52 14.5t-57 -28.5t-35 -79 q-13 -72 -42 -72q-33 0 -33 44.5t53 55.5l-6 92q-49 -4 -80 -34.5t-31 -94.5zM492 375h71v170h64v-154h63v154h51v-164h70v262h-319v-268zM492 997l319 121v109l-319 119v-101l51 -16v-113l-51 -14v-105zM492 1483q0 -54 11 -78t34 -37q27 -10 50.5 -10t45.5 16q16 16 26 49 q8 -27 23 -32q18 -18 50 -18.5t55.5 24.5t23.5 71v185h-319v-170zM559 1503v49h66v-49q0 -47 -33 -47t-33 47zM612 1137v71l115 -34zM684 1509v43h61v-43q0 -39 -30 -41q-31 0 -31 41zM690 240l49 -9v-81h-39q5 25 5 41t-3.5 23t-6.5 14.5t-5 11.5z" />
<glyph unicode=" "  horiz-adv-x="1024" />
<glyph unicode="&#x09;" horiz-adv-x="1024" />
<glyph unicode="&#xa0;" horiz-adv-x="1024" />
<glyph unicode="!" horiz-adv-x="360" d="M74 99q0 -83 82 -83h71q82 0 82 83t-82 83h-71q-82 0 -82 -83zM84 457q0 -72 72 -72h71q72 0 72 72v1282q0 73 -72 73h-71q-72 0 -72 -73v-1282z" />
<glyph unicode="&#x22;" horiz-adv-x="643" d="M84 1415q0 -72 72 -72h71q72 0 72 72v320q0 73 -72 73h-71q-72 0 -72 -73v-320zM395 1415q0 -72 74 -72h72q72 0 71 72v320q0 74 -71 73h-72q-74 0 -74 -73v-320z" />
<glyph unicode="#" horiz-adv-x="1556" d="M-37 580q0 -72 66 -72h137l-80 -191q-29 -66 39 -94q33 -10 93 2t71 37l102 246h340l-78 -191q-27 -68 37 -94q29 -10 91 2t73 37l104 246h232q72 0 72 72t-72 71h-172l160 381h233q72 0 72 73t-72 73h-174l80 190q27 63 -37 92q-29 12 -92 -1t-74 -36l-100 -245h-342 l80 190q27 63 -39 92q-29 12 -91 -1t-73 -36l-103 -245h-196q-72 0 -72 -73t72 -73h135l-158 -381h-198q-66 0 -66 -71zM451 651l159 381h342l-159 -381h-342z" />
<glyph unicode="$" d="M84 1373q0 -183 133 -322q139 -133 324 -133h57q16 -4 14 -5q160 0 272.5 -112.5t112.5 -262t-96 -251.5q-96 -96 -233 -115h-439q-74 0 -73 -74q0 -74 73 -73h314v-140q0 -72 71 -71h72q74 0 74 71v144q193 29 323.5 166t130.5 343.5t-153 360.5q-150 156 -367 162h-6v2 h-78q-125 0 -221 90q-90 96 -90 222t90 206q92 80 221 80v2h385q72 0 72 73t-72 72h-235v146q0 72 -74 71h-72q-72 0 -71 -71v-146h-19q-10 0 -12 -2q-174 -8 -301 -129t-127 -304z" />
<glyph unicode="%" horiz-adv-x="1323" d="M59 1564q0 -101 71 -172t173 -71h72q102 0 173 71t70.5 172t-72 172.5t-171.5 71.5h-72q-100 0 -172 -71.5t-72 -172.5zM94 109q-37 -66 29 -101q23 -10 91.5 1t78.5 30l917 1683q36 66 -30 101q-25 12 -92 0t-76 -31zM277 1564q0 66 63 91q61 -25 61 -93.5t-61 -88.5 q-63 25 -63 91zM702 269q0 101 72 173t172 72h72q100 0 172 -71.5t72 -173t-72 -173t-172 -71.5h-72q-100 0 -172 71.5t-72 172.5zM920 268.5q0 -66.5 61 -90.5q63 25 63 93.5t-63 88.5q-61 -25 -61 -91.5z" />
<glyph unicode="&#x26;" horiz-adv-x="1443" d="M0 530q0 -219 155 -362t373 -143v2l11 -2h145q223 0 374.5 143t155.5 362v381h89q72 0 71.5 73t-71.5 73h-89v104q0 74 -73 74h-70q-74 0 -74 -74v-104h-370q-2 2 -17 2h-26q-117 10 -201 96q-80 86 -84 209v14q2 117 84 194t192 89q115 -12 194 -87t83 -192v-8 q0 -74 72 -74h71q72 0 72 74v2q0 186 -133 307t-320 125h-77q-188 -4 -319.5 -120.5t-133.5 -301.5v-43q12 -223 192 -348q-123 -68 -199.5 -191.5t-76.5 -273.5zM215 532.5q0 153.5 108 261.5t257 117h417v-381q-4 -150 -106 -251q-102 -96 -254 -107h-62q-150 8 -256 107 q-104 100 -104 253.5z" />
<glyph unicode="'" horiz-adv-x="315" d="M84 1415q0 -72 72 -72h71q72 0 72 72v320q0 73 -72 73h-71q-72 0 -72 -73v-320z" />
<glyph unicode="(" horiz-adv-x="796" d="M86 516q6 -215 160 -364q150 -150 366 -150h21v2h2q6 -2 24 -2h43v2q57 14 58 72q0 57 -58 69v5q-2 -2 -10 -3h-10q-160 4 -268.5 115t-110.5 266v777q2 156 112 266.5t267 114.5h20v2q57 14 57.5 71t-57.5 70v2l-14 2h-2q-2 0 -4 -2h-33q-8 0 -14 -2h-2v2l-17 2h-2 l-2 -2q-217 -4 -369.5 -156t-156.5 -366v-793z" />
<glyph unicode=")" horiz-adv-x="796" d="M86 76q0 -57 57 -72v-2h43q18 0 25 2h2v-2h20q215 0 366 151t161 363v793q-4 215 -157 366.5t-370 155.5q-2 2 -4 2l-16 -2v-2h-2q-6 2 -16 2h-33q0 2 -2 2h-2l-15 -2v-2q-57 -12 -57 -69.5t57 -71.5v-2h21q154 -2 264.5 -115t114.5 -266v-777q-4 -158 -115 -268.5 t-264 -112.5h-10q-8 0 -11 3v-5q-57 -12 -57 -69z" />
<glyph unicode="*" horiz-adv-x="1212" d="M193 436q20 -25 82 -26.5t92 16.5l176 149v-264q0 -74 71 -73h72q74 0 74 73v264l176 -149q20 -20 85.5 -16t88.5 26q45 57 -10 103l-299 252l299 251q55 47 10 105q-18 18 -86 22.5t-88 -14.5l-176 -147v264q0 71 -74 71h-72q-72 0 -71 -71v-264l-176 147 q-20 16 -89.5 13t-84.5 -21q-47 -59 8 -105l301 -251l-301 -252q-57 -45 -8 -103z" />
<glyph unicode="+" d="M84 813q0 -74 74 -74h383v-383q0 -74 71 -73h72q74 0 74 73v383h383q74 0 73 74q0 74 -73 74h-383v383q0 74 -74 73h-72q-72 0 -71 -73v-383h-383q-74 0 -74 -74z" />
<glyph unicode="," horiz-adv-x="432" d="M6 -111q-29 -66 29 -100q25 -14 90.5 -7t79.5 34l172 288q34 68 -29 101q-27 14 -91.5 7t-78.5 -34z" />
<glyph unicode="-" horiz-adv-x="968" d="M84 958q0 -72 72 -71h694q72 0 72 71q0 72 -72 72h-694q-72 0 -72 -72z" />
<glyph unicode="." horiz-adv-x="331" d="M66 99q0 -91 90 -91h71q90 0 90 91t-90 91h-71q-90 0 -90 -91z" />
<glyph unicode="/" horiz-adv-x="1306" d="M94 109q-37 -66 29 -101q23 -10 91.5 1t78.5 30l917 1683q36 66 -30 101q-25 12 -92 0t-76 -31z" />
<glyph unicode="0" d="M82 532q0 -201 130 -349t331 -177v-2h12q92 -4 184 0h17v2q199 29 328.5 178.5t129.5 347.5v768q0 197 -133 348t-325 179h-17q-92 8 -184 0h-12q-199 -29 -330 -178q-131 -143 -131 -349q0 -33 2 -36v-695q-2 -4 -2 -37zM299 514v786q0 145 94 252t238 129h35 q129 -18 223 -112l-588 -1080q-2 6 -2 25zM379 299l35 -39l581 1069q2 -2 2 -29v-768q0 -147 -95 -254.5t-236 -125.5h-35q-160 20 -252 147z" />
<glyph unicode="1" horiz-adv-x="970" d="M84 98q0 -74 74 -73h694q74 0 74 73q0 74 -74 74h-240v1563q0 74 -71 73h-383q-74 0 -74 -73q0 -74 74 -74h237v-1489h-237q-74 0 -74 -74z" />
<glyph unicode="2" d="M84 98q0 -72 72 -71h860l53 -2l6 2h10l56 -2q74 0 73 73q0 74 -73 74h-842v356q0 160 112.5 272.5t272.5 112.5q-6 0 14 5h60q188 0 322 134t134 319t-126.5 306t-303.5 129q-2 2 -12 2h-471q-72 0 -72 -72.5t72 -72.5h385v-2q129 0 220 -80t91 -208t-91 -219t-220 -91 h-76v-2h-8q-217 -6 -367.5 -163t-150.5 -370v-430z" />
<glyph unicode="3" horiz-adv-x="1193" d="M82 98q0 -74 74 -73h350q2 -2 20 -2h29h51q219 0 375 143t156 362q0 141 -65.5 258t-176.5 189q104 57 168.5 163.5t64.5 235.5q0 182 -126.5 303t-303.5 129q-2 2 -10 2h-463q-72 0 -71 -73q0 -74 71 -74h389q121 -2 209 -84q88 -76 88 -204t-91 -219t-220 -91h-213 q-72 0 -72 -74t72 -74h37l108 -2h5q158 0 271.5 -113.5t113.5 -262t-97 -250.5q-96 -96 -233 -115h-436q-74 0 -74 -74z" />
<glyph unicode="4" horiz-adv-x="1355" d="M92 649q-45 -68 23 -110q14 -12 32 -14.5t21 -0.5h668v-440q0 -82 82 -82h69q80 0 80 82v440h150q74 0 73 74q0 74 -73 74h-150v1077q0 39 -36 69l-5 5q-29 16 -94 10q-70 -2 -86 -35zM371 672l465 710v-710h-465z" />
<glyph unicode="5" d="M84 98q0 -74 74 -73h528q2 0 2 2q221 0 371 143q156 143 155.5 359t-152 373t-368.5 161h-395v600h696q72 0 72 73t-72 72h-839q-72 0 -72 -73v-754q6 -66 74 -66h477q154 -10 256 -120q106 -106 106 -261.5t-104 -253t-256 -108.5h-479q-74 0 -74 -74z" />
<glyph unicode="6" d="M84 530q0 -219 149.5 -370.5t364.5 -157.5h102q211 6 363 162t151 368q0 213 -151.5 370t-368.5 161h-10v2h-385v278h2q-2 2 -2 27q0 129 90 209q92 80 221 80q4 2 13 2q8 0 10 2h362q72 0 72 73t-72 72h-452v-4h-6q-188 -4 -320.5 -124t-132.5 -310v-840zM299 530v388 h313q158 0 272 -114t113.5 -265.5t-102.5 -266.5q-102 -109 -246 -122q-150 16 -250 122.5t-100 257.5z" />
<glyph unicode="7" d="M84 1540q0 -74 72 -74h71q72 0 72 74v123h653l-778 -1557q-33 -63 35 -98q12 -8 86 3t82 32l823 1651q14 14 14 38q0 48 -40 68q-33 10 -46 8h-972q-72 0 -72 -73v-195z" />
<glyph unicode="8" d="M84 528q0 -219 149.5 -370.5t364.5 -157.5h102q211 6 363 162t151 366q0 150 -75.5 273t-198.5 192q92 61 146.5 160.5t54.5 216.5q0 188 -133 322q-135 133 -322 137h-76q-188 -4 -321 -137t-133 -322q0 -117 54 -216t146 -161q-123 -70 -197.5 -192.5t-74.5 -272.5z M299 528q0 154 100 260.5t250 122.5q143 -16 246 -123q102 -109 102 -257t-102 -263q-102 -109 -246 -121q-147 12 -248.5 119.5t-101.5 261.5zM373 1371q0 120 80 206q76 86 196 102q121 -16 199 -102t78 -206t-80 -208t-197 -100q-117 12 -196.5 100t-79.5 208z" />
<glyph unicode="9" d="M84 1299q0 -214 149 -369q150 -154 365 -160h399v-240q-4 -152 -106 -249.5t-254 -108.5h-334q-74 0 -74 -74t74 -73h385q217 4 367 140t159 349v829q0 2 -4 23q-25 193 -172 326q-143 137 -344 139q-2 0 -4 1t-4 -1l-2 2h-6q-2 0 -4 -2h-49q-2 0 -4 1t-5 -1l-2 2h-2 l-2 -2q-2 2 -4 2l-4 -2q-217 -4 -367.5 -161t-150.5 -371zM299 1300q0 152 101.5 259.5t248.5 123.5q143 -16 243.5 -121t104.5 -257v-387h-340q-145 8 -251.5 119.5t-106.5 262.5z" />
<glyph unicode=":" horiz-adv-x="329" d="M68 76q0 -82 90 -82h69q88 0 88 82q0 88 -88 88h-69q-90 0 -90 -88zM68 1270q0 -88 88 -88h71q88 0 88 88t-88 88h-71q-88 0 -88 -88z" />
<glyph unicode=";" horiz-adv-x="458" d="M-20 -203q-35 -61 20 -98q33 -16 94.5 -7t75.5 34l190 323q37 63 -26 101q-29 14 -92 7t-78 -34zM139 1270q0 -88 88 -88h70q88 0 88 88t-88 88h-70q-88 0 -88 -88z" />
<glyph unicode="&#x3c;" horiz-adv-x="1204" d="M80 743q0 -37 29 -59l915 -676q25 -8 91.5 -6t80.5 23q43 59 -14 102l-838 616l838 617q57 43 14 100q-16 25 -81.5 29t-90.5 -12l-915 -674q-29 -23 -29 -60z" />
<glyph unicode="=" horiz-adv-x="1120" d="M84 457.5q0 -72.5 72 -72.5h839q72 0 72 73t-72 72h-839q-72 0 -72 -72.5zM84 958q0 -72 72 -71h839q72 0 72 71q0 72 -72 72h-839q-72 0 -72 -72z" />
<glyph unicode="&#x3e;" horiz-adv-x="1181" d="M92 25q18 -20 84 -25q65 0 90 8l916 676q29 23 28 59q0 37 -28 60l-916 674q-25 16 -90 12t-84 -29q-43 -57 17 -100l835 -617l-835 -616q-59 -43 -17 -102z" />
<glyph unicode="?" horiz-adv-x="1181" d="M84 1290q0 -72 74 -71h69q72 0 72 71v10h2q0 158 107 265q104 111 260 121h34q117 -6 201 -90.5t94 -202.5q-16 -182 -166 -287l-53 -33q-100 -68 -163.5 -173t-71.5 -234v-211q0 -70 69 -70h72q72 0 72 70v180h4q0 197 162 309l49 33q98 63 163.5 165.5t77.5 231.5h2v45 h-2q-18 170 -147 291q-133 121 -303 121q-2 2 -4 2l-2 -2v2h-160v-2q-211 -10 -362 -161t-150 -370v-10zM543 76q-1 -74 73 -74h70q74 0 74 74t-74 74h-70q-74 0 -73 -74z" />
<glyph unicode="@" d="M82 528q0 -201 130 -337t331 -164v-2h12q100 -10 218 -5t222 5q72 0 72 73q0 74 -72 74h-364q-141 18 -236.5 113.5t-95.5 242.5v252q20 -168 152 -282q125 -113 303 -113h387q74 0 73 72v915q-4 190 -135 321.5t-317 135.5h-225q-190 -4 -321.5 -135t-131.5 -322v-805 q-2 -4 -2 -39zM299 901v471q0 129 92 219q96 90 219 90h76q127 0 217 -90t94 -219v-842h-178q-129 4 -217 93q-90 96 -90 222t91 217t220 91q74 0 74 74q0 68 -74 71h-2l-49 -2q-4 2 -18 2h-4q-172 -4 -301 -116q-129 -117 -150 -281z" />
<glyph unicode="A" horiz-adv-x="1275" d="M84 98q0 -73 70 -73h2h71h2q70 0 70 73v820h698v-822q4 -71 72 -71h2h72q68 0 71 71v1278q0 188 -133 322.5t-319 134.5h-2v2h-219q-2 0 -4 -2q-190 0 -321.5 -133t-131.5 -324v-1276zM299 1063v311q0 123 90 219q92 92 221 93h76q129 0 220 -92.5t91 -219.5v-311h-698z " />
<glyph unicode="B" horiz-adv-x="1275" d="M84 96q0 -71 70 -71h2l448 -2h96q211 6 363 149t151 356q0 240 -186 403q-57 50 -125 81v8q164 139 164 337.5t-129 319.5q-133 121 -311 127q-20 4 -23 4h-448q-72 0 -72 -73v-1639zM299 170v748h299q8 -2 16 -5q158 0 270.5 -112.5t112.5 -271.5t-112.5 -259 t-270.5 -100h-315zM299 1061v598h242q129 0 220 -80t91 -210t-91 -219t-220 -89h-242z" />
<glyph unicode="C" horiz-adv-x="1275" d="M84 528q0 -215 149 -370q152 -154 365 -158h102q211 2 363 159t151 369v2q0 74 -71 74h-72q-74 0 -74 -74v-2q0 -145 -102 -260q-102 -109 -246 -121q-147 12 -248.5 119.5t-101.5 261.5v842q0 129 91 220t220 91h76q127 0 217 -91t94 -216v-2q0 -72 74 -72h72 q72 0 71 72q0 188 -133 320.5t-319 136.5h-225q-188 -4 -320.5 -136t-132.5 -323v-842z" />
<glyph unicode="D" d="M84 96q0 -73 70 -73h2h528q219 0 374.5 155.5t155.5 374.5v795q0 188 -137 322t-321 138h-600q-72 0 -72 -73v-1639zM299 170v1489h389q125 -4 217 -94t92 -217v-795q0 -160 -112 -272q-115 -111 -273 -111h-313z" />
<glyph unicode="E" horiz-adv-x="1200" d="M84 96q0 -73 70 -73h2h911q74 0 74 73q0 74 -74 74h-768v748h623q74 0 73 71q0 74 -73 74h-623v596h768q76 0 76 75q0 74 -74 74h-2h-911q-72 0 -72 -73v-1639z" />
<glyph unicode="F" horiz-adv-x="1200" d="M84 76q0 -74 72 -74h71q72 0 72 74v842h623q74 0 73 71q0 74 -73 74h-623v596h768q76 0 76 75q0 74 -74 74h-2h-911q-72 0 -72 -73v-1659z" />
<glyph unicode="G" horiz-adv-x="1275" d="M84 528q0 -219 155 -362t375 -143h9q14 0 16 2q69 -7 142 -7q36 0 73 2q111 5 215 5h72q74 0 73 73v891q0 74 -73 74h-457q-74 0 -74 -73q0 -72 72 -72h2h313v-746h-366q-141 18 -236.5 113.5t-95.5 242.5v842q0 129 89 220t220 91h82q123 0 214 -91t93 -212v-6 q0 -72 74 -72h70q73 0 73 72q-4 190 -135 321.5t-317 135.5h-6v4h-213v-4h-6q-188 -4 -320.5 -136t-132.5 -323v-842z" />
<glyph unicode="H" horiz-adv-x="1275" d="M84 98q0 -73 70 -73h2h71q72 0 72 73v820h698v-820q0 -73 72 -73h2h72q72 0 71 73v1637q0 73 -69 73h-2h-72q-74 0 -74 -73v-672h-698v672q0 73 -72 73h-71q-72 0 -72 -73v-1637z" />
<glyph unicode="I" horiz-adv-x="968" d="M84 97q0 -72 70 -72h2h694q72 0 72 72.5t-72 72.5h-238v1489h236q74 0 74 75q0 74 -72 74h-2h-690q-74 0 -74 -74.5t74 -74.5h237v-1489h-239q-72 0 -72 -73z" />
<glyph unicode="J" d="M82 530q0 -221 154 -372t362 -158h102q203 6 352.5 150.5t161.5 353.5v1231q0 73 -71 73h-2h-381q-76 0 -76 -74.5t76 -74.5h237v-1131q0 -145 -102 -260q-102 -109 -246 -121q-147 12 -248.5 119.5t-101.5 261.5v2q0 74 -74 74h-71q-72 0 -72 -74z" />
<glyph unicode="K" horiz-adv-x="1275" d="M84 98q0 -73 70 -73h2h71q72 0 72 73v477l199 250l512 -768q14 -25 78 -31q19 -2 35 -1q37 0 53 9q38 22 38 54.5t-16 54.5l-567 852l563 691q20 20 20 43.5t-12 46.5h-2v2q-2 2 -5 6q-17 23 -74 23q-9 0 -19 -1q-72 -4 -88 -26l-715 -881v836q0 73 -72 73h-71 q-72 0 -72 -73v-1637z" />
<glyph unicode="L" horiz-adv-x="1120" d="M84 98q0 -73 70 -73h2h839q72 0 72 73q0 74 -72 74h-696v1563q0 73 -72 73h-71q-72 0 -72 -73v-1637z" />
<glyph unicode="M" horiz-adv-x="1624" d="M84 98q0 -73 70 -73h2h71q72 0 72 73v1370l408 -507v-148q0 -74 73 -74h72q72 0 72 74v148l407 505v-1368q0 -73 72 -73h2h70q74 0 73 73v1659q0 63 -65 74q-18 2 -34.5 0t-48.5 2h-7q-28 0 -52 -29l-526 -657l-526 657q-23 28 -57 28q-6 0 -13 -1q-21 -2 -37 1 q-7 1 -14 1q-10 0 -21 -2q-63 -8 -63 -74v-1659z" />
<glyph unicode="N" d="M84 98q0 -73 70 -73h2h71q72 0 72 73v1366l698 -788v-578q0 -73 72 -73h2h70q74 0 73 73v1637q0 73 -71 73h-2h-70q-74 0 -74 -73v-758l-712 807q-16 16 -37 20l-21 4h-71q-72 0 -72 -73v-1637z" />
<glyph unicode="O" d="M82 528q0 -201 131 -350t330 -174v-2h12q10 -2 27 -2h131q16 0 26 2h17v2q193 29 325 174q133 152 133 350v844q-4 190 -135 321.5t-317 135.5h-225q-190 -4 -321.5 -135t-131.5 -322v-805q-2 -4 -2 -39zM299 528v844q0 129 92 219q96 90 219 90h76q127 0 217 -90 t94 -219v-844q0 -143 -96 -251.5t-235 -126.5h-35q-141 18 -236.5 125t-95.5 253z" />
<glyph unicode="P" d="M84 98q0 -73 70 -73h2h71q72 0 72 73v645h383q-2 0 18 5q211 6 363 159q152 157 152 371q0 215 -154 369q-150 156 -367 161h-538q-72 0 -72 -73v-1637zM299 893v770h313v-2q160 0 272.5 -112.5t112.5 -271.5t-112.5 -271.5t-270.5 -112.5h-315z" />
<glyph unicode="Q" horiz-adv-x="1355" d="M82 528q0 -201 131 -350t330 -174v-2h12q46 -2 92 -2l92 2h17v2q83 7 176 57l133 -176q16 -25 81 -27q9 -1 17 -1q51 0 72 14q32 22 32 51q0 22 -18 47l-162 215q127 152 127 344v844q-4 190 -135 321.5t-317 135.5h-225q-190 -4 -321.5 -135t-131.5 -322v-805 q-2 -4 -2 -39zM299 528v844q0 129 92 219q96 90 219 90h76q127 0 217 -90t94 -219v-844q0 -92 -39 -168l-147 203q-20 25 -85 29q-12 1 -22 1q-47 0 -63 -15q-32 -22 -32 -51q0 -22 18 -48l196 -270q-76 -51 -157 -59h-35q-141 18 -236.5 125t-95.5 253z" />
<glyph unicode="R" d="M84 98q0 -73 70 -73h2h71q72 0 72 73v645h387q127 0 218 -91t91 -220h2v-334q0 -73 72 -73h2h70q74 0 73 73v336q0 3 -4 23q-6 123 -70.5 221t-164.5 156q106 72 172.5 187.5t66.5 256.5q0 215 -153 369q-150 156 -367 161h-538q-72 0 -72 -73v-1637zM299 893v770h313v-2 q160 0 272.5 -112.5t112.5 -271.5t-112.5 -271.5t-270.5 -112.5h-315z" />
<glyph unicode="S" d="M84 98q0 -73 72 -73h2h426q2 -2 20 -2h27h53q219 0 374.5 143t155.5 361t-153 372q-150 156 -367 162h-6v2h-78q-125 0 -221 90q-90 96 -90 222t90 206q92 80 221 80v2h385q72 0 72 73q0 72 -70 72h-2h-471q-10 0 -12 -2q-174 -8 -301 -129t-127 -304t133 -322 q139 -133 324 -133h57q16 -4 14 -5q160 0 272.5 -112.5t112.5 -262t-96 -251.5q-96 -96 -233 -115h-510q-74 0 -74 -74z" />
<glyph unicode="T" horiz-adv-x="1159" d="M84 1735.5q0 -72.5 72 -72.5h387v-1567q0 -71 67 -71h2h72q72 0 72 71v1567h385q74 0 73 72q0 73 -71 73h-2h-985q-72 0 -72 -72.5z" />
<glyph unicode="U" d="M84 526q0 -219 150.5 -369.5t363.5 -156.5h102q199 2 343 140t167 331q4 20 4 23v1241q0 73 -71 73h-2h-70q-74 0 -74 -73v-1207q0 -145 -102 -260q-102 -109 -246 -121q-145 12 -245.5 118.5t-104.5 260.5v1209q0 73 -70 73h-2h-71q-72 0 -72 -73v-1209z" />
<glyph unicode="V" horiz-adv-x="1204" d="M84 1448q0 -23 1 -26t2 -11t3 -18l455 -1342q8 -23 30 -39q27 -10 37 -10h80q49 4 64 49l454 1342q4 29 5 39.5t2 15.5v287q0 73 -70 73h-2h-72q-74 0 -74 -73v-295l-350 -1034l-350 1034v295q0 73 -72 73h-71q-72 0 -72 -73v-287z" />
<glyph unicode="W" horiz-adv-x="2138" d="M84 1448q0 -23 1 -26t2 -11t3 -18l455 -1342q8 -23 30 -39q27 -10 37 -10h80q49 4 64 49l352 1041l352 -1041q6 -23 26.5 -36t41.5 -13q40 0 82.5 1t58.5 48l455 1342q6 16 4 30q4 20 4 25v287q0 73 -72 73h-2h-69q-74 0 -74 -73v-295l-350 -1034l-351 1034v295 q0 73 -71 73h-2h-70q-74 0 -74 -73v-287q0 -10 2 -12l-350 -1030l-350 1034v295q0 73 -72 73h-71q-72 0 -72 -73v-287z" />
<glyph unicode="X" horiz-adv-x="1181" d="M94 125q-12 -23 -12 -42q0 -35 41 -56q11 -8 36 -8q22 0 55 6q71 12 79 30l358 639l357 -639q8 -18 78 -30q33 -6 55 -6q26 0 37 8q38 22 38 58q0 12 -4 26q-4 18 -18 36l-426 766l438 787q12 24 12 43q0 35 -40 55q-13 6 -38 6q-23 0 -55 -5q-68 -11 -77 -30l-357 -639 l-358 639q-10 17 -78 29q-33 6 -56 6q-24 0 -36 -6q-41 -21 -41 -56q0 -19 12 -42l438 -787z" />
<glyph unicode="Y" horiz-adv-x="1181" d="M84 1735q0 -25 14 -45l445 -869v-725q0 -71 67 -71h2h72q72 0 72 71v721l450 885q11 20 11 37q0 30 -31 53q-23 16 -45 16h-70q-42 0 -65 -41l-357 -694l-354 694q-22 41 -68 41h-71q-72 0 -72 -73z" />
<glyph unicode="Z" horiz-adv-x="1236" d="M84 108q0 -22 10 -49q10 -16 30 -28q14 -8 32 -8q10 0 20 2h33q9 -1 19 -1t20 1h893q74 0 73 73q0 74 -73 74h-787l856 1528q11 22 11 40q0 35 -41 58q-5 2 -17 6t-22 4h-985q-72 0 -72 -72.5t72 -72.5h796l-848 -1513q-20 -20 -20 -42z" />
<glyph unicode="[" horiz-adv-x="796" d="M229 98q0 -74 74 -73h383q74 0 74 73q0 74 -74 74h-240v1491h240q74 0 74 73t-74 72h-383q-74 0 -74 -73v-1637z" />
<glyph unicode="\" horiz-adv-x="1159" d="M94 1722l918 -1683q10 -18 76.5 -29.5t91.5 -1.5q66 35 30 101l-917 1683q-10 18 -79 30.5t-91 0.5q-66 -35 -29 -101z" />
<glyph unicode="]" horiz-adv-x="796" d="M229 98q0 -74 74 -73h383q74 0 74 73v1637q0 73 -74 73h-383q-74 0 -74 -72.5t74 -72.5h240v-1491h-240q-74 0 -74 -74z" />
<glyph unicode="^" horiz-adv-x="917" d="M102 1831q20 -20 87 -20t87 20l187 186l186 -186q20 -20 87 -20.5t87 20.5q51 51 0 102l-270 273q-20 20 -55 20h-70q-35 0 -55 -20l-271 -273q-51 -51 0 -102z" />
<glyph unicode="_" d="M84 98q0 -74 74 -73h983q74 0 73 73q0 74 -73 74h-983q-74 0 -74 -74z" />
<glyph unicode="`" horiz-adv-x="542" d="M92 1724l193 -331q14 -27 78.5 -34t91.5 7q59 37 26 100l-190 332q-14 27 -79.5 34t-90.5 -7q-66 -37 -29 -101z" />
<glyph unicode="a" d="M84 462q0 -187 133 -327q139 -133 324 -133h143q174 0 313 102v-6q0 -73 72 -73h2h70q74 0 73 73v973q0 10 -6 27q-20 156 -140 255t-288 109q-16 4 -22 4h-455q-74 0 -74 -72.5t74 -72.5h363q16 -4 20 -4q127 0 217 -78t94 -207v-114h-460q-188 -4 -320.5 -136.5 t-132.5 -319.5zM299 456q0 120 78 208t194 104h426v-238q-4 -160 -108 -266t-254 -114h-43q-119 6 -209 96q-84 90 -84 210z" />
<glyph unicode="b" d="M84 469q0 -200 133 -333.5t322 -133.5h168q211 10 356 162q147 147 151 366v533h-2v10q0 10 -2 12v11q-2 2 -2 10t-2 10v2q-16 84 -61 158q-6 4 -10.5 11t-8.5 13v3q-4 6 -6 6v2l-6 8h-2l-2 2q0 2 -4 6q-4 0 -4 6h-2v2l-15 17q-6 0 -6 6h-2l-8 8q-4 0 -4 4h-2v2l-8 8 q-6 0 -6 4h-2v2q-4 4 -8.5 6.5t-13.5 10.5q-22 20 -34 20l-2 2h-2v2q-6 0 -6 5l-2 2q-8 0 -16 8q-4 0 -7 1q-22 9 -26 13l-23 8h-2l-2 2q-4 0 -6 2h-4q-3 3 -10 5q-4 0 -6 2h-5l-12 4h-8l-2 2q-4 0 -6 2h-4q-4 0 -6 2h-13q-2 2 -4 2h-10q-2 2 -8 2h-17q-2 0 -6 2h-180 q-166 -6 -297 -105v496q0 74 -72 74h-71q-72 0 -72 -74v-1413zM299 461v504q4 156 109 260q106 111 260 118h34q119 -6 207 -96t88 -215v-502q-4 -160 -108 -264q-104 -109 -254 -116h-41q-119 6 -209 96q-84 90 -84 213v2h-2z" />
<glyph unicode="c" d="M84 440q6 -184 137 -309t316 -129h225q186 4 318 136t134 317v6q-2 69 -71 69h-2h-70q-72 0 -74 -69q0 -127 -89 -216t-210 -95h-102q-127 6 -210 95t-87 212v508q4 156 109 260q106 111 260 118h34q119 -6 207 -96t88 -215v-2q2 -67 72 -67h2h70q70 0 73 67v21 q-2 6 -2 14v12q0 14 -2 21.5t-4 17.5t-5 22.5t-6 22.5q-7 23 -7 27l-10 26q-5 5 -7 11t-5 10t-3 8h-2q0 -6 -4 10q-4 4 -4 11q-6 6 -6 8v2l-6 6v2q-10 10 -13 16v2l-6 9h-2q-2 2 -3 4q-3 6 -8 11t-7 9h-2l-13 17h-2l-20 20h-2v2l-8 6v2q-2 0 -8 6h-3l-14 13h-2v2l-14 10 q-2 0 -3 1t-10 7q-6 0 -7 3t-5 3t-4 5l-12 6q-6 0 -7 3t-3 3t-7 2h-2l-2 2q-6 0 -6 4h-4l-10 4q-2 0 -6 4h-4q-2 0 -7 4h-4q-2 2 -5 2t-21 9h-6l-11 4q-6 0 -6 2h-6q-2 0 -4 2h-6q-2 2 -6 2h-4q-2 2 -7 2h-6l-6 2h-10q-2 2 -6 2h-17q-6 0 -8 2h-180q-213 -10 -361.5 -159 t-150.5 -357v-535zM1214 1038v13v-13z" />
<glyph unicode="d" d="M84 457q0 -195 136 -325t319 -130h168q158 6 290 102v-6q0 -73 70 -73h2h72q74 0 73 73v1784q0 74 -73 74h-72q-72 0 -72 -74v-461q-1 0 -14 9h-2q0 8 -12 8l-4 2q-2 0 -5.5 2t-12.5 5t-9 5h-2v2l-29 10q-6 0 -10 4h-2q-4 0 -8 5h-2l-11 2h-2q-2 2 -8 2l-22 6h-2 q-15 3 -22 5q-3 1 1 -1h-12q-2 2 -10 2h-15l-10 2h-176q-215 -10 -363 -164q-150 -150 -149 -366v-504zM299 461v500q0 158 108 265.5t261 116.5h47q0 -2 4 -2h10q2 -2 4 -2h8q2 -2 4 -2h5q2 0 4 -2h6q2 -2 4 -2h4q0 -2 2 -2h4q4 -4 8 -4h2l7 -2h2q0 -2 2 -2h6q2 -2 4 -2h2 q2 -2 4 -2v-2h2q6 0 6 -4q2 0 4 -2h4l2 -2h2q0 -4 7 -4q9 -9 14 -9l4 -4q4 0 12 -8v-2h2q2 -2 7 -2v-2q2 0 10 -8h2l4 -4v-2h2v-2l2 -2h2l4 -5q0 -2 2 -2l4 -4v-2l4 -4h2l5 -4v-2q2 0 4 -4h2l12 -19q10 -10 10 -16l2 -2q0 -5 13 -18l2 -9q0 -2 4 -6q0 -6 4 -6q2 -2 2 -6v-2 l6 -12v-9q2 -2 2 -8h2q0 -4 2 -6v-6l2 -2v-6l4 -17v-8q2 -2 2 -6v-8l2 -8v-525q-4 -158 -108 -262q-104 -109 -254 -116h-41q-119 6 -209 96q-84 90 -84 213v2h-2z" />
<glyph unicode="e" d="M84 475q4 -184 129 -310t303 -136q20 -4 25 -4h454q72 0 72 72.5t-72 72.5h-362q-16 4 -23 4q-123 0 -219 90q-88 88 -92 217v94h463q186 0 319 134q133 139 133 326t-134 321.5t-322 134.5v-2l-2 2h-154q-205 -6 -355.5 -150.5t-162.5 -349.5v-516zM299 723v242 q4 158 111 265.5t258 112.5h34q119 -6 207 -96t88 -216t-90 -216t-215 -92h-393z" />
<glyph unicode="f" horiz-adv-x="1138" d="M84 1395q0 -74 74 -74h237v-1223q0 -73 72 -73h2h72q72 0 71 73v1223h240q74 0 74 74q0 73 -72 73h-2h-240v31q0 123 82 211t205 98h242q73 0 73 72q0 76 -73 76h-291q-174 -4 -300 -117.5t-151 -277.5q-4 -20 -4 -25v-68h-237q-74 0 -74 -73z" />
<glyph unicode="g" d="M84 457q0 -195 136 -325t319 -130h168q158 6 290 102v-186q-4 -129 -94 -219t-217 -90l-20 -4h-363q-74 0 -74 -74t74 -74h455q6 0 22 4q166 8 290 126t142 284q2 4 2 18v1184q0 12 -6 29v6q0 2 -2 2v8q0 2 -2 4v6q0 2 -2 5v6q-2 2 -2 4l-2 6v4q-4 0 -4 10v6l-4 11v2 l-10 24v2q-4 4 -4 6v5l-7 8v2q-2 4 -4 7t-2 7h-2v2q-4 4 -4 6q0 9 -10 19v4l-2 2q0 2 -2 4h-2l-15 23h-2v2q-6 0 -6 8l-4 4q0 2 -2 4q-6 0 -6 8l-4 4q-2 0 -4 2q0 2 -6.5 7.5t-8.5 9.5q-6 6 -6 8q-4 0 -4 4l-37 29l-8 8l-4 2q-2 2 -2 4q-13 0 -13.5 4t-19.5 14q-4 0 -4 5 q-8 0 -18 10h-2l-11 6l-20 8q-6 6 -12 6t-9 2h-2l-2 2q-4 0 -6 2h-2l-2 2h-4q-7 0 -9.5 3.5t-9 3.5t-14.5 4h-2q-2 2 -6 2h-6l-6 2h-4q-2 0 -7 2h-4q-6 0 -8 2h-14q-2 2 -6 2h-17l-8 2h-178q-215 -10 -363 -164q-150 -150 -149 -366v-504zM299 461v500q0 158 108 265.5 t261 116.5h34q119 -6 207 -96t88 -215v-502q-4 -160 -108 -264q-104 -109 -254 -116h-41q-119 6 -209 96q-84 90 -84 213v2h-2z" />
<glyph unicode="h" d="M84 98q0 -73 70 -73h2h71q72 0 72 73v867q4 150 103 255t245 121h72q117 -12 197.5 -100t80.5 -209v-934q0 -73 72 -73h2h70q74 0 73 73v965h-2q-12 170 -138 296t-306 132h-154q-178 0 -315 -105v496q0 74 -72 74h-71q-72 0 -72 -74v-1784z" />
<glyph unicode="i" horiz-adv-x="643" d="M84 1393q0 -74 74 -74h237v-1221q0 -73 72 -73h2h72q72 0 71 73v1295q0 73 -69 73h-2h-383q-74 0 -74 -73zM340 1854.5q0 -101.5 100 -101.5h72q100 0 100 101t-100 102h-72q-100 0 -100 -101.5z" />
<glyph unicode="j" horiz-adv-x="643" d="M12 -467q0 -72 74 -72h33h41q176 4 304 122t146 288q2 2 2 18v1506q0 71 -69 71h-2h-383q-74 0 -74 -73q0 -74 74 -74h237v-1401q0 -131 -91 -220t-218 -89q-74 -4 -74 -76zM340 1854.5q0 -101.5 100 -101.5h72q100 0 100 101t-100 102h-72q-100 0 -100 -101.5z" />
<glyph unicode="k" horiz-adv-x="1306" d="M84 98q0 -73 70 -73h2h71q72 0 72 73v273l274 305l433 -633q19 -42 64 -42q10 0 22 2q16 3 42 -1q5 -1 10 -1q20 0 40 13q35 24 35 56q0 22 -17 47l-487 717l481 534q23 24 23 49q0 28 -29 56q-20 15 -72 15h-18q-68 -3 -84 -22l-717 -796v1212q0 74 -72 74h-71 q-72 0 -72 -74v-1784z" />
<glyph unicode="l" horiz-adv-x="720" d="M49 1881q0 -75 74 -75h237v-1708q0 -73 72 -73h2h72q72 0 72 73v1784q0 74 -72 74h-383q-74 0 -74 -75z" />
<glyph unicode="m" horiz-adv-x="1832" d="M84 98q0 -73 70 -73h2h71q72 0 72 73v938q4 120 82 204q79 85 194 101q113 -14 193 -97t84 -202v-944q0 -73 70 -73h2h71q72 0 72 73v903q4 16 4 23v8q0 121 80 207q76 86 197 102q113 -14 191.5 -98t82.5 -201v-944q0 -73 72 -73h2h71q72 0 72 73v938q-4 186 -136 320.5 t-321 134.5h-69q-213 0 -350 -166q-140 166 -353 166h-69q-129 0 -244 -72q-23 47 -70 47h-71q-72 0 -72 -73v-1295z" />
<glyph unicode="n" d="M84 98q0 -73 70 -73h2h71q72 0 72 73v867q4 156 109 260q106 111 260 118h34q119 -6 207 -96t88 -215v-934q0 -73 72 -73h2h70q74 0 73 73v965h-2v10q0 10 -2 12v11q-2 2 -2 10t-2 10v2q-16 84 -61 158q-6 4 -10.5 11t-8.5 13v3q-4 6 -6 6v2l-6 8h-2l-2 2q0 2 -4 6 q-4 0 -4 6h-2v2l-15 17q-6 0 -6 6h-2l-8 8q-4 0 -4 4h-2v2l-8 8q-6 0 -6 4h-2v2q-4 4 -8.5 6.5t-13.5 10.5q-22 20 -34 20l-2 2h-2v2q-6 0 -6 5l-2 2q-8 0 -16 8q-4 0 -7 1q-22 9 -26 13l-23 8h-2l-2 2q-4 0 -6 2h-4q-3 3 -10 5q-4 0 -6 2h-5l-12 4h-8l-2 2q-4 0 -6 2h-4 q-4 0 -6 2h-13q-2 2 -4 2h-10q-2 2 -8 2h-17q-2 0 -6 2h-180q-166 -6 -297 -105v7q0 73 -70 73h-2h-71q-72 0 -72 -73v-1295z" />
<glyph unicode="o" d="M84 457q0 -195 136 -325t319 -130h168q211 10 356 162q147 147 151 366v533h-2v10q0 10 -2 12v11q-2 2 -2 10t-2 10v2q-16 84 -61 158q-6 4 -10.5 11t-8.5 13v3q-4 6 -6 6v2l-6 8h-2l-2 2q0 2 -4 6q-4 0 -4 6h-2v2l-15 17q-6 0 -6 6h-2l-8 8q-4 0 -4 4h-2v2l-8 8 q-6 0 -6 4h-2v2q-4 4 -8.5 6.5t-13.5 10.5q-22 20 -34 20l-2 2h-2v2q-6 0 -6 5l-2 2q-8 0 -16 8q-4 0 -7 1q-22 9 -26 13l-23 8h-2l-2 2q-4 0 -6 2h-4q-3 3 -10 5q-4 0 -6 2h-5l-12 4h-8l-2 2q-4 0 -6 2h-4q-4 0 -6 2h-13q-2 2 -4 2h-10q-2 2 -8 2h-17q-2 0 -6 2h-180 q-215 -10 -363 -164q-150 -150 -149 -366v-504zM299 461v500q0 158 108 265.5t261 116.5h34q119 -6 207 -96t88 -215v-502q-4 -160 -108 -264q-104 -109 -254 -116h-41q-119 6 -209 96q-84 90 -84 213v2h-2z" />
<glyph unicode="p" d="M84 -489q0 -72 72 -72h71q72 0 72 72v561q106 -70 240 -70h168q211 10 356 162q147 147 151 366v533h-2v10q0 10 -2 12v11q-2 2 -2 10t-2 10v2q-16 84 -61 158q-6 4 -10.5 11t-8.5 13v3q-4 6 -6 6v2l-6 8h-2l-2 2q0 2 -4 6q-4 0 -4 6h-2v2l-15 17q-6 0 -6 6h-2l-8 8 q-4 0 -4 4h-2v2l-8 8q-6 0 -6 4h-2v2q-4 4 -8.5 6.5t-13.5 10.5q-22 20 -34 20l-2 2h-2v2q-6 0 -6 5l-2 2q-8 0 -16 8q-4 0 -7 1q-22 9 -26 13l-23 8h-2l-2 2q-4 0 -6 2h-4q-3 3 -10 5q-4 0 -6 2h-5l-12 4h-8l-2 2q-4 0 -6 2h-4q-4 0 -6 2h-13q-2 2 -4 2h-10q-2 2 -8 2h-17 q-2 0 -6 2h-180q-166 -6 -297 -105v7q0 73 -70 73h-2h-71q-72 0 -72 -73v-1882zM299 461v504q4 156 109 260q106 111 260 118h34q119 -6 207 -96t88 -215v-502q-4 -160 -108 -264q-104 -109 -254 -116h-41q-119 6 -209 96q-84 90 -84 213v2h-2z" />
<glyph unicode="q" d="M84 457q0 -195 136 -325t319 -130h168q158 6 290 102v-593q0 -72 74 -72q20 0 35 8q14 -8 35 -8q74 0 73 72v1552h-2v10q0 10 -2 12v11q-2 2 -2 10t-2 10v2q-16 84 -61 158q-6 4 -10.5 11t-8.5 13v3q-4 6 -6 6v2l-6 8h-2l-2 2q0 2 -4 6q-4 0 -4 6h-2v2l-15 17q-6 0 -6 6 h-2l-8 8q-4 0 -4 4h-2v2l-8 8q-6 0 -6 4h-2v2q-4 4 -8.5 6.5t-13.5 10.5q-22 20 -34 20l-2 2h-2v2q-6 0 -6 5l-2 2q-8 0 -16 8q-4 0 -7 1q-22 9 -26 13l-23 8h-2l-2 2q-4 0 -6 2h-4q-3 3 -10 5q-4 0 -6 2h-5l-12 4h-8l-2 2q-4 0 -6 2h-4q-4 0 -6 2h-13q-2 2 -4 2h-10 q-2 2 -8 2h-17q-2 0 -6 2h-180q-215 -10 -363 -164q-150 -150 -149 -366v-504zM299 461v500q0 158 108 265.5t261 116.5h34q119 -6 207 -96t88 -215v-502q-4 -160 -108 -264q-104 -109 -254 -116h-41q-119 6 -209 96q-84 90 -84 213v2h-2z" />
<glyph unicode="r" horiz-adv-x="995" d="M84 98q0 -73 70 -73h2h71q72 0 72 73v867q4 156 109 260q106 111 260 118h34q96 -6 172 -63q23 -20 57 -19t64 1q72 0 72 71q0 20 -8 35l4 4q-20 16 -27 23q-117 92 -274 96h-166q-166 -6 -297 -105v7q0 73 -70 73h-2h-71q-72 0 -72 -73v-1295z" />
<glyph unicode="s" d="M84 98q0 -73 72 -73h2h587l9 2h8q178 0 309 112.5t143 288.5h-4h4q-16 164 -133 283t-278 133l-342 37h-4l-11 2q-61 6 -103 51t-42 108h-2q2 119 87 196t210 83h399q72 0 72 73q0 72 -70 72h-2h-465q-182 -4 -312 -123t-134 -301v-10q4 -121 87 -207t206 -90v-2l340 -37 q111 -10 187.5 -84.5t92.5 -185.5q-12 -113 -95 -180.5t-195 -73.5h-549q-74 0 -74 -74z" />
<glyph unicode="t" horiz-adv-x="1236" d="M84 1393.5q0 -72.5 74 -72.5h239v-864q0 -12 2 -17q10 -182 141.5 -297t305.5 -116q4 -2 6 -2h295q74 0 74 73q0 74 -74 74h-240q-117 6 -207 84q-84 80 -84 203v2h-2v860h381q72 0 72 73q0 72 -70 72h-2h-381v269q0 73 -69 73h-2h-72q-74 0 -74 -73v-269h-239 q-74 0 -74 -72.5z" />
<glyph unicode="u" d="M84 457q0 -195 136 -325t319 -130h168q157 6 290 102v-6q0 -73 72 -73h2h70q74 0 73 73v1297q0 71 -71 71h-2h-70q-74 0 -74 -71v-865q-4 -160 -108 -264q-104 -109 -254 -116h-41q-119 6 -209 96q-84 90 -84 213v2h-2v932q0 73 -70 73h-2h-71q-72 0 -72 -73v-936z" />
<glyph unicode="v" horiz-adv-x="1280" d="M84 952q0 -25 14 -39l449 -862q10 -31 35 -41q16 -10 34 -10h70q18 0 40 12t30 39l454 875q6 13 9 26v428l2 13q0 73 -72 73h-2h-72q-74 0 -74 -73v-414l-350 -676l-352 676v414q0 73 -72 73h-69q-72 0 -74 -69v-445z" />
<glyph unicode="w" horiz-adv-x="1828" d="M84 797q0 -25 14 -39l367 -709q23 -47 76 -47h69q55 0 78 53l273 523l272 -529q23 -47 76 -47h69q55 0 78 53l371 713q4 9 8 29v596q0 73 -70 73h-2h-71q-74 0 -74 -73l2 -572l-277 -530l-276 530v144q0 73 -70 73h-2h-71q-68 0 -72 -71v-146l-277 -530l-276 530v572 q0 73 -70 73h-2h-71q-72 0 -72 -73v-596z" />
<glyph unicode="x" horiz-adv-x="1226" d="M96 115q-15 -24 -15 -45q0 -32 36 -58q25 -10 69 -10q12 0 24 1q62 3 79 28l362 532l365 -532q16 -27 76 -29h16q48 0 80 10q35 24 35 56q0 22 -17 47l-430 630l430 631q17 24 17 46q0 31 -35 57q-23 13 -68 13q-11 0 -24 -1q-63 -4 -80 -31l-365 -532l-362 532 q-19 25 -81 30q-15 1 -27 1q-42 0 -64 -12q-36 -25 -36 -58q0 -21 15 -45l432 -631z" />
<glyph unicode="y" d="M84 444l2 -4q6 -186 138 -312t315 -126h168q158 6 290 102v-210q-4 -127 -94 -218.5t-217 -91.5l-20 -4h-363q-74 0 -74 -73q0 -72 72 -72h2h455q2 0 22 4q166 8 291 127q123 113 141 280q2 4 2 21v1528q0 71 -71 71h-2h-70q-74 0 -74 -71v-865q-4 -160 -108 -264 q-104 -109 -254 -116h-41q-119 6 -209 96q-84 90 -84 213v2h-2v932q0 73 -70 73h-2h-71q-72 0 -72 -73v-949z" />
<glyph unicode="z" horiz-adv-x="1214" d="M84 100q0 -33 14 -47t21 -16q19 -14 40 -14q8 0 17 2h35q9 -2 18 -2t19 2h893q74 0 73 73q0 74 -73 74h-770l831 1180q18 24 18 46q0 30 -36 54q-21 14 -43 14h-983q-74 0 -74 -72.5t74 -72.5h776l-823 -1163q-27 -25 -27 -58z" />
<glyph unicode="&#xad;" horiz-adv-x="968" d="M84 958q0 -72 72 -71h694q72 0 72 71q0 72 -72 72h-694q-72 0 -72 -72z" />
<glyph unicode="&#x2000;" horiz-adv-x="1113" />
<glyph unicode="&#x2001;" horiz-adv-x="2226" />
<glyph unicode="&#x2002;" horiz-adv-x="1113" />
<glyph unicode="&#x2003;" horiz-adv-x="2226" />
<glyph unicode="&#x2004;" horiz-adv-x="742" />
<glyph unicode="&#x2005;" horiz-adv-x="556" />
<glyph unicode="&#x2006;" horiz-adv-x="371" />
<glyph unicode="&#x2007;" horiz-adv-x="371" />
<glyph unicode="&#x2008;" horiz-adv-x="278" />
<glyph unicode="&#x2009;" horiz-adv-x="445" />
<glyph unicode="&#x200a;" horiz-adv-x="123" />
<glyph unicode="&#x2010;" horiz-adv-x="968" d="M84 958q0 -72 72 -71h694q72 0 72 71q0 72 -72 72h-694q-72 0 -72 -72z" />
<glyph unicode="&#x2011;" horiz-adv-x="968" d="M84 958q0 -72 72 -71h694q72 0 72 71q0 72 -72 72h-694q-72 0 -72 -72z" />
<glyph unicode="&#x2012;" horiz-adv-x="968" d="M84 958q0 -72 72 -71h694q72 0 72 71q0 72 -72 72h-694q-72 0 -72 -72z" />
<glyph unicode="&#x2013;" horiz-adv-x="1154" d="M84 958q0 -72 88 -71h848q88 0 88 71q0 72 -88 72h-848q-88 0 -88 -72z" />
<glyph unicode="&#x2014;" horiz-adv-x="2178" d="M84 958q0 -72 176 -71h1696q176 0 176 71q0 72 -176 72h-1696q-176 0 -176 -72z" />
<glyph unicode="&#x202f;" horiz-adv-x="445" />
<glyph unicode="&#x205f;" horiz-adv-x="556" />
<glyph unicode="&#xe000;" horiz-adv-x="1495" d="M0 0v1495h1495v-1495h-1495z" />
<glyph unicode="&#xe002;" horiz-adv-x="2048" />
</font>
</defs>
</svg>
