<?xml version="1.0" standalone="no"?>
<!DOCTYPE svg PUBLIC "-//W3C//DTD SVG 1.1//EN" "http://www.w3.org/Graphics/SVG/1.1/DTD/svg11.dtd" >
<svg xmlns="http://www.w3.org/2000/svg">
<metadata></metadata>
<defs>
<font id="BebasRegular" horiz-adv-x="1060" >
<font-face units-per-em="2048" ascent="1638" descent="-410" />
<missing-glyph horiz-adv-x="189" />
<glyph horiz-adv-x="0" />
<glyph horiz-adv-x="2048" />
<glyph unicode="&#xd;" horiz-adv-x="189" />
<glyph unicode=" "  horiz-adv-x="189" />
<glyph unicode="&#x09;" horiz-adv-x="189" />
<glyph unicode="&#xa0;" horiz-adv-x="189" />
<glyph unicode="!" horiz-adv-x="464" d="M95 0v275h274v-275h-274zM95 804v1020h274v-1020l-20 -352h-234z" />
<glyph unicode="&#x22;" horiz-adv-x="769" d="M95 2112h254l-42 -416h-170zM420 2112h255l-42 -416h-170z" />
<glyph unicode="#" horiz-adv-x="1678" d="M95 432l42 276h273l58 347h-270l42 276h273l82 494h275l-82 -494h237l82 494h275l-82 -494h284l-42 -276h-287l-58 -347h284l-42 -276h-287l-71 -432h-275l71 432h-237l-71 -432h-275l71 432h-270zM687 708h235l57 347h-236z" />
<glyph unicode="$" horiz-adv-x="1099" d="M95 508l263 19q17 -161 83 -230q49 -54 113 -51q90 3 144 89q28 42 28 120q0 112 -102 226q-83 77 -228 214.5t-208.5 250t-63.5 256.5t67 261q81 144 242 183v118h233v-118q111 -25 183 -93q128 -119 143 -313l-265 -48q-12 111 -64 176q-35 44 -109 44t-109.5 -60.5 t-35.5 -140.5q0 -125 107 -256q39 -47 128 -120.5t121 -106.5q233 -240 239 -468.5t-133 -359.5q-83 -77 -205 -99v-128h-233v134q-164 42 -246.5 184t-91.5 317z" />
<glyph unicode="%" horiz-adv-x="1454" d="M95 1153v521q0 95 66.5 162t161.5 67t161.5 -68t66.5 -161v-521q0 -93 -67.5 -159.5t-161.5 -66.5t-160.5 66.5t-66.5 159.5zM182 -31l931 1929h160l-930 -1929h-161zM236 1156q0 -35 24 -59t59 -24t58.5 24t23.5 59v521q0 35 -24 59t-58 24q-35 0 -59 -24t-24 -59v-521z M905 217v520q0 95 66.5 162t161.5 67t161 -67.5t66 -161.5v-520q0 -95 -67 -160.5t-161 -65.5t-160.5 66.5t-66.5 159.5zM1046 220q0 -35 24 -59t59 -24t59 24t24 59v520q0 35 -24 59t-59 24t-59 -24t-24 -59v-520z" />
<glyph unicode="&#x26;" horiz-adv-x="1268" d="M95 420.5q0 142.5 68 295.5q12 25 62.5 108t87.5 137l-57 130q-78 171 -93.5 249t-15.5 141q0 122 54.5 227t159.5 158q83 45 189 45t199 -56t137.5 -145.5t44.5 -182.5q0 -164 -115 -312l-60 -78q-81 -106 -149 -199q92 -191 206 -356q68 156 105 331l249 -55 q-65 -291 -178 -491q106 -97 185 -98v-254q-160 0 -330 145q-163 -172 -349 -172q-215 0 -329 178q-71 112 -71 254.5zM349 427q0 -81 36.5 -133.5t114.5 -52.5t171 105q-112 144 -226 352q-26 -44 -52 -90q-44 -100 -44 -181zM400 1481.5q0 -80.5 84 -281.5q17 22 35 44 l95 125q64 84 64 147.5t-15 92.5q-36 92 -113 91.5t-113.5 -69.5t-36.5 -149.5z" />
<glyph unicode="'" horiz-adv-x="443" d="M95 2112h254l-42 -416h-170z" />
<glyph unicode="(" horiz-adv-x="734" d="M95 999q0 361 183 745q83 180 185 330l173 -81q-79 -163 -158 -383q-123 -345 -121.5 -611t142.5 -685q63 -183 141 -358l-177 -90q-103 169 -185 359q-183 426 -183 774z" />
<glyph unicode=")" horiz-adv-x="733" d="M95 -44q214 473 270 872q12 89 12 170q0 272 -140 660q-61 170 -138 333l173 82q100 -150 183 -330q183 -399 183.5 -746t-183.5 -773q-81 -191 -183 -358z" />
<glyph unicode="*" horiz-adv-x="910" d="M95 1478l75 219l199 -97l-32 225h232l-32 -228l208 100l71 -219l-223 -39l152 -158l-189 -139l-105 199l-106 -199l-192 139l161 160z" />
<glyph unicode="+" horiz-adv-x="1125" d="M95 790v203h366v367h204v-367h366v-203h-366v-367h-204v367h-366z" />
<glyph unicode="," horiz-adv-x="465" d="M95 0v273h276v-273l-100 -209h-117l66 209h-125z" />
<glyph unicode="-" horiz-adv-x="1003" d="M95 772v277h814v-277h-814z" />
<glyph unicode="." horiz-adv-x="464" d="M95 -1v274h274v-274h-274z" />
<glyph unicode="/" horiz-adv-x="1173" d="M95 -55l760 1994h224l-760 -1994h-224z" />
<glyph unicode="0" d="M95 416v995q0 182 128 309t309 127t307.5 -128t126.5 -308v-995q0 -182 -128 -308.5t-308.5 -126.5t-307.5 127.5t-127 307.5zM365 420q0 -65 46 -111.5t111 -46.5t112 46.5t47 111.5v997q0 65 -46.5 111.5t-112.5 46.5q-65 0 -111 -46.5t-46 -111.5v-997z" />
<glyph unicode="1" horiz-adv-x="698" d="M95 1404v192q99 12 188 75t129 153h192v-1824h-277v1404h-232z" />
<glyph unicode="2" horiz-adv-x="1085" d="M95 1v252q0 9 44.5 75.5t78.5 118.5l71 103q63 86 193 269q244 341 244 547q0 83 -49 142.5t-129 59.5q-115 0 -163 -132q-16 -44 -16 -105v-70h-270v48q0 259 140 396q121 121 309 120.5t315.5 -135.5t127.5 -318t-83 -357q-45 -96 -150.5 -245t-194.5 -284l-50 -74 q-84 -128 -84 -140l540 -1v-270h-874z" />
<glyph unicode="3" horiz-adv-x="1080" d="M95 416v45l261 20l6 -64q6 -68 49 -111.5t111 -43.5q189 0 189 176v107q0 281 -294 281v236q159 0 232 84.5t72 228.5v42q0 179 -157 179q-87 0 -123 -59t-35 -141v-48h-269v43q0 195 99 317q112 140 310 139.5t309 -125t111 -299.5v-78q0 -170 -102 -293 q-44 -52 -102 -89q122 -68 189 -208q35 -71 35 -173v-144q0 -202 -135 -329.5t-319.5 -127.5t-310.5 128t-126 307z" />
<glyph unicode="4" horiz-adv-x="1125" d="M95 394v277l485 1154h275v-1154h176v-277h-176v-393h-275v393h-485zM353 671h227v568z" />
<glyph unicode="5" horiz-adv-x="1040" d="M95 416v44l263 20l6 -63q10 -109 88 -145q23 -12 50 -12q169 0 169 176v447q0 80 -59 132q-28 25 -89 25t-92.5 -53t-31.5 -108v-50h-277v996h805v-276h-528v-391q75 106 206 106q180 0 266 -127q74 -109 74 -308v-393q0 -202 -125 -329t-308 -127t-300.5 128t-116.5 308 z" />
<glyph unicode="6" horiz-adv-x="1018" d="M95 416v995q0 134 64.5 241.5t183.5 159.5q76 35 166 35q180 0 297.5 -128t117.5 -308v-39h-287v45q0 67 -35.5 112.5t-101.5 45.5q-65 0 -100.5 -45.5t-35.5 -112.5v-364q95 84 208 84q182 0 267 -118.5t85 -314.5v-313h-2q-9 -175 -126 -292.5t-293 -117.5 t-292.5 127.5t-115.5 307.5zM365 420q0 -67 35 -112.5t100 -45.5t101 46t36 112v338q0 79 -58 131q-28 25 -88 24.5t-93 -52t-33 -108.5v-333z" />
<glyph unicode="7" horiz-adv-x="1015" d="M95 1549v276h826v-276l-386 -1548h-269l386 1548h-557z" />
<glyph unicode="8" horiz-adv-x="1082" d="M95 416v166q0 167 112 292q48 54 112 89q-111 57 -172 189q-31 68 -31 172v99q0 177 110.5 300.5t302.5 123.5h22q193 0 304 -124.5t111 -299.5v-99q0 -170 -102 -283q-45 -49 -100 -78q122 -68 189 -208q35 -71 35 -173v-166q0 -182 -128 -308.5t-309 -126.5h-22 q-182 0 -308 128t-126 307zM360 1361.5q5 -132.5 39 -184.5q44 -70 142 -70q182 0 180 241q-3 188 -117 236q-26 12 -80 12t-94 -36q-75 -66 -70 -198.5zM369 458q0 -90 51.5 -141t120.5 -54q112 6 156 111q16 35 16 84v87q0 163 -74 219q-35 26 -98 26q-109 0 -148 -93 q-23 -57 -24 -152v-87z" />
<glyph unicode="9" horiz-adv-x="1018" d="M95 416v39h285v-45q0 -67 35.5 -112t100.5 -45t101 45t36 112v365q-96 -86 -208 -86q-180 0 -270 127q-80 111 -80 308v313h1q6 127 72 228t180 150q74 32 161 32q180 0 297.5 -128t117.5 -308v-995q0 -182 -118.5 -308.5t-298.5 -126.5t-296.5 127.5t-115.5 307.5z M380 1071q0 -80 58 -133q26 -25 77 -25q105 0 131 111q7 33 7 51v333q0 67 -35.5 113t-101.5 46q-65 0 -100.5 -46t-35.5 -113v-337z" />
<glyph unicode=":" horiz-adv-x="465" d="M95 0v273h276v-273h-276zM95 772v275h276v-275h-276z" />
<glyph unicode=";" horiz-adv-x="464" d="M95 -1v274h274v-274l-98 -210h-117l64 210h-123zM95 772v275h274v-275h-274z" />
<glyph unicode="&#x3c;" horiz-adv-x="1101" d="M95 799v199l912 390v-232l-627 -259l627 -263v-230z" />
<glyph unicode="=" horiz-adv-x="1125" d="M95 636v203h936v-203h-936zM95 1034v204h936v-204h-936z" />
<glyph unicode="&#x3e;" horiz-adv-x="1101" d="M95 404v230l626 261l-626 261v232l912 -395v-199z" />
<glyph unicode="?" horiz-adv-x="1057" d="M95 1428q15 170 113 287q67 79 186 113q63 19 144 19q221 0 335 -158q90 -125 90 -294q0 -282 -255 -537q-89 -89 -94 -206q-3 -39 -3 -88v-109h-276v109q0 257 131 388q212 209 212 447q0 95 -44.5 153.5t-130.5 47.5q-123 -16 -144 -218zM335 -13v276h276v-276h-276z " />
<glyph unicode="@" horiz-adv-x="2048" d="M95 849.5q0 455.5 258.5 766.5t719.5 311q278 0 451 -106q409 -250 409 -768q0 -292 -163 -532q-185 -271 -465 -271q-148 0 -195 121q-68 -63 -126.5 -92t-144.5 -29q-205 0 -315 166q-96 143 -96 359q0 272 128 504q153 276 404 276q159 0 262 -135l14 97h275 l-158 -1002q0 -25 22 -25q84 0 160 81t129 193t52 289q0 292 -173.5 473.5t-464.5 181.5q-335 0 -551 -229.5t-216 -599t201 -596t535.5 -226.5t600.5 216l6 6h299l-27 -35q-153 -192 -383 -299t-480 -106q-413 0 -690.5 277.5t-277.5 733zM716 708q0 -90 32 -157 q42 -87 130 -87t147 103q34 58 76 216.5t42 326.5q0 86 -34 152t-113 66q-148 0 -225 -250q-55 -177 -55 -370z" />
<glyph unicode="A" horiz-adv-x="1182" d="M95 0l309 1823h379l305 -1823h-288l-65 419h-287l-67 -419h-286zM490 687h204l-102 718z" />
<glyph unicode="B" horiz-adv-x="1115" d="M95 0v1824h411q163 0 284 -80q196 -127 196 -425q0 -183 -97 -294q-41 -47 -96 -71q92 -35 155 -138q73 -122 73 -301q0 -325 -209 -451q-105 -64 -208 -64h-509zM391 272h115q140 0 194 144q19 49 19 113q0 287 -213 287h-115v-544zM391 1079h115q128 0 172 125 q16 47 16 115q0 113 -53 169.5t-135 56.5h-115v-466z" />
<glyph unicode="C" d="M95 412v995q0 182 128 309t309 127t307.5 -128t126.5 -308v-208h-285v213q0 65 -46.5 112t-112.5 47q-65 0 -111 -46.5t-46 -112.5v-997q0 -65 46 -111.5t111 -46.5t112 46t47 112v251h285v-254q0 -182 -128 -308.5t-308.5 -126.5t-307.5 127t-127 308z" />
<glyph unicode="D" horiz-adv-x="1053" d="M95 0v1824h432q180 0 306 -128t126 -307v-953q0 -180 -127 -308t-305 -128h-432zM369 272h166q65 0 110.5 47.5t45.5 111.5v954q0 65 -46 111.5t-110 46.5h-166v-1271z" />
<glyph unicode="E" horiz-adv-x="971" d="M95 0v1824h782v-275h-508v-499h371v-276h-371v-499h508v-275h-782z" />
<glyph unicode="F" horiz-adv-x="971" d="M95 0v1824h782v-275h-508v-499h371v-276h-371v-774h-274z" />
<glyph unicode="G" d="M95 412v995q0 182 128 309t309 127t307.5 -128t126.5 -308v-208h-285v213q0 65 -46.5 112t-112.5 47q-65 0 -111 -46.5t-46 -112.5v-997q0 -65 46 -111.5t111 -46.5t112 46t47 112v359h-153v275h438v-637q0 -182 -128 -308.5t-308.5 -126.5t-307.5 128t-127 307z" />
<glyph unicode="H" horiz-adv-x="1070" d="M95 0v1823h276v-774h329v774h276v-1823h-276v772h-329v-772h-276z" />
<glyph unicode="I" horiz-adv-x="464" d="M95 0v1823h274v-1823h-274z" />
<glyph unicode="J" horiz-adv-x="794" d="M95 1l39 256q47 -9 73.5 -9t79 3t98.5 47t46 109v1413h269v-1407q0 -182 -127.5 -307.5t-307.5 -125.5q-105 0 -170 21z" />
<glyph unicode="K" horiz-adv-x="1157" d="M95 0v1824h276v-650l334 650h294l-376 -746l440 -1078h-323l-288 739l-81 -163v-576h-276z" />
<glyph unicode="L" horiz-adv-x="938" d="M95 0v1823h274v-1550h475v-273h-749z" />
<glyph unicode="M" horiz-adv-x="1464" d="M95 0v1824h394l256 -1308l246 1308h379v-1824h-275v1146l-238 -1146h-221l-267 1143v-1143h-274z" />
<glyph unicode="N" horiz-adv-x="1137" d="M95 0v1824h309l364 -1225v1225h275v-1824h-295l-379 1168v-1168h-274z" />
<glyph unicode="O" d="M95 415v994q0 182 127.5 309.5t308 127.5t308 -128t127.5 -309v-994q0 -182 -128 -309.5t-309.5 -127.5t-307.5 128t-126 309zM364 417q0 -65 46.5 -111t111.5 -46t111 46t46 111v998q0 65 -45.5 111t-111.5 46q-65 0 -111.5 -45.5t-46.5 -111.5v-998z" />
<glyph unicode="P" horiz-adv-x="1053" d="M95 0v1823h433q201 0 316 -124t115 -311v-265q0 -180 -126 -308t-305 -128h-159v-687h-274zM369 959h166q65 0 111 46.5t46 111.5v266q0 71 -42.5 115t-114.5 44h-166v-583z" />
<glyph unicode="Q" horiz-adv-x="1106" d="M95 415v994q0 182 128 309.5t309 127.5t307.5 -129t126.5 -308v-994q0 -118 -58 -219q36 -42 104 -42v-256q-207 0 -282 130q-92 -49 -199 -50q-182 0 -309 128t-127 309zM365 417q0 -65 46 -111t111 -46t112 46t47 111v998q0 65 -46.5 111t-112.5 46q-65 0 -111 -45.5 t-46 -111.5v-998z" />
<glyph unicode="R" horiz-adv-x="1111" d="M95 0v1823h433q230 0 337 -127q95 -111 95 -308v-265q0 -193 -147 -327l204 -796h-297l-167 688q-12 -1 -25 -1h-159v-687h-274zM369 959h166q65 0 111 46.5t46 111.5v266q0 159 -157 159h-166v-583z" />
<glyph unicode="S" horiz-adv-x="1098" d="M95 495l261 18q17 -159 85 -229q46 -51 106 -51h7q90 3 144 88q28 42 28 121q0 113 -103 226q-81 77 -231.5 220t-209 254.5t-58.5 249.5q0 249 167 377q103 77 253 77t243 -58q181 -114 204 -361l-264 -48q-23 218 -173 220q-76 0 -111.5 -60.5t-35.5 -140.5 q0 -125 108 -255q41 -49 129.5 -122.5t119.5 -105.5q102 -102 142.5 -175t68.5 -141t29 -145v-11q0 -184 -99 -315q-107 -147 -342 -150q-161 0 -259 72q-192 143 -209 445z" />
<glyph unicode="T" horiz-adv-x="1047" d="M95 1548v275h858v-275h-291v-1548h-275v1548h-292z" />
<glyph unicode="U" d="M95 413v1410h269v-1407q0 -65 46.5 -111t111.5 -46t111 46t46 111v1407h287v-1410q0 -183 -128.5 -308t-309.5 -125t-307 126.5t-126 306.5z" />
<glyph unicode="V" horiz-adv-x="1224" d="M95 1823h288l228 -1419l231 1419h288l-331 -1823h-379z" />
<glyph unicode="W" horiz-adv-x="1607" d="M95 1823h288l144 -976l132 976h288l144 -976l134 976h288l-285 -1823h-264l-155 995l-146 -995h-263z" />
<glyph unicode="X" horiz-adv-x="1202" d="M95 0l357 916l-357 907h304l203 -563l202 563h304l-357 -907l357 -916h-295l-211 579l-212 -579h-295z" />
<glyph unicode="Y" horiz-adv-x="1201" d="M95 1824h302l204 -655l202 655h304l-370 -1060v-764h-274v764z" />
<glyph unicode="Z" horiz-adv-x="992" d="M95 0v273l507 1275h-507v275h802v-275l-506 -1275h506v-273h-802z" />
<glyph unicode="[" horiz-adv-x="651" d="M95 -1v1938h462v-276h-186v-1389h186v-273h-462z" />
<glyph unicode="\" horiz-adv-x="1173" d="M95 1937h222l762 -1992h-224z" />
<glyph unicode="]" horiz-adv-x="650" d="M95 -1v274h186v1390h-186v276h461v-1940h-461z" />
<glyph unicode="^" horiz-adv-x="776" d="M95 1601l226 511h134l227 -511h-189l-103 249l-103 -249h-192z" />
<glyph unicode="_" horiz-adv-x="1595" d="M95 -103h1406v-202h-1406v202z" />
<glyph unicode="`" horiz-adv-x="592" d="M95 2060h254l148 -418h-170z" />
<glyph unicode="a" horiz-adv-x="1182" d="M95 0l309 1823h379l305 -1823h-288l-65 419h-287l-67 -419h-286zM490 687h204l-102 718z" />
<glyph unicode="b" horiz-adv-x="1115" d="M95 0v1824h411q163 0 284 -80q196 -127 196 -425q0 -183 -97 -294q-41 -47 -96 -71q92 -35 155 -138q73 -122 73 -301q0 -325 -209 -451q-105 -64 -208 -64h-509zM391 272h115q140 0 194 144q19 49 19 113q0 287 -213 287h-115v-544zM391 1079h115q128 0 172 125 q16 47 16 115q0 113 -53 169.5t-135 56.5h-115v-466z" />
<glyph unicode="c" d="M95 412v995q0 182 128 309t309 127t307.5 -128t126.5 -308v-208h-285v213q0 65 -46.5 112t-112.5 47q-65 0 -111 -46.5t-46 -112.5v-997q0 -65 46 -111.5t111 -46.5t112 46t47 112v251h285v-254q0 -182 -128 -308.5t-308.5 -126.5t-307.5 127t-127 308z" />
<glyph unicode="d" horiz-adv-x="1053" d="M95 0v1824h432q180 0 306 -128t126 -307v-953q0 -180 -127 -308t-305 -128h-432zM369 272h166q65 0 110.5 47.5t45.5 111.5v954q0 65 -46 111.5t-110 46.5h-166v-1271z" />
<glyph unicode="e" horiz-adv-x="971" d="M95 0v1824h782v-275h-508v-499h371v-276h-371v-499h508v-275h-782z" />
<glyph unicode="f" horiz-adv-x="971" d="M95 0v1824h782v-275h-508v-499h371v-276h-371v-774h-274z" />
<glyph unicode="g" d="M95 412v995q0 182 128 309t309 127t307.5 -128t126.5 -308v-208h-285v213q0 65 -46.5 112t-112.5 47q-65 0 -111 -46.5t-46 -112.5v-997q0 -65 46 -111.5t111 -46.5t112 46t47 112v359h-153v275h438v-637q0 -182 -128 -308.5t-308.5 -126.5t-307.5 128t-127 307z" />
<glyph unicode="h" horiz-adv-x="1070" d="M95 0v1823h276v-774h329v774h276v-1823h-276v772h-329v-772h-276z" />
<glyph unicode="i" horiz-adv-x="464" d="M95 0v1823h274v-1823h-274z" />
<glyph unicode="j" horiz-adv-x="794" d="M95 1l39 256q47 -9 73.5 -9t79 3t98.5 47t46 109v1413h269v-1407q0 -182 -127.5 -307.5t-307.5 -125.5q-105 0 -170 21z" />
<glyph unicode="k" horiz-adv-x="1157" d="M95 0v1824h276v-650l334 650h294l-376 -746l440 -1078h-323l-288 739l-81 -163v-576h-276z" />
<glyph unicode="l" horiz-adv-x="938" d="M95 0v1823h274v-1550h475v-273h-749z" />
<glyph unicode="m" horiz-adv-x="1464" d="M95 0v1824h394l256 -1308l246 1308h379v-1824h-275v1146l-238 -1146h-221l-267 1143v-1143h-274z" />
<glyph unicode="n" horiz-adv-x="1137" d="M95 0v1824h309l364 -1225v1225h275v-1824h-295l-379 1168v-1168h-274z" />
<glyph unicode="o" d="M95 415v994q0 182 127.5 309.5t308 127.5t308 -128t127.5 -309v-994q0 -182 -128 -309.5t-309.5 -127.5t-307.5 128t-126 309zM364 417q0 -65 46.5 -111t111.5 -46t111 46t46 111v998q0 65 -45.5 111t-111.5 46q-65 0 -111.5 -45.5t-46.5 -111.5v-998z" />
<glyph unicode="p" horiz-adv-x="1053" d="M95 0v1823h433q201 0 316 -124t115 -311v-265q0 -180 -126 -308t-305 -128h-159v-687h-274zM369 959h166q65 0 111 46.5t46 111.5v266q0 71 -42.5 115t-114.5 44h-166v-583z" />
<glyph unicode="q" horiz-adv-x="1106" d="M95 415v994q0 182 128 309.5t309 127.5t307.5 -129t126.5 -308v-994q0 -118 -58 -219q36 -42 104 -42v-256q-207 0 -282 130q-92 -49 -199 -50q-182 0 -309 128t-127 309zM365 417q0 -65 46 -111t111 -46t112 46t47 111v998q0 65 -46.5 111t-112.5 46q-65 0 -111 -45.5 t-46 -111.5v-998z" />
<glyph unicode="r" horiz-adv-x="1111" d="M95 0v1823h433q230 0 337 -127q95 -111 95 -308v-265q0 -193 -147 -327l204 -796h-297l-167 688q-12 -1 -25 -1h-159v-687h-274zM369 959h166q65 0 111 46.5t46 111.5v266q0 159 -157 159h-166v-583z" />
<glyph unicode="s" horiz-adv-x="1098" d="M95 495l261 18q17 -159 85 -229q46 -51 106 -51h7q90 3 144 88q28 42 28 121q0 113 -103 226q-81 77 -231.5 220t-209 254.5t-58.5 249.5q0 249 167 377q103 77 253 77t243 -58q181 -114 204 -361l-264 -48q-23 218 -173 220q-76 0 -111.5 -60.5t-35.5 -140.5 q0 -125 108 -255q41 -49 129.5 -122.5t119.5 -105.5q102 -102 142.5 -175t68.5 -141t29 -145v-11q0 -184 -99 -315q-107 -147 -342 -150q-161 0 -259 72q-192 143 -209 445z" />
<glyph unicode="t" horiz-adv-x="1047" d="M95 1548v275h858v-275h-291v-1548h-275v1548h-292z" />
<glyph unicode="u" d="M95 413v1410h269v-1407q0 -65 46.5 -111t111.5 -46t111 46t46 111v1407h287v-1410q0 -183 -128.5 -308t-309.5 -125t-307 126.5t-126 306.5z" />
<glyph unicode="v" horiz-adv-x="1224" d="M95 1823h288l228 -1419l231 1419h288l-331 -1823h-379z" />
<glyph unicode="w" horiz-adv-x="1607" d="M95 1823h288l144 -976l132 976h288l144 -976l134 976h288l-285 -1823h-264l-155 995l-146 -995h-263z" />
<glyph unicode="x" horiz-adv-x="1202" d="M95 0l357 916l-357 907h304l203 -563l202 563h304l-357 -907l357 -916h-295l-211 579l-212 -579h-295z" />
<glyph unicode="y" horiz-adv-x="1201" d="M95 1824h302l204 -655l202 655h304l-370 -1060v-764h-274v764z" />
<glyph unicode="z" horiz-adv-x="992" d="M95 0v273l507 1275h-507v275h802v-275l-506 -1275h506v-273h-802z" />
<glyph unicode="{" horiz-adv-x="779" d="M95 902v141q100 9 130 92q13 35 14 186v282q0 202 103 280.5t343 78.5v-190q-127 0 -172 -35t-45 -143v-390q0 -70 -37.5 -138t-98.5 -93q57 -22 96.5 -89t39.5 -142v-391q0 -109 45.5 -142.5t171.5 -33.5v-191q-240 0 -343 78.5t-103 280.5v281q0 151 -14 188 q-31 83 -130 90z" />
<glyph unicode="|" horiz-adv-x="450" d="M95 -150v2551h261v-2551h-261z" />
<glyph unicode="}" horiz-adv-x="779" d="M95 -28v189q128 0 172 33.5t44 142.5v392q0 67 38.5 137.5t98.5 93.5q-57 23 -97 91.5t-40 139.5v392q0 109 -44 142.5t-172 33.5v190q240 0 344 -78.5t104 -280.5v-282q0 -95 2.5 -138t29 -88t110.5 -52v-141q-63 -6 -87 -25q-48 -38 -54 -135q-1 -22 -1 -118v-281 q0 -202 -108 -282q-97 -76 -340 -76z" />
<glyph unicode="~" horiz-adv-x="1079" d="M95 1981q173 233 420 114q71 -38 141 -76q33 -15 61 -15q52 1 115 86l153 -113q-124 -166 -275 -160q-84 1 -201 66t-159 65t-103 -80z" />
<glyph horiz-adv-x="744" />
<glyph unicode="&#xad;" horiz-adv-x="1003" d="M95 772v277h814v-277h-814z" />
<glyph unicode="&#x2000;" horiz-adv-x="1200" />
<glyph unicode="&#x2001;" horiz-adv-x="2401" />
<glyph unicode="&#x2002;" horiz-adv-x="1200" />
<glyph unicode="&#x2003;" horiz-adv-x="2401" />
<glyph unicode="&#x2004;" horiz-adv-x="800" />
<glyph unicode="&#x2005;" horiz-adv-x="600" />
<glyph unicode="&#x2006;" horiz-adv-x="400" />
<glyph unicode="&#x2007;" horiz-adv-x="400" />
<glyph unicode="&#x2008;" horiz-adv-x="300" />
<glyph unicode="&#x2009;" horiz-adv-x="480" />
<glyph unicode="&#x200a;" horiz-adv-x="133" />
<glyph unicode="&#x2010;" horiz-adv-x="1003" d="M95 772v277h814v-277h-814z" />
<glyph unicode="&#x2011;" horiz-adv-x="1003" d="M95 772v277h814v-277h-814z" />
<glyph unicode="&#x2012;" horiz-adv-x="1003" d="M95 772v277h814v-277h-814z" />
<glyph unicode="&#x2013;" horiz-adv-x="1213" d="M95 772v277h1024v-277h-1024z" />
<glyph unicode="&#x2014;" horiz-adv-x="2237" d="M95 772v277h2048v-277h-2048z" />
<glyph unicode="&#x202f;" horiz-adv-x="480" />
<glyph unicode="&#x205f;" horiz-adv-x="600" />
<glyph unicode="&#xe000;" horiz-adv-x="1825" d="M0 0v1825h1825v-1825h-1825z" />
</font>
</defs>
</svg>
