<?xml version="1.0" standalone="no"?>
<!DOCTYPE svg PUBLIC "-//W3C//DTD SVG 1.1//EN" "http://www.w3.org/Graphics/SVG/1.1/DTD/svg11.dtd" >
<svg xmlns="http://www.w3.org/2000/svg">
<metadata></metadata>
<defs>
<font id="ARTechniRegular" horiz-adv-x="1014" >
<font-face units-per-em="2048" ascent="1638" descent="-410" />
<missing-glyph horiz-adv-x="508" />
<glyph horiz-adv-x="0" />
<glyph horiz-adv-x="2048" />
<glyph unicode="&#xd;" horiz-adv-x="508" />
<glyph unicode=" "  horiz-adv-x="508" />
<glyph unicode="&#x09;" horiz-adv-x="508" />
<glyph unicode="&#xa0;" horiz-adv-x="508" />
<glyph unicode="!" horiz-adv-x="583" d="M188 104v10q0 45 46 81q30 18 54 18h11q39 0 74 -36q26 -32 26 -63v-10q0 -43 -31 -73.5t-76 -30.5q-67 0 -99 71q-5 18 -5 33zM208 1352q0 48 49 76q20 7 31 7h11q47 0 73 -50q6 -17 6 -29q-41 -1030 -43 -1030q-15 -28 -35 -28h-13q-22 0 -35 32q-4 55 -44 1022z" />
<glyph unicode="&#x22;" horiz-adv-x="672" d="M104 1371q0 48 50 76q18 8 36 8h1q58 0 83 -61q3 -15 3 -29.5t-45 -336.5q-14 -27 -43 -27q-38 0 -43 49q-42 311 -42 321zM405 1369q0 53 55 80q15 6 34 6q47 0 75 -47q9 -17 9 -33v-9q-41 -327 -47 -342q-14 -23 -38 -23h-2q-30 0 -41 31q-3 17 -45 337z" />
<glyph unicode="#" horiz-adv-x="1627" d="M100 454v11q0 49 58 76q16 4 23 4h291v344h-266q-68 0 -87 33q-19 21 -19 50v7q0 54 61 79q15 4 45 4h266v270q0 77 58 98q12 4 22 4h15q43 0 70 -48q8 -18 8 -34v-290h344v270q0 77 58 98q12 4 22 4h15q43 0 70 -48q8 -18 8 -34v-290h263q65 0 82 -23q28 -26 28 -60v-7 q0 -58 -66 -81q-16 -2 -44 -2h-263v-344h290q54 0 79 -59q4 -14 4 -21v-11q0 -50 -58 -77q-20 -5 -45 -5h-270v-289q0 -54 -59 -79q-14 -4 -24 -4h-5q-55 0 -80 59q-5 15 -5 47v266h-344v-289q0 -54 -59 -79q-14 -4 -24 -4h-6q-54 0 -79 59q-5 15 -5 47v266h-271 q-70 0 -94 52q-7 19 -7 30zM645 545h344v344h-344v-344z" />
<glyph unicode="$" horiz-adv-x="1238" d="M100 425l3 1h169q3 0 3 -3v-2q0 -108 118 -191q44 -28 99 -45l41 -10v566q-138 42 -200 85q-102 73 -136 183q-11 50 -11 93t26 107q47 107 164 170q64 35 157 51v171q0 2 2 2h170q3 0 3 -2v-171q28 0 130 -38q48 -22 103 -65q113 -105 113 -234v-1q0 -3 -3 -3h-170 q-2 0 -2 3q0 90 -130 147q-37 12 -41 12v-385q0 -3 137 -49q102 -43 165 -104q129 -127 129 -275v-22q0 -169 -152 -302q-66 -49 -129 -76q-111 -39 -150 -39v-171q0 -3 -3 -3h-170q-2 0 -2 3v171h-2q-38 0 -155 42q-64 28 -139 88q-137 131 -137 296zM360 1083.5 q0 -51.5 60 -102.5q36 -32 113 -55v325h-2q-84 -21 -127.5 -68.5t-43.5 -99zM708 175q111 24 180 87q78 76 78 152v21q0 81 -89 162q-48 39 -85 52t-84 30v-504z" />
<glyph unicode="%" horiz-adv-x="1530" d="M100 1118v27q0 89 70 182q53 67 163 100q40 7 61 7h14q111 0 207 -86q89 -97 89 -206v-22q0 -110 -91 -207q-96 -84 -203 -84h-16q-107 0 -203 84q-61 55 -86 160q-5 27 -5 45zM273 1131q0 -81 82 -121q27 -8 48 -8q69 0 112 66q16 32 16 61v11q0 52 -56 98 q-37 23 -71 23h-4q-70 0 -113 -71q-14 -30 -14 -50v-9zM314 78v12q0 29 33 76q551 954 655 1131q60 113 80 121q20 16 51 16q61 0 83 -69q2 -6 2 -12v-9q0 -27 -29 -71q-674 -1162 -700 -1208t-35 -46q-20 -19 -52 -19h-10q-41 0 -70 49q-8 18 -8 29zM831 290v24 q0 106 89 204q97 86 202 86h25q97 0 191 -78q61 -61 74 -107q24 -54 24 -104v-26q0 -98 -79 -192q-61 -60 -107 -73q-54 -24 -103 -24h-27q-102 0 -200 86q-89 98 -89 204zM1005 303q0 -87 88 -124q20 -6 36 -6h9q67 0 111 70q13 30 13 60v5q0 56 -54 99q-34 24 -69 24h-11 q-55 0 -100 -54q-23 -37 -23 -69v-5z" />
<glyph unicode="&#x26;" horiz-adv-x="1201" d="M100 345v21q0 119 88 232q152 221 165 238q-112 159 -135 197q-33 66 -33 130q0 123 103 214q80 58 164 58h13q107 0 195 -86q71 -85 71 -180v-16q0 -91 -79 -190q-1 -4 -87 -126q262 -379 289 -414q5 5 134 103h1q8 -8 53.5 -72.5t45.5 -69.5q-22 -18 -136 -103 q17 -26 194 -279q0 -2 -3 -2h-207q-1 0 -123 175q-136 -103 -174 -128q-88 -47 -170 -47h-20q-115 0 -222 83q-127 120 -127 262zM273 342q0 -63 67 -125q54 -44 121.5 -44t136.5 58q113 86 116 86q-242 349 -256 367q-163 -236 -163 -239q-22 -40 -22 -103zM359 1154 q0 -31 47 -89l52 -76q18 22 84 119q16 28 16 57q0 53 -54 86q-24 11 -46 11q-56 0 -89 -57q-10 -20 -10 -51z" />
<glyph unicode="'" horiz-adv-x="377" d="M108 1370q0 48 50 76q18 8 36 8h1q58 0 82 -61q4 -15 4 -29.5t-45 -336.5q-14 -27 -43 -27q-38 0 -43 50q-42 310 -42 320z" />
<glyph unicode="(" horiz-adv-x="538" d="M100 687v56q0 345 162 701q60 119 77 136q28 24 55 24h46q3 -1 3 -3q-171 -431 -171 -883t171 -887l-3 -1h-49q-53 0 -91 87q-45 79 -80.5 168t-76.5 246q-43 194 -43 356z" />
<glyph unicode=")" horiz-adv-x="548" d="M106 -167q171 432 171 867v36q0 433 -171 869l3 1h46q46 0 75 -52q220 -391 220 -836v-2q0 -449 -227 -846q-30 -40 -68 -40h-46q-3 0 -3 3z" />
<glyph unicode="*" horiz-adv-x="975" d="M102 1219v2q0 27 29 40q7 2 10 2h242q-168 169 -174 180t-6 14v9q0 29 35 40h14q18 0 46 -33l148 -147v242q0 24 30 37q4 2 12 2h3q42 -7 42 -42v-238q174 175 182 177t12 2h8q30 0 41 -35v-14q0 -17 -34 -46l-147 -148h240q30 0 42 -35v-9q0 -28 -30 -40q-4 -2 -9 -2 h-243q176 -177 178.5 -184t2.5 -10v-9q0 -30 -36 -40h-13q-19 0 -59 46l-135 134v-242q0 -24 -30 -37q-5 -2 -12 -2h-3q-27 0 -40 29q-2 7 -2 10v242q-176 -176 -183 -178t-11 -2h-9q-29 0 -40 34v15q0 18 44 57l136 137h-242q-23 0 -37 29q-2 7 -2 13z" />
<glyph unicode="+" horiz-adv-x="886" d="M100 712v8q0 39 37 68q25 15 45 15h175v152q0 62 27 81q25 24 54 24h13q36 0 66 -37q14 -20 14 -70v-150h175q41 0 70 -41q13 -25 13 -42v-8q0 -38 -38 -67q-25 -15 -45 -15h-175v-150q0 -55 -23 -81t-60 -26h-7q-44 0 -72 44q-12 16 -12 63v150h-175q-38 0 -67 37 q-15 25 -15 45z" />
<glyph unicode="," horiz-adv-x="414" d="M50 -216q0 10 54 333q14 41 44.5 59t52.5 18h13q48 0 84 -45q18 -28 18 -60v-10q0 -33 -46 -96q-116 -187 -145 -229q-16 -13 -30 -13q-34 0 -44 33q-1 5 -1 9v1z" />
<glyph unicode="-" horiz-adv-x="714" d="M140 506v13q0 45 49 72q18 8 33 8h265q52 0 79 -57q5 -17 5 -26v-9q0 -39 -44 -71q-24 -10 -37 -10h-268q-52 0 -79 58q-3 15 -3 22z" />
<glyph unicode="." horiz-adv-x="412" d="M100 112q0 31 24 64q37 39 79 39h11q51 0 88 -53q14 -26 14 -50v-9q0 -51 -38 -77t-64 -26h-11q-50 0 -87 51q-16 30 -16 61z" />
<glyph unicode="/" horiz-adv-x="968" d="M-4 -40q0 24 34 84l612 1226q165 328 172 340q28 32 67 32h7q52 0 77 -59q3 -14 3 -25v-10q0 -22 -26 -71t-404 -805.5t-389 -771.5q-27 -32 -77 -32t-73 61q-3 11 -3 23v8z" />
<glyph unicode="0" horiz-adv-x="1134" d="M100 720.5q0 254.5 111 496.5q18 38 64 90q59 58 90 72q95 55 192 55h24q115 0 227 -77q104 -77 152 -220q77 -203 77 -405v-29q0 -247 -111 -488q-20 -41 -78 -103q-73 -73 -198 -104q-44 -8 -75 -8h-12q-143 0 -266 105q-66 67 -89 119q-108 242 -108 496.5zM273 706.5 q0 -199.5 88 -400.5q35 -71 107 -108q48 -25 102 -25q117 0 194 109q65 121 94 318q5 51 5 104v23q0 203 -85 398q-10 30 -57 78q-69 58 -146 58h-12q-92 0 -168 -80q-30 -38 -50 -90q-72 -185 -72 -384.5z" />
<glyph unicode="1" horiz-adv-x="758" d="M200 1091v169q0 2 2 2h7q64 0 119 58q43 53 43 105v6q0 2 2 2h170q2 0 2 -2v-1324q0 -58 -22 -78q-26 -29 -73.5 -29t-72.5 58q-5 12 -5 49v925q0 56 -41 56h-129q-2 0 -2 3z" />
<glyph unicode="2" horiz-adv-x="1087" d="M100 2v170l651 640q66 84 66 172v10q0 88 -63 169q-89 98 -211.5 98t-209.5 -102q-59 -79 -59 -159.5t37 -147.5q12 -22 12 -40v-11q0 -43 -46 -70q-19 -10 -35 -10h-11q-61 0 -98 102q-33 84 -33 168q0 150 100 281q58 64 93 84q118 78 240 78h18q164 0 298 -119 q60 -60 85 -110q55 -104 55 -203v-27q0 -122 -84 -249q-29 -36 -79 -84l-409 -401q-8 -14 -8 -25q0 -35 41 -42h435q65 0 88 -37q16 -22 16 -42v-17q0 -37 -42 -67q-21 -11 -40 -11h-805q-2 0 -2 2z" />
<glyph unicode="3" horiz-adv-x="1087" d="M100 431q0 65 45 89q19 10 35 10h14q39 0 68 -44q13 -19 13 -75q20 -98 59 -137q29 -35 57 -53q74 -48 148 -48h11q98 0 186 78q80 88 80 185v17q0 96 -80 184q-88 79 -186 79h-4q-2 0 -2 2v169q0 3 2 3h3q69 0 129 57q52 58 52 120v16q0 69 -62 130q-58 47 -119 47h-9 q-73 0 -135 -63q-46 -55 -46 -133q-3 -22 -21 -47q-29 -28 -59 -28h-13q-43 0 -71 47q-9 19 -9 35v10q0 99 62 196q15 25 64 72q108 84 220 84h24q123 0 234 -95q113 -116 113 -258v-11q0 -144 -111 -255q34 -22 58 -45q140 -137 140 -319.5t-132 -321.5q-72 -68 -151 -98 t-152 -30h-16q-150 0 -278 101q-66 60 -78 84q-68 97 -81 209q-2 31 -2 37z" />
<glyph unicode="4" horiz-adv-x="1144" d="M100 563v11q0 26 60 109q6 10 250 380t246 371h205v-2q-453 -687 -465 -708.5t-12 -26.5v-8q0 -23 31 -36q5 -2 26 -2h190q45 0 53 25q4 4 4 12v243q1 3 3 3h169q2 -1 2 -3v-280h170q3 -1 3 -3v-169q0 -2 -3 -2h-170v-394q0 -52 -57 -78q-17 -5 -26 -5h-7q-52 0 -78 57 q-6 18 -6 47v373h-486q-68 0 -92 45q-10 18 -10 41z" />
<glyph unicode="5" horiz-adv-x="1090" d="M100 429q0 74 56 97q16 5 22 5h15q42 0 71 -46q11 -20 11 -69q12 -78 48 -126q88 -116 221 -116h15q69 0 147 52q69 49 100 143q11 39 11 72q0 133 -108 220q-32 25 -74.5 40.5t-127.5 15.5h-318l-3 1q171 713 173 717h543q5 0 -38 -172l-3 -1h-317q-45 0 -52 -25 q-4 0 -39 -146t-35 -155v-4q0 -30 34 -40q6 -1 12 -1h37q136 0 196 -27q134 -48 214 -165.5t80 -261.5t-99 -273q-56 -63 -86 -81q-42 -31 -113 -57t-128 -26h-22q-190 0 -331 148q-58 71 -85 139t-27 142z" />
<glyph unicode="6" horiz-adv-x="1090" d="M100 428q0 137 74 269q344 685 371 736h190q2 0 2 -2q-171 -339 -245 -490q-1 -5 -1 -11q0 -28 33 -39q11 -2 69 -5q99 -13 174 -57q35 -17 95 -73q127 -135 127 -304v-15q0 -163 -121 -298q-138 -139 -331 -139t-335 160q-102 131 -102 268zM274 444q0 -144 132 -233 q69 -38 140 -38q131 0 221 116q49 72 49 155v9q0 86 -65 167q-44 47 -73 59q-62 37 -129 37h-9q-102 0 -189 -82q-51 -56 -64 -108q-13 -37 -13 -73v-9z" />
<glyph unicode="7" horiz-adv-x="1040" d="M100 1343v8q0 46 51 76q20 6 32 6h823q2 0 2 -3q-714 -1430 -716 -1430h-191v1q0 3 300 601.5t301 604.5t1 12q-8 40 -40 40q-5 1 -18 1h-462q-47 0 -76 52q-7 20 -7 31z" />
<glyph unicode="8" horiz-adv-x="1087" d="M100 439.5q0 166.5 108 297.5q56 59 86 76q0 1 3 1v1q-111 119 -111 255v12q0 102 65 200q65 87 142 119.5t145 32.5h11q150 0 266 -122q89 -111 89 -230v-12q0 -137 -107 -251q-1 0 -4 -4v-1q121 -81 173 -226q24 -73 24 -143q0 -191 -148 -332q-132 -113 -308 -113 t-314 141q-120 132 -120 298.5zM273 439q0 -73 49 -150q38 -50 94.5 -83t122.5 -33h11q74 0 150 49q51 38 83.5 94.5t32.5 122.5v11q0 74 -49 150q-32 44 -76 74q-75 42 -141 42h-11q-73 0 -150 -49q-44 -33 -73 -76q-43 -75 -43 -141v-11zM359 1071q0 -78 71 -141 q55 -40 110 -40h9q78 0 141 70q40 56 40 111v9q0 78 -70 141q-55 40 -111 40h-9q-78 0 -140 -71q-41 -55 -41 -110v-9z" />
<glyph unicode="9" horiz-adv-x="1090" d="M100 985v16q0 134 94 263q67 76 97 90q85 60 183 73q0 4 60 6h15q191 0 334 -155q105 -133 105 -278v-32q0 -101 -82 -249q-318 -633 -362 -719h-192v1q1 4 245 490q1 10 1 12q0 29 -34 41q-164 0 -276 82q-65 44 -116 119q-72 114 -72 240zM273 980q0 -102 87 -190 q84 -72 175 -72h18q102 0 190 87q72 84 72 175v18q0 103 -87 190q-84 72 -175 72h-18q-103 0 -190 -87q-72 -84 -72 -175v-18z" />
<glyph unicode=":" horiz-adv-x="410" d="M100 111.5q0 30.5 24 64.5q37 38 79 38h10q52 0 88 -52q14 -27 14 -51v-8q0 -51 -38 -77t-64 -26h-10q-51 0 -87 50q-16 31 -16 61.5zM100 873.5q0 32.5 24 65.5q35 40 81 40h6q51 0 87 -48q17 -27 17 -54v-11q0 -49 -48 -84q-29 -18 -56 -18h-7q-49 0 -85 46 q-19 31 -19 63.5z" />
<glyph unicode=";" horiz-adv-x="415" d="M45 -217q0 11 54 334q14 40 47 62q28 15 51 15h12q48 0 84 -45q18 -28 18 -61v-9q0 -33 -45 -96q-117 -187 -146 -230q-16 -12 -30 -12q-34 0 -44 33q-1 5 -1 8v1zM96 869v9q0 61 64 96q24 8 40 8h5q56 0 92 -52q14 -25 14 -52v-9q0 -46 -35.5 -74t-72.5 -28 q-67 0 -100 68q-7 18 -7 34z" />
<glyph unicode="&#x3c;" d="M87 674v83l840 484v-167l-625 -359l625 -355v-167z" />
<glyph unicode="=" horiz-adv-x="887" d="M100 547q0 58 63 82q9 2 15 2h533q44 0 72 -51q6 -16 6 -29v-11q0 -44 -46 -72q-15 -10 -63 -10h-473q-71 0 -92 39q-15 20 -15 50zM100 891q0 62 69 84q9 2 14 2h523q54 0 79 -59q4 -12 4 -22v-12q0 -50 -56 -76q-17 -6 -47 -6h-483q-83 0 -102 69q-1 13 -1 20z" />
<glyph unicode="&#x3e;" d="M87 193v167l625 355l-625 359v167l840 -484v-83z" />
<glyph unicode="?" horiz-adv-x="776" d="M38 1260q0 45 56 85q112 89 244 89q171 0 292 -122q74 -74 101 -196q7 -33 7 -65v-34q0 -81 -55 -184q-21 -37 -83 -97q-104 -80 -201 -89v-1q-12 -303 -16 -324q-15 -25 -36 -25h-7q-27 0 -38 32q-3 0 -11.5 246t-8.5 247q31 -8 55 -8h13q71 0 139 53q79 73 79 175.5 t-91 176.5q-65 43 -123 43h-10q-95 0 -169 -73q-26 -17 -52 -17q-57 0 -81 60q-4 15 -4 28zM237 106q0 65 65 99q21 7 33 7h17q38 0 74 -38q24 -31 24 -70q0 -68 -72 -99q-17 -5 -30 -5h-10q-60 0 -93 64q-8 20 -8 42z" />
<glyph unicode="@" horiz-adv-x="2019" d="M80 510q0 276 161 522q167 243 456 349q147 54 315 54q302 0 567 -195l68 -61q97 -98 125 -149q63 -95 94 -172q66 -180 66 -312v-65q0 -191 -104 -401q-31 -62 -66 -103q-85 -82 -206 -82t-210 111q-37 56 -43 95q-138 -95 -296 -95q-228 0 -387 181q-115 141 -115 321 v25q0 132 99 278q78 94 139 127q129 74 251 74h20q192 0 350 -147q18 -23 37.5 -23t67.5 26l11 2h24q25 0 53 -32q15 -23 15 -45.5t-58.5 -316t-58.5 -303.5v-13q0 -61 74 -98q17 -6 35 -6h9q68 0 110 97q89 165 89 357q0 271 -182 495q-99 105 -160 141q-196 128 -420 128 h-21q-214 0 -425 -140q-158 -123 -224 -251q-99 -180 -99 -370v-19q0 -181 108 -377q146 -239 423 -337q120 -36 217 -36h27q132 0 278 54q15 2 23 2q43 0 70 -52q4 -16 4 -23v-15q0 -27 -35 -57q-158 -70 -360 -70q-336 0 -617 244q-101 100 -139 163q-160 244 -160 520z M664 519.5q0 -122.5 81 -230.5q80 -80 126 -91q56 -31 127 -31h18q86 0 181 60.5t138 185.5q13 52 13 86v20q0 136 -119 249q-106 83 -213 83h-18q-118 0 -230 -97q-104 -112 -104 -234.5z" />
<glyph unicode="A" horiz-adv-x="1321" d="M20 83q0 18 33 87q524 1193 539 1223q26 40 76.5 40t74.5 -70q25 -53 288.5 -650.5t269.5 -622.5v-12q0 -50 -55 -73q-16 -5 -26 -5q-59 0 -88 84q-117 266 -127 286q-26 39 -69 39h-550q-63 0 -88 -80q-9 -18 -126 -284q-27 -45 -72 -45t-73 48q-7 18 -7 35zM424 606 q0 -27 31 -37h405q31 0 38 37q0 13 -99 237t-107 238q-14 16 -32 16q-31 0 -47 -53q-187 -420 -189 -431v-7z" />
<glyph unicode="B" horiz-adv-x="1237" d="M100 83v1268q0 44 48 74q21 9 35 9h527q156 0 274 -116q106 -119 106 -271t-124 -272q-10 -13 -10 -26q0 -32 46 -52q103 -68 149 -185q25 -70 25 -153.5t-59 -182.5q-72 -112 -197 -155q-59 -21 -124 -21h-613q-44 0 -74 48q-9 21 -9 35zM273 222q0 -49 53 -49h486 q35 2 92 36q102 76 102 186t-84 187q-62 45 -110 48h-490q-49 0 -49 -48v-360zM273 852q0 -49 49 -49h404q29 0 90 35q55 42 70 74q34 55 34 113v14q0 77 -58 147q-49 49 -77 56q-40 19 -59 19h-404q-49 0 -49 -49v-360z" />
<glyph unicode="C" horiz-adv-x="1301" d="M20 708v19q0 180 101 359q31 48 69 95q61 67 113.5 107t100.5 64q164 83 330 83q235 0 436 -145q35 -28 35 -69.5t-37 -71.5q-27 -18 -55.5 -18t-55.5 26q-96 72 -239 98q-32 6 -68 6h-23q-218 0 -391 -176q-143 -162 -143 -360.5t127 -355.5q61 -68 90 -85 q150 -110 317 -110h23q140 0 284 88l48 35q17 5 33 7q49 0 79 -48q8 -15 11 -39q0 -50 -44 -77q-195 -140 -408 -140t-397 109q-197 129 -281 335q-55 134 -55 264z" />
<glyph unicode="D" horiz-adv-x="1274" d="M100 101v1232q0 101 101 101h215q167 0 264 -36q228 -75 370 -274q56 -91 68 -128q58 -132 58 -280q0 -260 -176 -470q-56 -61 -122 -109q-125 -91 -269 -120q-62 -17 -194 -17h-214q-101 0 -101 101zM274 261q0 -53 48 -78q15 -9 39 -9h91q254 0 425 196q95 117 119 264 q6 44 6 72v22q0 164 -109 316q-168 216 -441 216h-91q-54 0 -80 -50q-7 -15 -7 -37v-912z" />
<glyph unicode="E" horiz-adv-x="1089" d="M100 103v1229q0 103 105 103h686q74 0 95 -49q10 -19 10 -38q0 -52 -54 -80q-19 -7 -51 -7h-530q-61 0 -83 -60q-5 -10 -5 -46v-245q0 -56 21 -75q25 -30 67 -30h530q74 0 95 -49q10 -19 10 -38q0 -53 -54 -81q-19 -7 -51 -7h-530q-61 0 -83 -60q-5 -10 -5 -45v-245 q0 -57 21 -75q25 -31 67 -31h530q74 0 95 -48q10 -19 10 -39q0 -52 -54 -80q-19 -7 -51 -7h-686q-105 0 -105 103z" />
<glyph unicode="F" horiz-adv-x="1091" d="M100 102v1231q0 101 101 101h695q83 0 98 -70l3 -16q0 -56 -59 -83q-18 -4 -42 -4h-517q-56 0 -75 -21q-31 -26 -31 -68v-282q0 -60 62 -83q13 -3 25 -3h352q75 0 95 -49q11 -19 11 -39q0 -53 -57 -81q-19 -5 -26 -5h-356q-56 0 -75 -20q-31 -26 -31 -68v-440 q0 -72 -48 -93q-18 -9 -34 -9h-8q-43 0 -72 44q-11 18 -11 58z" />
<glyph unicode="G" horiz-adv-x="1345" d="M20 722q0 243 160 448q63 75 110 109q200 157 446 157t450 -157q20 -27 20 -58q0 -62 -68 -85q-11 -3 -18 -3h-7q-16 0 -35 10q-153 119 -333 119h-8q-230 0 -400 -176q-143 -163 -143 -382t180 -392q101 -86 196.5 -112t156.5 -26h26q133 0 276 83q43 30 43 76v125 q0 58 -58 82q-12 4 -28 4h-230q-73 0 -95 51q-6 7 -10 36q0 52 53 80q17 8 52 8h386q77 0 98 -56q6 -15 6 -28v-392q0 -45 -65 -89q-199 -154 -444 -154q-150 0 -295 63q-268 126 -376 402q-46 125 -46 257z" />
<glyph unicode="H" horiz-adv-x="1279" d="M100 101v1233q0 70 50 92q16 9 39 9q53 0 80 -58q5 -14 5 -43v-443q0 -60 61 -83q8 -4 18 -4h572q41 0 69 45q10 18 10 34v451q0 70 50 92q16 9 38 9q54 0 80 -58q6 -14 6 -43v-1233q0 -70 -51 -92q-16 -9 -38 -9q-53 0 -80 58q-5 14 -5 43v451q0 38 -31 58.5t-56 20.5 h-556q-62 0 -85 -66q-2 -13 -2 -22v-442q0 -70 -50 -92q-16 -9 -39 -9q-53 0 -80 58q-5 14 -5 43z" />
<glyph unicode="I" horiz-adv-x="370" d="M100 102v1231q0 61 34 83q25 19 53 19q51 0 80 -54q6 -17 6 -48v-1231q0 -61 -34 -83q-24 -19 -52 -19q-51 0 -80 53q-7 17 -7 49z" />
<glyph unicode="J" horiz-adv-x="1094" d="M100 441v11q0 49 53 77q17 5 25 5h17q32 0 56 -28t24 -92q9 -49 25.5 -86t67.5 -88q26 -22 72 -45q56 -21 101 -21h16q87 0 170 65q50 48 59 70q38 69 38 131v891q0 75 51 97q18 7 28 7h17q37 0 66 -42q11 -22 11 -40v-909q0 -151 -101 -281q-57 -63 -94 -85 q-120 -78 -240 -78h-27q-114 0 -234 73q-35 22 -88 79.5t-83 131t-30 157.5z" />
<glyph unicode="K" horiz-adv-x="1223" d="M100 102v1232q0 70 51 92q17 8 35 8q49 0 77 -47q10 -19 10 -53v-512q0 -60 59 -83q15 -5 26 -5q47 0 92 59q578 611 586 618q26 18 66 18t67 -53q7 -16 7 -35q0 -42 -53 -89q-13 -15 -254.5 -268.5t-241.5 -264.5q-8 -14 -8 -35v-6q0 -41 56 -85l474 -449q22 -30 22 -56 q0 -63 -67 -86q-9 -2 -21 -2q-40 0 -82 45l-475 450q-27 23 -59 23t-62 -27q-124 -127 -128 -141t-4 -34v-214q0 -52 -26.5 -77t-55.5 -25h-8q-36 0 -59.5 28t-23.5 74z" />
<glyph unicode="L" horiz-adv-x="1220" d="M100 105v1225q0 73 53 96q19 7 34 7q54 0 80 -53q7 -17 7 -30v-1072q0 -60 26 -79q23 -25 62 -25h714q68 0 92 -52q8 -25 8 -36q0 -42 -40 -72q-19 -14 -60 -14h-873q-103 0 -103 105z" />
<glyph unicode="M" horiz-adv-x="1510" d="M102 77v1280q0 47 50 71q9 3 31 6q45 0 85 -65l424 -557q28 -30 55 -30h13q40 0 79 63l432 566q24 20 52 23q53 0 77 -51q5 -14 5 -26v-1280q0 -42 -42 -68q-18 -9 -34 -9h-4q-42 0 -68 42q-9 19 -9 35v929q0 30 -35 39h-7q-22 0 -55 -53q-336 -440 -345 -450 q-24 -17 -45 -20h-15q-26 0 -55 31l-367 483q-13 9 -22 9h-8q-27 0 -35 -36v-932q0 -42 -42 -68q-18 -9 -34 -9h-4q-42 0 -68 42q-9 19 -9 35z" />
<glyph unicode="N" horiz-adv-x="1187" d="M100 94v1247q0 67 47 86q13 8 37 8q49 0 86 -72q15 -21 320.5 -489.5t314.5 -477.5q8 -2 14.5 -2t13.5 13v934q0 61 41 83q17 11 40 11q56 0 78 -62q2 -15 2 -32v-1247q0 -67 -47 -86q-13 -8 -37 -8q-49 0 -88 74q-552 844 -590.5 903t-41.5 61t-9 2h-4q-16 -4 -16 -19 v-927q0 -61 -41 -83q-17 -11 -40 -11q-55 0 -78 62q-2 15 -2 32z" />
<glyph unicode="O" horiz-adv-x="1640" d="M100 709q0 304 224 527l45 39q202 157 450 157t457 -168q74 -67 103 -106q153 -200 153 -449q0 -193 -115 -381q-28 -48 -102 -126q-95 -85 -169 -121q-162 -81 -345.5 -81t-368.5 112q-212 137 -296 381q-36 120 -36 216zM275 709q0 -184 127 -344q76 -80 99 -89 q145 -101 304 -101h22q178 0 339 126q85 80 109 127q82 136 82 281v14q0 184 -127 344q-76 80 -99 89q-145 101 -304 101h-22q-178 0 -339 -126q-85 -80 -109 -127q-82 -136 -82 -281v-14z" />
<glyph unicode="P" horiz-adv-x="1210" d="M100 78v1276q0 44 48 71q16 8 48 8h428q128 0 202 -32q171 -69 250 -239q38 -93 38 -181q0 -173 -126 -312q-77 -71 -121 -88q-45 -26 -100.5 -38t-95.5 -12h-324q-60 0 -82 -61q-2 -13 -2 -22v-370q0 -47 -53 -74q-17 -4 -25 -4h-7q-47 0 -74 53q-4 17 -4 25zM263 778 q0 -60 61 -82q13 -2 23 -2h311q158 0 250 138q42 73 42 140v19q0 103 -85 195q-88 83 -207 83h-311q-60 0 -82 -61q-2 -13 -2 -23v-407z" />
<glyph unicode="Q" horiz-adv-x="1493" d="M20 718q0 285 208 505q86 81 133 105q174 107 384 107t400 -128q35 -19 115 -99q100 -110 147 -233.5t47 -259.5q0 -239 -152 -439q139 -136 139 -146q13 -19 13 -44q0 -53 -55 -79q-20 -7 -32 -7q-45 0 -95 61l-93 91h-1q-199 -152 -440.5 -152t-445.5 155 q-91 77 -129 133q-143 197 -143 430zM194 701q0 -160 114 -318q55 -65 99 -98q152 -111 327 -111t321 103q-393 390 -393 396q-12 26 -12 45q0 46 46 76q23 10 42 10q45 0 95 -61q176 -173 345 -343h1q101 150 101 307v11q0 208 -147 372q-169 171 -391 171t-392 -161 q-103 -104 -143 -260q-13 -58 -13 -112v-27z" />
<glyph unicode="R" horiz-adv-x="1200" d="M100 96v1243q0 96 96 96h452q117 0 227 -81q57 -49 77 -81q69 -104 69 -226t-87 -233q-49 -55 -78 -71q-31 -23 -82 -44q-20 -14 -20 -32.5t40 -76.5l299 -473q8 -21 8 -33q0 -60 -61 -82q-12 -2 -18 -2q-54 0 -80 53q-1 1 -386 606q-12 17 -46 17h-146 q-57 0 -78.5 -23.5t-21.5 -58.5v-498q0 -67 -47 -88q-19 -8 -32 -8h-6q-43 0 -70 45q-9 18 -9 51zM264 923q0 -65 68 -82q7 -1 15 -1h290q126 0 195 113q24 50 24 97v10q0 80 -61 146q-65 65 -158 65h-290q-66 0 -82 -68q-1 -7 -1 -16v-264z" />
<glyph unicode="S" horiz-adv-x="1055" d="M100 348q0 52 54 81q14 5 33 7q50 0 80 -49q30 -104 99 -157.5t150 -53.5h16q102 0 185 85q68 78 68 180t-82 183q-52 46 -103 61q-190 72 -229 90t-85 58q-63 67 -86 125.5t-23 126.5q0 133 96 242q110 108 251 108t253 -107q57 -63 75 -120q7 -15 7 -36q0 -57 -60 -83 q-17 -4 -27 -4q-38 0 -68 33q-7 10 -32 63q-57 78 -142.5 78t-144.5 -71q-32 -51 -32 -100q0 -109 106 -162q214 -80 265.5 -105t114.5 -85q60 -69 74 -107q47 -94 47 -188q0 -157 -99 -282q-140 -159 -334.5 -159t-331.5 151q-72 85 -94 186q0 11 -1 11z" />
<glyph unicode="T" horiz-adv-x="1278" d="M14 1348q0 60 64 83q11 4 37 4h1046q74 0 96 -57q5 -17 5 -30q0 -60 -64 -83q-11 -4 -37 -4h-350q-58 0 -82 -60q-4 -10 -4 -18v-1078q0 -77 -56 -99q-20 -6 -32 -6q-50 0 -78 52q-8 18 -8 53v1070q0 56 -56 80q-13 6 -31 6h-349q-74 0 -96 57q-5 17 -5 30z" />
<glyph unicode="U" horiz-adv-x="1267" d="M100 529v822q0 45 48 74q20 9 38 9q54 0 80 -54q7 -16 7 -29v-774q0 -111 23 -165q54 -139 184 -202q73 -36 153 -36h10q134 0 245 99q77 71 106 188q8 38 8 67v803q0 73 54 96q18 7 34 7q53 0 79 -54q7 -16 7 -29v-822q0 -139 -82 -277q-91 -146 -259 -215 q-99 -37 -188 -37h-18q-139 0 -277 82q-146 91 -215 260q-37 98 -37 187z" />
<glyph unicode="V" horiz-adv-x="1200" d="M40 1366q0 15 25 44q28 23 56 23q54 0 79 -58q224 -599 364 -969q15 -18 30 -18h8q28 0 42 51q1 0 355 944q14 28 38 40q10 7 34 10q61 0 83 -65q1 -13 1 -25.5t-93 -258.5t-241.5 -643t-160.5 -413q-28 -28 -60 -28h-5q-41 0 -68 41q-65 169 -275.5 728t-210.5 571z" />
<glyph unicode="W" horiz-adv-x="1569" d="M50 1352q0 45 50 73q13 4 34 7q44 0 72 -47q7 -15 83.5 -323.5t160.5 -643.5q13 -27 34 -27h8q27 0 50 59q178 353 181 356q28 32 64 32q60 0 90 -81l177 -352q15 -14 28 -14h8q34 0 44 71l233 920q14 28 30.5 37t41.5 13q61 0 82 -63q3 -16 3 -25q0 -14 -92 -376 q-92 -364 -231 -916q-25 -52 -81 -52t-88 84q-212 423 -215 426q-15 13 -26 13h-8q-27 0 -48 -56l-216 -428q-26 -39 -75.5 -39t-72.5 59q-166 660 -242 963.5t-79 329.5z" />
<glyph unicode="X" horiz-adv-x="1284" d="M80 86q0 36 48 93q381 507 386.5 516.5t5.5 18.5v5q0 17 -33 56q-386 516 -396.5 533t-10.5 38q0 61 66 85q9 2 21 2q52 0 93 -66l346 -461q16 -16 38.5 -16t46.5 40q1 0 357 475q28 28 74.5 28t72.5 -61q3 -14 3 -25q0 -38 -44 -88l-390 -522q-5 -11 -5 -18v-5 q0 -18 38 -63q381 -507 391 -523.5t10 -43.5q0 -55 -61 -81q-13 -3 -24 -3h-2q-51 0 -88 62l-352 467q-14 14 -36.5 14t-52.5 -48l-347 -462q-30 -33 -68 -33q-61 0 -85 66q-1 19 -2 20z" />
<glyph unicode="Y" horiz-adv-x="1198" d="M30 1354.5q0 28.5 32 59.5q29 20 53 20q57 0 94 -70q20 -29 353 -527q16 -16 35 -16q29 0 57 52l352 524q29 37 71 37t73 -42q12 -28 12 -47t-7.5 -34t-447.5 -670q-24 -30 -24 -55v-481q0 -73 -49 -95q0 -4 -39 -10q-47 0 -77 50q-9 20 -9 55v481q0 26 -26 59l-438 654 q-15 27 -15 55.5z" />
<glyph unicode="Z" horiz-adv-x="1278" d="M80 87q0 35 42 85q730 972 769 1025q5 12 5 23q0 41 -56 41h-659q-69 0 -91 47q-10 18 -10 41q0 54 59 81q16 4 42 4h916q58 0 80 -29t22 -60.5t-37 -74.5q-733 -977 -735 -981q-44 -52 -44 -70v-6q0 -27 32 -39q5 -1 11 -1h672q75 0 95 -59q6 -17 6 -28q0 -39 -37 -70 q-22 -16 -64 -16h-917q-56 0 -78 29q-23 23 -23 58z" />
<glyph unicode="^" horiz-adv-x="1087" d="M196 1168q15 18 257 355q17 19 40 19h97q33 0 57 -45q8 -9 239 -330l-2 -2h-158q-23 0 -51 48l-134 183q-150 -207 -163 -222q-12 -8 -21 -9h-158q-3 0 -3 3z" />
<glyph unicode="_" horiz-adv-x="887" d="M100 -180q0 48 52 76q16 7 54 7h476q58 0 76 -19q32 -28 32 -60v-17q0 -39 -47 -69q-21 -8 -31 -8h-532q-45 0 -72 49q-8 18 -8 33v8z" />
<glyph unicode="`" horiz-adv-x="1048" d="M231 1402q0 14 3 27q23 63 84 63q34 0 62 -25q17 -23 103.5 -157t86.5 -150v-12q-11 -35 -43 -35q-14 2 -18 3.5t-221 198.5q-57 44 -57 87z" />
<glyph unicode="a" horiz-adv-x="1035" d="M90 333v11q0 131 101 239q108 96 232 96h283q37 0 47 19q8 10 8 22v4q-3 29 -37 70q-37 36 -63 44q-25 13 -90 13h-227q-35 0 -64 33q-18 25 -18 48v7q0 42 38 70q23 14 44 14h258q120 0 222 -84q51 -49 66 -78q52 -86 52 -178v-599q0 -41 -40 -71q-24 -13 -45 -13 q-56 0 -81 53q-13 36 -45 36q-14 0 -56.5 -25t-108 -44.5t-127.5 -19.5h-13q-134 0 -240 103q-96 109 -96 230zM262 335q0 -65 58 -121q52 -41 102 -41h17q85 0 178 57.5t135 174.5q9 35 13 56v5q0 25 -29 39q-7 1 -11 1h-303q-60 0 -115 -53q-45 -53 -45 -118z" />
<glyph unicode="b" horiz-adv-x="1220" d="M100 83v1268q0 44 49 74q21 8 33 8h8q42 0 71 -44q12 -19 12 -60v-354q0 -23 32 -36q10 -1 17 -1t65 34q112 51 218 51h17q136 0 270 -83q146 -96 204 -264q27 -82 27 -162v-6q0 -181 -126 -333q-70 -72 -93 -83q-134 -92 -287.5 -92t-285.5 83q-10 6 -20 6h-3 q-32 0 -49 -49q-30 -40 -74 -40t-75 45q-10 25 -10 38zM273 505q0 -137 113 -246q103 -86 219 -86h13q123 0 227 93q105 106 105 239v8q0 136 -100 239q-68 63 -127 79q-54 19 -103 19h-17q-119 0 -223 -91q-107 -105 -107 -246v-8z" />
<glyph unicode="c" horiz-adv-x="989" d="M60 528q0 198 171 366q152 130 359 130q140 0 273 -91q30 -27 30 -70t-45 -71q-24 -11 -47.5 -11t-66.5 29q-75 41 -164 41h-6q-78 0 -162 -46q-109 -66 -151 -184q-18 -55 -18 -110q0 -141 110 -249q104 -89 221 -89h8q102 0 191 58q23 12 54 12t62 -39q14 -24 14 -47 q0 -54 -55 -83q-122 -74 -278.5 -74t-302.5 108q-32 25 -74 73.5t-56 78.5q-67 119 -67 268z" />
<glyph unicode="d" horiz-adv-x="1181" d="M60 512q0 159 95 299q71 91 129 124q57 43 152 72q72 18 140 18q141 0 275 -82q12 -4 17 -4q29 0 42 32q1 8 1 12v349q0 72 53 96q20 7 31 7h7q47 0 76 -52q7 -20 7 -31v-1269q0 -50 -55 -77q-18 -6 -33 -6q-52 0 -79 55q-13 34 -42 34h-2q-14 0 -34 -13 q-127 -76 -259 -76h-15q-153 0 -293 96q-75 55 -121 124q-92 133 -92 292zM234 507q0 -136 109 -245q104 -88 220 -88h18q113 0 214 83q116 108 116 250v11q0 135 -109 244q-104 89 -221 89h-18q-112 0 -214 -83q-44 -42 -61 -72q-54 -86 -54 -178v-11z" />
<glyph unicode="e" horiz-adv-x="1100" d="M40 510q0 184 122 335q57 60 83 77q142 103 308 103q213 0 374 -161q58 -64 58 -96q0 -7 0.5 -25t-28.5 -48q-16 -13 -256 -184t-321 -229q-12 -14 -12 -28v-6q0 -19 21 -33q81 -41 153 -41h20q115 0 218 86q56 57 66 82q17 27 33 75q10 49 28 68q30 27 61 27 q60 0 83 -57q5 -12 5 -27v-3q-1 -39 -29.5 -107t-76.5 -130q-97 -111 -203 -149q-96 -39 -184 -39h-16q-155 0 -298 99q-69 53 -107.5 108.5t-57.5 96.5q-44 109 -44 206zM214 514q0 -70 15 -82.5t32 -12.5t58 34q5 2 403 286q15 14 15 32v6q0 18 -20 32q-81 42 -153 42h-20 q-117 0 -224 -91q-106 -108 -106 -246z" />
<glyph unicode="f" horiz-adv-x="690" d="M100 102v891q0 121 34 193q61 137 200 207q88 40 185 40q21 0 53 -25q25 -29 25 -61q0 -58 -63 -83q-14 -3 -53 -7t-88 -29q-119 -74 -119 -211v-177q0 -22 32 -36h189q62 0 84 -36q18 -25 18 -51q0 -49 -49 -78q-18 -9 -53 -9h-134q-64 0 -85 -65q-2 -5 -2 -14v-449 q0 -62 -37 -84q-24 -18 -50 -18q-49 0 -78 49q-9 18 -9 53z" />
<glyph unicode="g" horiz-adv-x="1191" d="M70 500v18q0 161 113 313q169 191 394 191h16q126 0 255 -73q23 -17 40 -17q32 0 46 45q30 46 70.5 46t67 -25.5t26.5 -77.5v-830q0 -135 -79 -267q-21 -36 -82 -98q-63 -59 -153.5 -100t-191.5 -41h-5q-2 0 -4 -1q-41 0 -71 40q-15 26 -15 47q0 45 43 75q21 13 77 13 q41 6 81 19q131 51 190 168q36 73 36 150v25q0 2 -3 2q-144 -127 -334 -127q-230 0 -394 179q-91 109 -116 249q-7 53 -7 77zM244 502q0 -132 104 -240q113 -94 249 -94t245 119q82 100 82 215v13q0 131 -105 240q-111 94 -247.5 94t-245.5 -119q-82 -100 -82 -215v-13z" />
<glyph unicode="h" horiz-adv-x="1086" d="M100 104v1228q0 71 52 94q18 8 32 8h7q45 0 75 -49q8 -21 8 -33v-341q0 -31 31 -42q5 -1 9 -1h2q15 0 63 24q84 32 165 32q167 0 299 -115q62 -61 76 -90q46 -70 61 -149q11 -40 11 -128v-442q0 -70 -53 -93q-19 -7 -31 -7h-6q-48 0 -76 52q-8 16 -8 48v474 q0 115 -78 196q-84 81 -198 81t-201 -94q-66 -77 -66 -183v-492q0 -37 -38 -67q-23 -15 -45 -15h-7q-42 0 -72 44q-12 19 -12 60z" />
<glyph unicode="i" horiz-adv-x="373" d="M80 1254v9q0 68 72 99q18 6 32 6h6q59 0 93 -59q11 -21 11 -45v-10q0 -57 -61 -92q-22 -10 -46 -10q-68 0 -100 68q-7 18 -7 34zM100 103v817q0 68 41 90q19 13 39 13h14q34 0 63 -34q16 -25 16 -47v-859q0 -47 -51 -76q-20 -7 -31 -7h-8q-42 0 -71 44q-12 19 -12 59z " />
<glyph unicode="j" horiz-adv-x="380" d="M-136 -296q0 44 32 53q60 14 87 31q76 44 107 128q14 33 14 119v905q0 52 57 78q12 5 21 5h17q41 0 69 -47q10 -20 10 -35v-896q0 -148 -32 -208q-19 -57 -79 -124q-130 -130 -289 -130h-11q-3 0 -3 3v118zM83 1261q0 59 53 93q25 14 46 14h17q56 0 93 -66q7 -22 7 -45 q0 -62 -65 -96q-25 -9 -44 -9q-60 0 -97 61q-10 25 -10 48z" />
<glyph unicode="k" horiz-adv-x="1010" d="M100 100v1232q0 74 59 95q17 5 28 5q40 0 63 -29.5t23 -70.5v-647q0 -61 61 -84q11 -3 22 -3h7q41 0 87 58q325 343 333 350q29 17 52 17q50 0 79 -52q8 -23 8 -35q0 -37 -37 -72q-274 -290 -304 -322q-17 -22 -17 -51v-5q0 -32 30 -62q291 -274 301 -286q17 -27 17 -52 q0 -49 -52 -78q-23 -8 -35 -8q-43 0 -90 54l-301 283q-12 5 -21 5h-4q-23 0 -56 -42q-79 -79 -79.5 -88t-0.5 -14v-98q0 -74 -59 -95q-17 -5 -28 -5q-39 0 -70 37q-16 22 -16 63z" />
<glyph unicode="l" horiz-adv-x="357" d="M100 94v1246q0 87 80 94q50 0 75 -54q4 -17 4 -40v-1246q0 -87 -79 -94q-50 0 -76 54q-4 16 -4 40z" />
<glyph unicode="m" horiz-adv-x="1615" d="M100 102v820q0 63 35 84q21 17 58.5 17t65.5 -42q15 -19 30.5 -19t71.5 25q69 23 137 23q139 0 255 -93q32 -33 50 -33h4q19 0 66 46q110 80 250.5 80t262.5 -106q65 -68 80 -105q44 -90 44 -151v-565q0 -50 -53 -76q-9 -5 -31 -7q-51 0 -78 52q-8 19 -8 50v547 q-4 49 -46 105q-72 87 -175.5 87t-177.5 -81q-24 -31 -37 -66t-13 -45v-547q0 -72 -52 -94q-10 -5 -33 -8q-52 0 -79 52q-8 19 -8 50v550q0 35 -40 97q-75 92 -186.5 92t-186.5 -101q-33 -54 -35 -93v-545q0 -74 -52 -94q-16 -7 -34 -8q-45 0 -75 45q-10 20 -10 57z" />
<glyph unicode="n" horiz-adv-x="1088" d="M100 101v822q0 52 26.5 76.5t64.5 24.5t61 -33t41.5 -33t84 33t165.5 33q198 0 339 -154q51 -65 68 -109q40 -79 40 -208v-452q0 -61 -34 -82q-23 -19 -55 -19t-58 25t-26 76v448q0 96 -25 143q-48 102 -157 144q-48 15 -90 15q-118 0 -204 -92q-68 -78 -68 -210v-448 q0 -61 -34 -82q-22 -19 -54.5 -19t-58.5 25t-26 76z" />
<glyph unicode="o" horiz-adv-x="1228" d="M100 520.5q0 182.5 132 335.5q68 69 98 84q134 85 274 85h17q158 0 307 -108q68 -57 95 -98q102 -140 102 -307q0 -202 -147 -360q-79 -75 -168 -113.5t-189 -38.5h-17q-160 0 -308 109q-55 45 -86 87q-110 142 -110 324.5zM274 505q0 -129 102 -237q106 -94 230 -94h13 q138 0 247 112q85 103 85 219v7q0 143 -105 247q-103 92 -224 92h-19q-134 0 -247 -116q-53 -67 -66 -119q-16 -43 -16 -104v-7z" />
<glyph unicode="p" horiz-adv-x="1222" d="M100 -316v1237q0 71 52 95q20 7 49 7t60 -41q19 -44 31 -44q0 -3 16 -4h4q17 0 73 34q116 55 248.5 55t270.5 -89q90 -64 141 -145q84 -132 84 -277v-5q0 -175 -115 -322q-63 -72 -90 -87q-55 -42 -138 -73t-163 -31q-153 0 -282 80q-14 6 -19 6h-7q-40 -7 -40 -43v-353 q0 -68 -47 -90q-19 -12 -40 -12q-57 0 -83 60q-5 15 -5 42zM275 510q0 -133 93 -236q107 -105 241 -105h12q130 0 235 99q99 104 99 248t-124 256q-100 76 -204 76h-24q-85 0 -178 -57q-93 -62 -135 -181q-15 -55 -15 -100z" />
<glyph unicode="q" horiz-adv-x="1221" d="M90 506v7q0 191 138 347q162 164 386 164q138 0 278 -87q11 -2 15 -2h4q31 0 48 48q32 41 69 41q63 0 86 -60q6 -12 6 -45v-1231q0 -75 -53 -98q-18 -7 -32 -7h-6q-50 0 -77 55q-7 19 -7 50v350q-7 42 -41 42h-7q-9 0 -71 -36q-112 -50 -223 -50t-232 56q-51 26 -108 74 q-79 78 -95 114q-78 126 -78 268zM264 500q0 -131 108 -241q104 -91 240.5 -91t245.5 113q87 103 87 219v18q0 131 -108 241q-105 91 -241 91t-245 -113q-87 -103 -87 -219v-18z" />
<glyph unicode="r" horiz-adv-x="753" d="M100 99v826q0 53 29 75q25 24 59.5 24t67.5 -34q12 -7 24 -7h3q11 0 47 17q66 24 130 24q126 0 234 -87q18 -18 18 -19q-98 -100 -105.5 -103.5t-21 -3.5t-42.5 20q-40 20 -86 20q-76 0 -135 -61q-49 -55 -49 -128v-563q0 -56 -31 -78q-24 -21 -51 -21h-9q-14 0 -35 9 q-47 25 -47 90z" />
<glyph unicode="s" horiz-adv-x="801" d="M100 226v2q0 38 37 68q25 15 48 15q48 0 76 -44q14 -28 26 -44q46 -50 109.5 -50t108.5 55q27 39 27 84q0 81 -89 132q-187 125 -203 137q-94 79 -94 185t71 184q78 75 180 75q65 0 130 -38q92 -63 92 -127q0 -45 -45 -74q-21 -11 -49.5 -11t-59.5 32q-27 44 -68 44h-4 q-45 0 -68 -47q-6 -16 -6 -29q0 -46 53 -75q194 -129 223.5 -153.5t44.5 -44.5q65 -89 65 -186q0 -157 -127 -256q-85 -60 -183.5 -60t-184.5 60q-56 43 -83 89.5t-27 76.5z" />
<glyph unicode="t" horiz-adv-x="718" d="M100 220v1124q0 62 61 86q15 4 27 4q50 0 79 -53q6 -21 6 -37v-269q0 -50 45 -50h298q2 -1 2 -3v-121q0 -35 -27 -46q-9 -4 -17 -4h-198q-103 0 -103 -103v-470q0 -105 100 -105h49q2 0 2 -2v-169q0 -2 -2 -2h-102q-121 0 -191 107q-29 51 -29 113z" />
<glyph unicode="u" horiz-adv-x="1084" d="M100 473v449q0 60 35 83q23 18 54.5 18t57.5 -26t26 -72v-449q0 -99 26 -145q10 -29 55 -80q30 -26 31 -26q74 -51 152 -51h15q87 0 166 62q47 43 63 77q35 56 35 163v462q0 49 51 78q22 7 35 7q40 0 63.5 -29t23.5 -72v-821q0 -70 -53 -94q-22 -7 -34 -7q-50 0 -83 54 q-14 12 -28 12t-65 -26q-72 -36 -175 -40q-189 0 -327 136q-63 69 -91 141q-33 74 -33 196z" />
<glyph unicode="v" horiz-adv-x="1052" d="M70 944v3q0 44 45 70q17 8 33 8h3q44 0 70 -45q262 -601 272 -623q13 -17 33 -17q31 0 47 50l261 599q28 36 65 36h4q40 0 59 -29t19 -49v-3q0 -23 -19 -63t-353 -809q-26 -72 -85 -72q-32 0 -58 27q-11 8 -34.5 64.5t-355.5 822.5q-6 16 -6 30z" />
<glyph unicode="w" horiz-adv-x="1519" d="M70 953q0 46 48 68q13 5 27 5q56 0 77 -72q189 -542 198 -562q13 -19 27 -19h9q27 0 41 60l194 549q25 44 64 44h8q37 0 63 -42q7 -15 192 -548q19 -60 35 -60q0 -3 9 -3h9q27 0 41 60l194 549q23 44 69 44t68 -48q5 -13 5 -29t-38 -118l-274 -783q-16 -38 -63 -48h-14 q-32 6 -47.5 23t-38.5 95l-183 517q-13 18 -27 18h-8q-29 0 -46 -71q-4 -8 -190 -539q-13 -28 -47 -40q-1 0 -13 -3h-14q-27 0 -54 31q-10 16 -163.5 455t-155.5 450t-2 17z" />
<glyph unicode="x" horiz-adv-x="1010" d="M100 92q0 32 37 72q2 4 241 323q8 12 8 28.5t-37 59.5q-233 312 -241 324t-8 38v1q0 51 51 79q19 7 32 7h5q43 0 73 -42q209 -280 218.5 -288.5t31.5 -8.5t47 43q1 0 199 264q29 32 66 32h4q45 0 74 -46q10 -21 10 -40v-1q0 -34 -34 -73l-245 -327q-8 -12 -8 -28.5 t37 -59.5q230 -307 241 -323q9 -20 9 -39q0 -51 -50 -79q-21 -8 -36 -8q-52 0 -91 63l-198 263q-13 13 -29 13h-3q-27 0 -51 -41l-202 -268q-29 -30 -67.5 -30t-61 30t-22.5 62z" />
<glyph unicode="y" horiz-adv-x="1157" d="M80 932v7q0 49 54 78q24 6 33 6q65 0 95 -88q268 -620 278 -640q16 -18 35 -18q35 0 50 52l282 647q29 47 81 47t79 -61q4 -15 4 -23v-7q0 -21 -42 -109q-477 -1102 -495 -1138q-39 -67 -121 -95q-27 -8 -82 -8h-80q-3 0 -3 2v170q1 2 3 2h69q65 0 91 79q61 133 61 155v5 q0 24 -37 105q-341 783 -348 800t-7 32z" />
<glyph unicode="z" horiz-adv-x="1006" d="M100 94q0 28 38 72q464 618 468 624t4 26.5t-32 33.5q-9 2 -21 2h-372q-48 0 -76 49q-9 21 -9 37q0 46 44 75q21 12 41 12h643q46 0 73 -46q11 -20 11 -48t-38 -72q-464 -619 -467.5 -624.5t-3.5 -19.5q0 -42 53 -42h372q47 0 76 -50q8 -21 8 -37q0 -46 -44 -75 q-21 -11 -40 -11h-643q-46 0 -74 45q-11 21 -11 49z" />
<glyph unicode="{" d="M240 638v60q172 5 223 71t51 133v468q0 74 77 141.5t185 67.5h108v-50h-90q-61 0 -107 -33.5t-47 -91.5v-500q0 -83 -60.5 -158.5t-142.5 -76.5v-2q82 -1 143 -76t61 -158l-1 -500q1 -58 47 -91.5t107 -33.5h90v-50h-108q-108 0 -184.5 67.5t-77.5 141.5v468 q0 66 -51 132t-223 71z" />
<glyph unicode="|" d="M427 -418v1995h160v-1995h-160z" />
<glyph unicode="}" d="M130 -192h90q61 0 107 33.5t47 91.5l-1 500q0 83 61 158t144 76v2q-83 1 -143.5 76.5t-60.5 158.5v500q-1 58 -47 91.5t-107 33.5h-90v50h108q108 0 185 -67.5t77 -141.5v-468q0 -67 51 -133t223 -71v-60q-172 -5 -223 -71t-51 -132v-468q-1 -74 -77.5 -141.5 t-184.5 -67.5h-108v50z" />
<glyph unicode="~" d="M94 556v156q110 125 237 125q64 0 181.5 -49.5t171 -49.5t110 28t129.5 112v-156q-108 -123 -238 -123q-60 0 -177.5 48.5t-172.5 48.5t-111.5 -28t-129.5 -112z" />
<glyph unicode="&#xa1;" horiz-adv-x="586" d="M184 914v7q0 58 62 93q23 9 40 9h10q56 0 92 -60q10 -26 10 -42v-10q0 -57 -62 -92q-22 -10 -40 -10h-7q-67 0 -99 71q-6 18 -6 34zM205 -336q3 73 43 1030q14 31 42 31h2q29 0 42 -32q42 -994 42 -1030.5t-33 -64.5q-24 -17 -43 -17h-17q-37 0 -69 44q-7 20 -9 39z" />
<glyph unicode="&#xa2;" horiz-adv-x="1139" />
<glyph unicode="&#xa5;" horiz-adv-x="1262" />
<glyph unicode="&#xa8;" horiz-adv-x="1128" d="M276 1189v12q0 64 68 97q19 7 34 7h11q59 0 93 -63q9 -18 9 -41v-12q0 -43 -44 -80q-33 -20 -64 -20q-63 0 -98 63q-9 23 -9 37zM635 1189v12q0 64 68 97q18 7 34 7h11q59 0 93 -63q9 -18 9 -41v-12q0 -43 -44 -80q-33 -20 -64 -20q-63 0 -98 63q-9 23 -9 37z" />
<glyph unicode="&#xa9;" horiz-adv-x="1631" d="M100 711v26q0 266 208 489q226 208 492 208h23q337 0 574 -293q134 -200 134 -404v-26q0 -354 -307 -586q-191 -125 -410 -125q-355 0 -586 304q-128 186 -128 407zM231 711q0 -255 216 -449q172 -131 373 -131q279 0 478 253q102 162 102 333q0 298 -267 492 q-159 94 -307 94h-20q-242 0 -433 -205q-142 -169 -142 -387zM356 703v28q0 155 120 296q148 148 315 148h37q148 0 271 -97q14 -15 14 -34v-17q0 -35 -51 -45q-32 0 -69 34q-91 48 -182 48q-182 0 -298 -182q-43 -82 -43 -156v-18q0 -182 191 -301q83 -37 153 -37 q115 0 225 80q11 2 23 2q37 0 51 -45v-12q0 -44 -51 -65q-114 -74 -248 -74q-234 0 -387 213q-71 122 -71 234z" />
<glyph unicode="&#xaa;" horiz-adv-x="775" d="M80 458v5q0 44 43 74q18 12 63 12h395q56 0 75 -21q19 -11 25.5 -34.5t6.5 -30.5v-5q0 -43 -31 -64t-53 -21h-440q-35 0 -64 31q-20 26 -20 54zM81 936v20q0 74 57 148q46 55 124 77q31 8 55 8h204q27 0 32.5 13t5.5 15v3q-4 23 -28 51q-34 31 -54 35.5t-57 4.5h-159 q-25 0 -46 24q-13 19 -13 44.5t31 46.5q17 8 29 8h184q89 0 165 -67q47 -49 60 -90q17 -38 17 -118v-396q0 -35 -37 -54q-9 -5 -35 -5t-47 37q-7 26 -28 26h-5q-6 0 -66 -31.5t-139 -31.5h-12q-97 0 -176 78q-49 62 -55.5 100t-6.5 54zM204 942q0 -46 43 -88q37 -26 71 -26 h14q79 0 154 63q44 46 59.5 83.5t15.5 62.5t-33 28h-184q-58 0 -82 -17q-36 -21 -47 -52.5t-11 -47.5v-6z" />
<glyph unicode="&#xab;" horiz-adv-x="1100" d="M97 461l303 459h181l-303 -459l303 -461h-181zM515 461l301 459h180l-303 -459l303 -461h-180z" />
<glyph unicode="&#xad;" horiz-adv-x="714" d="M140 506v13q0 45 49 72q18 8 33 8h265q52 0 79 -57q5 -17 5 -26v-9q0 -39 -44 -71q-24 -10 -37 -10h-268q-52 0 -79 58q-3 15 -3 22z" />
<glyph unicode="&#xae;" horiz-adv-x="1640" d="M103 716q0 370 325 604q193 114 379 114h28q273 0 499 -214q205 -216 205 -507q0 -334 -276 -564q-199 -151 -442 -151q-383 0 -618 348q-100 180 -100 370zM237 713q0 -283 239 -470q159 -114 351 -114q256 0 450 219q128 166 128 362v26q0 224 -191 413 q-178 154 -384 154h-18q-237 0 -427 -197q-148 -178 -148 -370v-23zM579 405v653q0 71 48 71h200q151 0 199 -65q57 -63 57 -137v-17q0 -94 -94 -163q-48 -19 -48 -40q0 -10 179 -287q6 -21 6 -23v-12q-9 -39 -40 -39h-6q-33 0 -74 79q-173 271 -185 285l-14 3h-97 q-40 0 -40 -63v-265q-12 -39 -40 -39h-8q-38 0 -43 59zM670 870q0 -66 66 -66h102q119 0 143 72q11 20 11 45q0 84 -97 114q-31 3 -54 3h-114q-57 0 -57 -66v-102z" />
<glyph unicode="&#xb0;" horiz-adv-x="674" d="M60 1164q0 116 81.5 197t197 81t196.5 -81.5t81 -196t-82 -196.5t-198 -82t-196 81t-80 197zM130 1163q0 -87 61 -147t148 -60t147 60t60 147t-60.5 148t-146.5 61t-147.5 -61t-61.5 -148z" />
<glyph unicode="&#xb4;" horiz-adv-x="1061" d="M483 1144v12q0 16 86.5 150t103.5 157q28 25 62 25q61 0 84 -63q3 -13 3 -27q0 -43 -57 -87q-217 -197 -221 -198.5t-18 -3.5q-32 0 -43 35z" />
<glyph unicode="&#xba;" horiz-adv-x="869" d="M70 1061v11q0 129 92 239q49 50 73.5 65t78 36.5t116.5 21.5h11q126 0 234 -87q49 -46 62 -68q66 -99 66 -207v-11q0 -107 -68 -208q-66 -88 -149.5 -120t-141.5 -32h-14q-107 0 -207 68q-90 67 -121.5 150t-31.5 142zM132 454v5q0 43 31 64.5t52 21.5h444q37 0 67 -37 q16 -25 16 -49v-5q0 -42 -31.5 -64t-51.5 -22h-444q-37 0 -68 37q-15 25 -15 49zM194 1077.5q0 -110.5 76 -185.5q42 -38 81 -52.5t81 -14.5h9q66 0 133 42q105 79 105 202q0 94 -71 170q-77 71 -167 71h-9q-66 0 -132 -42q-106 -80 -106 -190.5z" />
<glyph unicode="&#xbb;" horiz-adv-x="1100" d="M97 0l303 459l-303 461h178l303 -461l-303 -459h-178zM513 0l303 459l-303 461h178l303 -461l-303 -459h-178z" />
<glyph unicode="&#xbf;" horiz-adv-x="777" d="M36 -15q0 146 110 270q82 77 143 94q30 14 90 26q11 329 17 329q15 22 36 22h6q28 0 39 -33q2 -15 21 -495h-1q-36 7 -48 7h-22q-82 0 -156 -69q-52 -63 -59 -118q-4 -22 -4 -41q0 -107 97 -183q63 -41 124 -41h13q81 0 154 66q28 25 61 25q61 0 84 -68l1 -19 q0 -50 -66 -94q-104 -82 -251 -82t-273 116q-66 73 -91 140.5t-25 135.5v12zM328 913v11q0 58 66 94q23 7 35 7h8q65 0 99 -70q6 -19 6 -35v-7q0 -56 -61 -92q-24 -10 -41 -10h-11q-55 0 -91 61q-10 24 -10 41z" />
<glyph unicode="&#xc0;" horiz-adv-x="1332" d="M20 68v9q0 29 31 91l539 1224q27 40 66 40h8q59 0 89 -94q462 -1045 466 -1060q81 -172 81 -193v-9q0 -50 -59 -74q-2 0 -25 -2q-59 0 -88 91q-116 262 -128 284q-22 27 -57 33h-566q-35 -7 -50.5 -24t-91.5 -199q-57 -128 -75 -159q-28 -26 -58 -26q-65 0 -82 68z M423 608q0 -35 45 -40h373q56 0 56 42q-1 9 -95 221t-112 251q-16 14 -28 14h-4q-32 0 -53 -69q-182 -407 -182 -417v-2zM539 1760q0 20 10 43q30 37 57 37h13q25 0 45 -12q24 -22 71 -101q115 -178 115 -186v-14q0 -24 -34 -34h-10q-4 0 -11.5 2t-198.5 178q-57 44 -57 87z " />
<glyph unicode="&#xc1;" horiz-adv-x="1323" d="M20 68v9q0 29 31 91l539 1224q27 40 66 40h8q59 0 89 -94q462 -1045 466 -1060q81 -172 81 -193v-9q0 -50 -59 -74q-2 0 -25 -2q-59 0 -88 91q-116 262 -128 284q-22 27 -57 33h-566q-35 -7 -50.5 -24t-91.5 -199q-57 -128 -75 -159q-28 -26 -58 -26q-65 0 -82 68z M423 608q0 -35 45 -40h373q56 0 56 42q-1 9 -95 221t-112 251q-16 14 -28 14h-4q-32 0 -53 -69q-182 -407 -182 -417v-2zM539 1527v14q0 8 115 186q47 79 71 101q20 12 45 12h13q27 0 57 -37q10 -23 10 -43q0 -43 -57 -87q-191 -176 -198.5 -178t-11.5 -2h-10q-34 10 -34 34 z" />
<glyph unicode="&#xc2;" horiz-adv-x="1345" d="M30 68v9q0 29 31 91l539 1224q27 40 66 40h8q59 0 89 -94q462 -1045 466 -1060q81 -172 81 -193v-9q0 -50 -59 -74q-2 0 -25 -2q-59 0 -88 91q-116 262 -128 284q-22 27 -57 33h-566q-35 -7 -50.5 -24t-91.5 -199q-57 -128 -75 -159q-28 -26 -58 -26q-65 0 -82 68z M267 1575v2q283 304 336 354q10 6 27 6h75q32 0 61 -39l303 -321l-3 -2h-166q-39 0 -63 37l-170 178q-162 -175 -202 -210q-14 -5 -26 -5h-172zM433 608q0 -35 45 -40h373q56 0 56 42q-1 9 -95 221t-112 251q-16 14 -28 14h-4q-32 0 -53 -69q-182 -407 -182 -417v-2z" />
<glyph unicode="&#xc3;" horiz-adv-x="1326" d="M20 68v9q0 29 31 91l539 1224q27 40 66 40h8q59 0 89 -94q462 -1045 466 -1060q81 -172 81 -193v-9q0 -50 -59 -74q-2 0 -25 -2q-59 0 -88 91q-116 262 -128 284q-22 27 -57 33h-566q-35 -7 -50.5 -24t-91.5 -199q-57 -128 -75 -159q-28 -26 -58 -26q-65 0 -82 68z M279 1579v4q0 95 74 176q79 77 184 77t188 -79q25 -21 62.5 -21t57.5 33t20 52h170q2 0 2 -2v-9q0 -79 -60 -157q-82 -90 -193.5 -90t-198.5 85q-25 14 -48 14q-56 0 -81 -59q-5 -27 -6 -27h-169q-2 0 -2 3zM423 608q0 -35 45 -40h373q56 0 56 42q-1 9 -95 221t-112 251 q-16 14 -28 14h-4q-32 0 -53 -69q-182 -407 -182 -417v-2z" />
<glyph unicode="&#xc4;" horiz-adv-x="1329" d="M20 68v9q0 29 31 91l539 1224q27 40 66 40h8q59 0 89 -94q462 -1045 466 -1060q81 -172 81 -193v-9q0 -50 -59 -74q-2 0 -25 -2q-59 0 -88 91q-116 262 -128 284q-22 27 -57 33h-566q-35 -7 -50.5 -24t-91.5 -199q-57 -128 -75 -159q-28 -26 -58 -26q-65 0 -82 68z M380 1645v10q0 58 67 93q21 6 31 6h17q50 0 87 -54q12 -25 12 -46v-9q0 -75 -79 -103q-20 -4 -29 -4q-54 0 -91 51q-15 24 -15 56zM423 608q0 -35 45 -40h373q56 0 56 42q-1 9 -95 221t-112 251q-16 14 -28 14h-4q-32 0 -53 -69q-182 -407 -182 -417v-2zM737 1648 q0 74 79 103q13 3 21 3h16q47 0 73.5 -36.5t26.5 -72.5q0 -71 -75 -102q-23 -5 -34 -5q-50 0 -87 45q-20 29 -20 65z" />
<glyph unicode="&#xc6;" horiz-adv-x="2118" />
<glyph unicode="&#xc7;" horiz-adv-x="1373" d="M100 715q0 293 222 521q68 58 108 84q188 114 389.5 114t385.5 -112q74 -50 75 -66q6 -9 7 -49t-52 -69q-9 -6 -40 -7.5t-66 31.5q-146 97 -307 97q-219 0 -382 -154q-82 -85 -112 -156q-53 -114 -53 -223v-23q0 -177 128 -340q173 -192 419 -192q186 0 343 123 q18 6 34 6h3q58 0 83 -68q3 -16 3 -22q0 -49 -53 -81q-74 -51 -131.5 -76t-165.5 -47l-44 -6v-9q0 -23 50 -31q38 -15 83 -48q45 -42 50 -61q26 -50 26 -89v-26q0 -34 -31 -88q-89 -117 -253 -117l-1 3v142q0 4 27 5.5t76 22.5q34 27 34 52v3q0 32 -64 62l-81 17 q-66 32 -66 100v62q-91 11 -163 36q-243 90 -378 308q-103 176 -103 371z" />
<glyph unicode="&#xc8;" horiz-adv-x="1090" d="M100 111v1212q0 72 30 89q16 22 81 22h674q64 0 87 -25.5t23 -52.5v-17q0 -41 -46 -69q-16 -9 -64 -9h-500q-70 0 -88 -29q-23 -16 -23 -83v-234q0 -70 28 -87q17 -24 83 -24h500q63 0 86.5 -26t23.5 -52v-18q0 -40 -46 -68q-16 -10 -64 -10h-500q-70 0 -88 -28 q-23 -17 -23 -83v-234q0 -71 30 -89q18 -22 79 -22h502q64 0 87 -26t23 -52v-18q0 -40 -45 -67q-13 -11 -65 -11h-674q-64 0 -86 25q-25 20 -25 86zM248 1802q0 20 6 39q27 52 75 52h8q30 0 59 -25q27 -35 98 -152q91 -136 91 -148v-12q-6 -39 -37 -39h-14l-11 4 q-5 0 -199 178q-76 59 -76 103z" />
<glyph unicode="&#xc9;" horiz-adv-x="1093" d="M100 111v1212q0 72 30 89q16 22 81 22h674q64 0 87 -25.5t23 -52.5v-17q0 -41 -46 -69q-16 -9 -64 -9h-500q-70 0 -88 -29q-23 -16 -23 -83v-234q0 -70 28 -87q17 -24 83 -24h500q63 0 86.5 -26t23.5 -52v-18q0 -40 -46 -68q-16 -10 -64 -10h-500q-70 0 -88 -28 q-23 -17 -23 -83v-234q0 -71 30 -89q18 -22 79 -22h502q64 0 87 -26t23 -52v-18q0 -40 -45 -67q-13 -11 -65 -11h-674q-64 0 -86 25q-25 20 -25 86zM506 1559v12q0 12 91 148q71 117 98 152q29 25 59 25h8q48 0 75 -52q6 -19 6 -39q0 -44 -76 -103q-194 -178 -199 -178 l-11 -4h-14q-31 0 -37 39z" />
<glyph unicode="&#xca;" horiz-adv-x="1089" d="M100 111v1212q0 72 30 89q16 22 81 22h674q64 0 87 -25.5t23 -52.5v-17q0 -41 -46 -69q-16 -9 -64 -9h-500q-70 0 -88 -29q-23 -16 -23 -83v-234q0 -70 28 -87q17 -24 83 -24h500q63 0 86.5 -26t23.5 -52v-18q0 -40 -46 -68q-16 -10 -64 -10h-500q-70 0 -88 -28 q-23 -17 -23 -83v-234q0 -71 30 -89q18 -22 79 -22h502q64 0 87 -26t23 -52v-18q0 -40 -45 -67q-13 -11 -65 -11h-674q-64 0 -86 25q-25 20 -25 86zM147 1575v2q283 304 336 354q10 6 27 6h75q32 0 61 -39l303 -321l-3 -2h-166q-39 0 -63 37l-170 178q-162 -175 -202 -210 q-14 -5 -26 -5h-172z" />
<glyph unicode="&#xcb;" horiz-adv-x="1093" d="M100 111v1212q0 72 30 89q16 22 81 22h674q64 0 87 -25.5t23 -52.5v-17q0 -41 -46 -69q-16 -9 -64 -9h-500q-70 0 -88 -29q-23 -16 -23 -83v-234q0 -70 28 -87q17 -24 83 -24h500q63 0 86.5 -26t23.5 -52v-18q0 -40 -46 -68q-16 -10 -64 -10h-500q-70 0 -88 -28 q-23 -17 -23 -83v-234q0 -71 30 -89q18 -22 79 -22h502q64 0 87 -26t23 -52v-18q0 -40 -45 -67q-13 -11 -65 -11h-674q-64 0 -86 25q-25 20 -25 86zM270 1645v10q0 58 67 93q21 6 31 6h17q50 0 87 -54q12 -25 12 -46v-9q0 -75 -79 -103q-20 -4 -29 -4q-54 0 -91 51 q-15 24 -15 56zM627 1648q0 74 79 103q13 3 21 3h16q47 0 73.5 -36.5t26.5 -72.5q0 -71 -75 -102q-23 -5 -34 -5q-50 0 -87 45q-20 29 -20 65z" />
<glyph unicode="&#xcc;" horiz-adv-x="379" d="M60 1783v12q0 8 1 17q24 65 73 65t76 -27q15 -20 101.5 -153t86.5 -154v-2q0 -31 -36 -40h-16q-4 0 -13.5 4.5t-208.5 189.5q-64 48 -64 88zM105 110v1214q0 74 36 94q20 16 43 16h16q54 0 76 -66q3 -10 3 -44v-1210q0 -73 -27 -90q-24 -24 -59 -24h-2q-62 0 -84 69 q-2 24 -2 41z" />
<glyph unicode="&#xcd;" horiz-adv-x="379" d="M60 1541v2q0 21 86.5 154t101.5 153q27 27 76 27t73 -65q1 -9 1 -17v-12q0 -40 -64 -88q-199 -185 -208.5 -189.5t-13.5 -4.5h-16q-36 9 -36 40zM105 110v1214q0 74 36 94q20 16 43 16h16q54 0 76 -66q3 -10 3 -44v-1210q0 -73 -27 -90q-24 -24 -59 -24h-2q-62 0 -84 69 q-2 24 -2 41z" />
<glyph unicode="&#xce;" horiz-adv-x="799" d="M-3 1575v2q283 304 335 354q11 6 28 6h75q32 0 61 -39l303 -321l-3 -2h-166q-39 0 -63 37l-170 178q-162 -175 -202 -210q-14 -5 -26 -5h-172zM315 110v1214q0 74 36 94q20 16 43 16h16q54 0 76 -66q3 -10 3 -44v-1210q0 -73 -27 -90q-24 -24 -59 -24h-2q-62 0 -84 69 q-2 24 -2 41z" />
<glyph unicode="&#xcf;" horiz-adv-x="573" d="M0 1645v10q0 58 67 93q21 6 31 6h17q50 0 87 -54q12 -25 12 -46v-9q0 -75 -79 -103q-20 -4 -29 -4q-54 0 -91 51q-15 24 -15 56zM195 110v1214q0 74 36 94q20 16 43 16h16q54 0 76 -66q3 -10 3 -44v-1210q0 -73 -27 -90q-24 -24 -59 -24h-2q-62 0 -84 69q-2 24 -2 41z M357 1648q0 74 79 103q13 3 21 3h16q47 0 73.5 -36.5t26.5 -72.5q0 -71 -75 -102q-23 -5 -34 -5q-50 0 -87 45q-20 29 -20 65z" />
<glyph unicode="&#xd1;" horiz-adv-x="1191" d="M100 76v1281q0 44 50 71q17 5 27 5h6q48 0 88 -73q620 -948 627.5 -957t18.5 -9q15 6 15 26v936q0 47 52 72q13 5 25 5h5q47 0 72 -51q5 -14 5 -26v-1278q0 -50 -53 -73q-5 -2 -26 -5q-51 0 -85 65q-4 4 -314.5 480t-321.5 490q-6 4 -10 4h-5q-13 0 -15 -21v-918 q0 -70 -45 -91q-22 -9 -36 -9q-52 0 -76 55q-4 14 -4 21zM219 1579v4q0 95 74 176q79 77 184 77t188 -79q25 -21 62.5 -21t57.5 33t20 52h170q2 0 2 -2v-9q0 -79 -60 -157q-82 -90 -193.5 -90t-198.5 85q-25 14 -48 14q-56 0 -81 -59q-5 -27 -6 -27h-169q-2 0 -2 3z" />
<glyph unicode="&#xd2;" horiz-adv-x="1630" d="M100 713v22q0 201 128 393q24 38 101 116q124 112 256 150.5t217 38.5h28q195 0 390 -123q109 -75 196 -200q115 -188 115 -375v-22q0 -288 -214 -510q-220 -203 -513.5 -203t-522.5 237q-181 212 -181 476zM271 718.5q0 -163.5 101 -314.5q78 -103 165 -152 q134 -77 263 -77h31q173 0 336 128q87 81 119 142q73 131 73 260v23q0 186 -139 351q-83 83 -133 107q-132 73 -256 73h-31q-160 0 -318 -114q-69 -58 -107 -111q-104 -152 -104 -315.5zM524 1805v14q0 6 2 18q24 64 81 64q36 0 64 -23q25 -36 108 -164t83 -146 q-5 -44 -38 -44h-15l-8 1q-11 6 -221 200q-56 42 -56 80z" />
<glyph unicode="&#xd3;" horiz-adv-x="1630" d="M100 713v22q0 201 128 393q24 38 101 116q124 112 256 150.5t217 38.5h28q195 0 390 -123q109 -75 196 -200q115 -188 115 -375v-22q0 -288 -214 -510q-220 -203 -513.5 -203t-522.5 237q-181 212 -181 476zM271 718.5q0 -163.5 101 -314.5q78 -103 165 -152 q134 -77 263 -77h31q173 0 336 128q87 81 119 142q73 131 73 260v23q0 186 -139 351q-83 83 -133 107q-132 73 -256 73h-31q-160 0 -318 -114q-69 -58 -107 -111q-104 -152 -104 -315.5zM772 1563q0 18 83 146t108 164q28 23 64 23q57 0 81 -64q2 -12 2 -18v-14 q0 -38 -56 -80q-210 -194 -221 -200l-8 -1h-15q-33 0 -38 44z" />
<glyph unicode="&#xd4;" horiz-adv-x="1634" d="M100 721.5q0 276.5 206 498.5q225 213 495 213h32q199 0 392 -126q49 -32 119 -104q191 -214 191 -491t-206 -499q-228 -213 -496 -213h-32q-198 0 -391 127q-49 32 -119 103q-191 215 -191 491.5zM274 718.5q0 -226.5 172 -398.5q77 -68 168.5 -107t193.5 -39h19 q191 0 357 142q177 172 177 399t-172 398q-166 147 -362 147h-19q-192 0 -357 -142q-177 -173 -177 -399.5zM417 1575v2q283 304 336 354q10 6 27 6h75q32 0 61 -39l303 -321l-3 -2h-166q-39 0 -63 37l-170 178q-162 -175 -202 -210q-14 -5 -26 -5h-172z" />
<glyph unicode="&#xd5;" horiz-adv-x="1637" d="M100 713v22q0 201 128 393q24 38 101 116q124 112 256 150.5t217 38.5h28q195 0 390 -123q109 -75 196 -200q115 -188 115 -375v-22q0 -288 -214 -510q-220 -203 -513.5 -203t-522.5 237q-181 212 -181 476zM271 718.5q0 -163.5 101 -314.5q78 -103 165 -152 q134 -77 263 -77h31q173 0 336 128q87 81 119 142q73 131 73 260v23q0 186 -139 351q-83 83 -133 107q-132 73 -256 73h-31q-160 0 -318 -114q-69 -58 -107 -111q-104 -152 -104 -315.5zM449 1579v4q0 95 74 176q79 77 184 77t188 -79q25 -21 62.5 -21t57.5 33t20 52h170 q2 0 2 -2v-9q0 -79 -60 -157q-82 -90 -193.5 -90t-198.5 85q-25 14 -48 14q-56 0 -81 -59q-5 -27 -6 -27h-169q-2 0 -2 3z" />
<glyph unicode="&#xd6;" horiz-adv-x="1640" d="M100 697v26q0 253 175 467q89 90 129 114q193 130 404 130h17q204 0 394 -123q49 -32 122 -103q192 -218 192 -485v-24q0 -200 -130 -397q-80 -108 -184 -179q-186 -123 -404 -123q-264 0 -478 182q-96 97 -107 123q-47 64 -88.5 170t-41.5 222zM272 718q0 -243 195 -418 q163 -126 337 -126h25q170 0 329 120q202 175 202 425q0 211 -156 380q-99 92 -178 119q-103 42 -193 42h-34q-147 0 -301 -101q-99 -77 -142 -154q-84 -135 -84 -287zM530 1645v10q0 58 67 93q21 6 31 6h17q50 0 87 -54q12 -25 12 -46v-9q0 -75 -79 -103q-20 -4 -29 -4 q-54 0 -91 51q-15 24 -15 56zM887 1648q0 74 79 103q13 3 21 3h16q47 0 73.5 -36.5t26.5 -72.5q0 -71 -75 -102q-23 -5 -34 -5q-50 0 -87 45q-20 29 -20 65z" />
<glyph unicode="&#xd9;" horiz-adv-x="1275" d="M100 528v825q0 55 64 79q9 2 15 2h14q54 0 78 -66q2 -9 2 -15v-777q0 -217 143 -324q100 -78 224 -78q178 0 300 161q62 100 62 198v790q0 75 37 95q20 16 43 16h15q53 0 76 -64q4 -17 4 -47v-795q0 -199 -154 -368q-166 -160 -400.5 -160t-410.5 207q-112 157 -112 321z M347 1810v3q0 7 3 23q26 62 71.5 62t71.5 -22q28 -38 149 -230q43 -60 43 -81v-3q-9 -42 -36 -42h-11q-7 0 -13.5 2t-215.5 195q-62 46 -62 93z" />
<glyph unicode="&#xda;" horiz-adv-x="1271" d="M100 528v825q0 55 64 79q9 2 15 2h14q54 0 78 -66q2 -9 2 -15v-777q0 -217 143 -324q100 -78 224 -78q178 0 300 161q62 100 62 198v790q0 75 37 95q20 16 43 16h15q53 0 76 -64q4 -17 4 -47v-795q0 -199 -154 -368q-166 -160 -400.5 -160t-410.5 207q-112 157 -112 321z M595 1562v3q0 21 43 81q121 192 149 230q26 22 71.5 22t71.5 -62q3 -16 3 -23v-3q0 -47 -62 -93q-209 -193 -215.5 -195t-13.5 -2h-11q-27 0 -36 42z" />
<glyph unicode="&#xdb;" horiz-adv-x="1276" d="M100 528v825q0 55 64 79q9 2 15 2h14q54 0 78 -66q2 -9 2 -15v-777q0 -217 143 -324q100 -78 224 -78q178 0 300 161q62 100 62 198v790q0 75 37 95q20 16 43 16h15q53 0 76 -64q4 -17 4 -47v-795q0 -199 -154 -368q-166 -160 -400.5 -160t-410.5 207q-112 157 -112 321z M237 1575v2q283 304 336 354q10 6 27 6h75q32 0 61 -39l303 -321l-3 -2h-166q-39 0 -63 37l-170 178q-162 -175 -202 -210q-14 -5 -26 -5h-172z" />
<glyph unicode="&#xdc;" horiz-adv-x="1274" d="M100 529v797q0 67 29 85q21 23 53 23h10q54 0 79 -63q3 -21 3 -45v-797q0 -99 67 -203q120 -154 286.5 -154t281.5 121q95 111 95 239v794q0 69 30 87q21 21 52 21h10q53 0 79 -63q3 -21 3 -45v-797q0 -154 -95 -298q-83 -112 -196 -171.5t-231 -59.5h-34q-141 0 -285 91 q-49 31 -118 107q-119 156 -119 331zM351 1642v9q0 65 72 98q19 5 32 5h9q64 0 97 -71q6 -20 6 -32v-9q0 -64 -72 -97q-19 -6 -31 -6h-9q-65 0 -98 72q-6 19 -6 31zM711 1642v9q0 65 72 98q19 5 31 5h9q65 0 98 -71q5 -20 5 -32v-9q0 -64 -72 -97q-19 -6 -31 -6h-9 q-65 0 -98 72q-5 19 -5 31z" />
<glyph unicode="&#xdd;" horiz-adv-x="1233" />
<glyph unicode="&#xdf;" horiz-adv-x="1251" />
<glyph unicode="&#xe0;" horiz-adv-x="1059" d="M100 332v16q0 124 96 230q63 60 122.5 81t113.5 21h281q48 0 56 29q2 5 2 10v5q-2 31 -43 78q-48 42 -80.5 46t-72.5 4h-226q-42 0 -71 51q-7 21 -7 36q0 50 52 79q16 6 26 6h269q134 0 243 -110q91 -105 91 -226v-610q0 -28 -25 -53t-58 -25h-12q-31 0 -49 22t-32 50 q-15 16 -29 16h-5q-15 0 -52 -24q-121 -64 -232 -64h-26q-124 0 -230 96q-60 63 -81 122.5t-21 113.5zM273 335q0 -58 48 -111q53 -51 117 -51h6q119 0 220 85q59 58 71 88q39 76 39 113q1 0 1 6q0 35 -43 42h-294q-61 0 -113 -47q-52 -54 -52 -115v-10zM303 1398q0 14 3 27 q23 63 84 63q34 0 62 -25q17 -23 103.5 -157t86.5 -150v-12q-11 -35 -43 -35q-14 2 -18 3.5t-221 198.5q-57 44 -57 87z" />
<glyph unicode="&#xe1;" horiz-adv-x="1050" d="M100 332v16q0 124 96 230q63 60 122.5 81t113.5 21h281q48 0 56 29q2 5 2 10v5q-2 31 -43 78q-48 42 -80.5 46t-72.5 4h-226q-42 0 -71 51q-7 21 -7 36q0 50 52 79q16 6 26 6h269q134 0 243 -110q91 -105 91 -226v-610q0 -28 -25 -53t-58 -25h-12q-31 0 -49 22t-32 50 q-15 16 -29 16h-5q-15 0 -52 -24q-121 -64 -232 -64h-26q-124 0 -230 96q-60 63 -81 122.5t-21 113.5zM273 335q0 -58 48 -111q53 -51 117 -51h6q119 0 220 85q59 58 71 88q39 76 39 113q1 0 1 6q0 35 -43 42h-294q-61 0 -113 -47q-52 -54 -52 -115v-10zM483 1144v12 q0 16 86.5 150t103.5 157q28 25 62 25q61 0 84 -63q3 -13 3 -27q0 -43 -57 -87q-217 -197 -221 -198.5t-18 -3.5q-32 0 -43 35z" />
<glyph unicode="&#xe2;" horiz-adv-x="1055" d="M100 332v16q0 124 96 230q63 60 122.5 81t113.5 21h281q48 0 56 29q2 5 2 10v5q-2 31 -43 78q-48 42 -80.5 46t-72.5 4h-226q-42 0 -71 51q-7 21 -7 36q0 50 52 79q16 6 26 6h269q134 0 243 -110q91 -105 91 -226v-610q0 -28 -25 -53t-58 -25h-12q-31 0 -49 22t-32 50 q-15 16 -29 16h-5q-15 0 -52 -24q-121 -64 -232 -64h-26q-124 0 -230 96q-60 63 -81 122.5t-21 113.5zM176 1168q15 18 257 355q17 19 40 19h97q33 0 57 -45q8 -9 239 -330l-2 -2h-158q-23 0 -51 48l-134 183q-150 -207 -163 -222q-12 -8 -21 -9h-158q-3 0 -3 3zM273 335 q0 -58 48 -111q53 -51 117 -51h6q119 0 220 85q59 58 71 88q39 76 39 113q1 0 1 6q0 35 -43 42h-294q-61 0 -113 -47q-52 -54 -52 -115v-10z" />
<glyph unicode="&#xe3;" horiz-adv-x="1052" d="M100 332v16q0 124 96 230q63 60 122.5 81t113.5 21h281q48 0 56 29q2 5 2 10v5q-2 31 -43 78q-48 42 -80.5 46t-72.5 4h-226q-42 0 -71 51q-7 21 -7 36q0 50 52 79q16 6 26 6h269q134 0 243 -110q91 -105 91 -226v-610q0 -28 -25 -53t-58 -25h-12q-31 0 -49 22t-32 50 q-15 16 -29 16h-5q-15 0 -52 -24q-121 -64 -232 -64h-26q-124 0 -230 96q-60 63 -81 122.5t-21 113.5zM146 1171v9q0 83 64 162q47 46 70 55q61 31 113 31h22q74 0 152 -56q41 -44 78 -44q63 0 85 66q2 8 2 15v3q0 2 2 2h170q2 0 2 -2v-5q0 -80 -58 -158q-49 -51 -93 -72 t-98 -21h-21q-72 0 -149 54q-45 45 -78 45h-4q-58 0 -82 -59q-2 -6 -6 -27h-169q-2 0 -2 2zM273 335q0 -58 48 -111q53 -51 117 -51h6q119 0 220 85q59 58 71 88q39 76 39 113q1 0 1 6q0 35 -43 42h-294q-61 0 -113 -47q-52 -54 -52 -115v-10z" />
<glyph unicode="&#xe4;" horiz-adv-x="1059" d="M100 332v16q0 124 96 230q63 60 122.5 81t113.5 21h281q48 0 56 29q2 5 2 10v5q-2 31 -43 78q-48 42 -80.5 46t-72.5 4h-226q-42 0 -71 51q-7 21 -7 36q0 50 52 79q16 6 26 6h269q134 0 243 -110q91 -105 91 -226v-610q0 -28 -25 -53t-58 -25h-12q-31 0 -49 22t-32 50 q-15 16 -29 16h-5q-15 0 -52 -24q-121 -64 -232 -64h-26q-124 0 -230 96q-60 63 -81 122.5t-21 113.5zM236 1229v12q0 64 68 97q19 7 34 7h11q59 0 93 -63q9 -18 9 -41v-12q0 -43 -44 -80q-33 -20 -64 -20q-63 0 -98 63q-9 23 -9 37zM273 335q0 -58 48 -111q53 -51 117 -51 h6q119 0 220 85q59 58 71 88q39 76 39 113q1 0 1 6q0 35 -43 42h-294q-61 0 -113 -47q-52 -54 -52 -115v-10zM595 1229v12q0 64 68 97q18 7 34 7h11q59 0 93 -63q9 -18 9 -41v-12q0 -43 -44 -80q-33 -20 -64 -20q-63 0 -98 63q-9 23 -9 37z" />
<glyph unicode="&#xe5;" horiz-adv-x="922" />
<glyph unicode="&#xe6;" horiz-adv-x="1454" />
<glyph unicode="&#xe7;" horiz-adv-x="1035" d="M100 506q0 205 145 361q65 63 95 76q129 81 279.5 81t286.5 -90q31 -31 31 -75t-51 -72q-19 -8 -42 -8t-69 30q-75 40 -160 40q-171 0 -282 -148q-58 -89 -58 -192q0 -166 141 -277q92 -63 196.5 -63t199.5 62q21 8 39 8q56 0 83 -63q3 -17 3 -26q0 -57 -75 -91 q-64 -39 -169 -59q-3 -9 -3 -13q0 -20 45 -28q51 -15 108 -68q57 -66 57 -150.5t-90 -154.5q-87 -59 -195 -59l-1 2v144q1 4 7 4q61 0 109 35q22 21 22 41v2q0 20 -23.5 39t-63.5 30q-58 7 -77 22q-48 32 -48 108v46q-67 10 -124 35q-176 74 -267 254q-49 114 -49 217z" />
<glyph unicode="&#xe8;" horiz-adv-x="1219" d="M100 510q0 217 161 376q155 138 351 138q231 0 395 -184q38 -45 38 -78v-2q0 -54 -70 -95l-533 -382q-13 -14 -13 -31v-7q0 -36 114 -64q34 -7 53 -7h17q167 0 277 145q40 57 50.5 105.5t34.5 70.5q26 17 48 17h13q50 0 76 -60q4 -13 4 -26q-9 -87 -79 -202 q-31 -42 -77 -89q-157 -135 -341 -135h-12q-187 0 -343 135q-75 77 -91 115q-73 123 -73 260zM272 512q4 -68 11 -68q13 -23 32 -23h8q17 0 82 50q336 239 379 273q13 14 13 30q0 33 -62 53q-60 24 -104 24h-20q-154 0 -261 -125q-78 -99 -78 -214zM388 1398q0 -46 57 -89 q203 -186 213 -192q0 -5 26 -9h1q42 6 42 43q0 21 -39 74q-121 193 -153 238q-27 22 -57 22h-8q-50 0 -77 -55q-5 -18 -5 -32z" />
<glyph unicode="&#xe9;" horiz-adv-x="1211" d="M100 510q0 217 161 376q155 138 351 138q231 0 395 -184q38 -45 38 -78v-2q0 -54 -70 -95l-533 -382q-13 -14 -13 -31v-7q0 -36 114 -64q34 -7 53 -7h17q167 0 277 145q40 57 50.5 105.5t34.5 70.5q26 17 48 17h13q50 0 76 -60q4 -13 4 -26q-9 -87 -79 -202 q-31 -42 -77 -89q-157 -135 -341 -135h-12q-187 0 -343 135q-75 77 -91 115q-73 123 -73 260zM272 512q4 -68 11 -68q13 -23 32 -23h8q17 0 82 50q336 239 379 273q13 14 13 30q0 33 -62 53q-60 24 -104 24h-20q-154 0 -261 -125q-78 -99 -78 -214zM569 1153q0 21 39 74 q121 193 153 238q27 22 57 22h8q50 0 77 -55q5 -18 5 -32q0 -46 -57 -89q-203 -186 -213 -192q0 -5 -26 -9h-1q-42 6 -42 43z" />
<glyph unicode="&#xea;" horiz-adv-x="1218" d="M100 510q0 217 161 376q155 138 351 138q231 0 395 -184q38 -45 38 -78v-2q0 -54 -70 -95l-533 -382q-13 -14 -13 -31v-7q0 -36 114 -64q34 -7 53 -7h17q167 0 277 145q40 57 50.5 105.5t34.5 70.5q26 17 48 17h13q50 0 76 -60q4 -13 4 -26q-9 -87 -79 -202 q-31 -42 -77 -89q-157 -135 -341 -135h-12q-187 0 -343 135q-75 77 -91 115q-73 123 -73 260zM266 1168q15 18 257 355q17 19 40 19h97q33 0 57 -45q8 -9 239 -330l-2 -2h-158q-23 0 -51 48l-134 183q-150 -207 -163 -222q-12 -8 -21 -9h-158q-3 0 -3 3zM272 512 q4 -68 11 -68q13 -23 32 -23h8q17 0 82 50q336 239 379 273q13 14 13 30q0 33 -62 53q-60 24 -104 24h-20q-154 0 -261 -125q-78 -99 -78 -214z" />
<glyph unicode="&#xeb;" horiz-adv-x="1218" d="M100 510q0 184 122 335q57 60 83 77q142 103 308 103q213 0 374 -161q58 -64 58 -96q0 -7 0.5 -25t-28.5 -48q-16 -13 -256 -184t-321 -229q-12 -14 -12 -28v-6q0 -19 21 -33q81 -41 153 -41h20q115 0 218 86q56 57 66 82q17 27 33 75q10 49 28 68q30 27 61 27 q60 0 83 -57q5 -12 5 -27v-3q-1 -39 -29.5 -107t-76.5 -130q-97 -111 -203 -149q-96 -39 -184 -39h-16q-155 0 -298 99q-69 53 -107.5 108.5t-57.5 96.5q-44 109 -44 206zM274 514q0 -70 15 -82.5t32 -12.5t58 34q5 2 403 286q15 14 15 32v6q0 18 -20 32q-81 42 -153 42h-20 q-117 0 -224 -91q-106 -108 -106 -246zM336 1229v12q0 64 68 97q19 7 34 7h11q59 0 93 -63q9 -18 9 -41v-12q0 -43 -44 -80q-33 -20 -64 -20q-63 0 -98 63q-9 23 -9 37zM695 1229v12q0 64 68 97q18 7 34 7h11q59 0 93 -63q9 -18 9 -41v-12q0 -43 -44 -80q-33 -20 -64 -20 q-63 0 -98 63q-9 23 -9 37z" />
<glyph unicode="&#xec;" horiz-adv-x="380" d="M60 1380q0 12 4 29q24 60 82 60q35 0 62 -25q23 -31 107 -160.5t84 -144.5t-9.5 -31.5t-24 -16.5t-25.5 3.5t-224 198.5q-56 42 -56 87zM105 106v817q0 74 54 97q16 5 24 5h16q35 0 63 -34q17 -24 17 -48v-861q0 -47 -53 -75q-17 -7 -30 -7h-8q-48 0 -76 52q-7 18 -7 54z " />
<glyph unicode="&#xed;" horiz-adv-x="375" d="M60 1139q0 15 84 144.5t107 160.5q27 25 62 25q58 0 82 -60q4 -17 4 -29q0 -45 -56 -87q-213 -195 -224 -198.5t-25.5 -3.5t-24 16.5t-9.5 31.5zM105 106v817q0 74 54 97q16 5 24 5h16q35 0 63 -34q17 -24 17 -48v-861q0 -47 -53 -75q-17 -7 -30 -7h-8q-48 0 -76 52 q-7 18 -7 54z" />
<glyph unicode="&#xee;" horiz-adv-x="686" d="M-4 1168q14 18 257 355q16 19 39 19h98q32 0 57 -45q8 -9 239 -330l-3 -2h-158q-23 0 -51 48l-133 183q-150 -207 -163 -222q-12 -8 -21 -9h-159q-2 0 -2 3zM255 106v817q0 74 54 97q16 5 24 5h16q35 0 63 -34q17 -24 17 -48v-861q0 -47 -53 -75q-17 -7 -30 -7h-8 q-48 0 -76 52q-7 18 -7 54z" />
<glyph unicode="&#xef;" horiz-adv-x="587" d="M6 1229v12q0 64 68 97q19 7 34 7h11q59 0 93 -63q9 -18 9 -41v-12q0 -43 -44 -80q-33 -20 -64 -20q-63 0 -98 63q-9 23 -9 37zM205 106v817q0 74 54 97q16 5 24 5h16q35 0 63 -34q17 -24 17 -48v-861q0 -47 -53 -75q-17 -7 -30 -7h-8q-48 0 -76 52q-7 18 -7 54zM365 1229 v12q0 64 68 97q18 7 34 7h11q59 0 93 -63q9 -18 9 -41v-12q0 -43 -44 -80q-33 -20 -64 -20q-63 0 -98 63q-9 23 -9 37z" />
<glyph unicode="&#xf1;" horiz-adv-x="1086" d="M100 101v823q0 48 25.5 74t68 26t73.5 -52q14 -14 29.5 -14t69.5 29q91 37 181 37t187 -42q255 -128 255 -434v-447q0 -68 -46 -90q-19 -11 -47 -11t-54 25.5t-26 75.5v473q0 142 -115 227q-72 50 -172 50t-185 -89q-71 -79 -71 -188v-473q0 -68 -46 -90q-19 -11 -47 -11 t-54 25.5t-26 75.5zM166 1171v9q0 83 64 162q47 46 70 55q61 31 113 31h22q74 0 152 -56q41 -44 78 -44q63 0 85 66q2 8 2 15v3q0 2 2 2h170q2 0 2 -2v-5q0 -80 -58 -158q-49 -51 -93 -72t-98 -21h-21q-72 0 -149 54q-45 45 -78 45h-4q-58 0 -82 -59q-2 -6 -6 -27h-169 q-2 0 -2 2z" />
<glyph unicode="&#xf2;" horiz-adv-x="1221" d="M100 514q0 211 162 373q69 59 115 80q113 57 219 57h30q138 0 274 -87q87 -60 142 -144q83 -131 83 -281q0 -219 -166 -379q-56 -48 -101 -72q-121 -61 -232 -61h-27q-149 0 -294 101q-205 166 -205 413zM274 512q0 -155 123 -261q97 -78 216 -78q150 0 262 124 q76 98 76 215v11q0 122 -99 229q-107 99 -234 99h-9q-127 0 -232 -96q-103 -108 -103 -232v-11zM412 1398v12q0 13 7 30q27 51 74 51h9q32 0 58 -25q27 -35 157 -243q33 -43 33 -66v-9q-10 -35 -43 -35q-8 0 -18 4.5t-211 188.5q-66 51 -66 92z" />
<glyph unicode="&#xf3;" horiz-adv-x="1224" d="M100 514q0 211 162 373q69 59 115 80q113 57 219 57h30q138 0 274 -87q87 -60 142 -144q83 -131 83 -281q0 -219 -166 -379q-56 -48 -101 -72q-121 -61 -232 -61h-27q-149 0 -294 101q-205 166 -205 413zM274 512q0 -155 123 -261q97 -78 216 -78q150 0 262 124 q76 98 76 215v11q0 122 -99 229q-107 99 -234 99h-9q-127 0 -232 -96q-103 -108 -103 -232v-11zM570 1144v9q0 23 33 66q130 208 157 243q26 25 58 25h9q47 0 74 -51q7 -17 7 -30v-12q0 -41 -66 -92q-201 -184 -211 -188.5t-18 -4.5q-33 0 -43 35z" />
<glyph unicode="&#xf4;" horiz-adv-x="1221" d="M100 510v10q0 178 130 333q74 75 116 95q38 26 111 50.5t144 24.5h21q155 0 302 -106q71 -59 102 -106q97 -141 97 -291v-10q0 -176 -113 -320q-58 -65 -95 -91q-142 -99 -297 -99h-14q-181 0 -335 131q-79 81 -89 107q-80 125 -80 272zM266 1168q15 18 257 355 q17 19 40 19h97q33 0 57 -45q8 -9 239 -330l-2 -2h-158q-23 0 -51 48l-134 183q-150 -207 -163 -222q-12 -8 -21 -9h-158q-3 0 -3 3zM274 497q0 -156 148 -266q89 -57 204.5 -57t217.5 92q105 105 105 250t-118 252q-100 81 -214 81h-12q-122 0 -226 -92 q-105 -104 -105 -260z" />
<glyph unicode="&#xf5;" horiz-adv-x="1224" d="M100 529q0 173 130 325q63 65 93 81q53 36 126 63t150 27h28q94 0 202 -47q47 -19 126 -83q64 -61 87 -101q84 -130 84 -294.5t-115 -312.5q-55 -62 -88 -84q-144 -103 -299 -103h-22q-150 0 -290 96q-69 51 -121 123q-91 137 -91 310zM226 1171v9q0 83 64 162 q47 46 70 55q61 31 113 31h22q74 0 152 -56q41 -44 78 -44q63 0 85 66q2 8 2 15v3q0 2 2 2h170q2 0 2 -2v-5q0 -80 -58 -158q-49 -51 -93 -72t-98 -21h-21q-72 0 -149 54q-45 45 -78 45h-4q-58 0 -82 -59q-2 -6 -6 -27h-169q-2 0 -2 2zM274 503q0 -119 94 -226 q107 -104 240 -104t239 93q63 66 84 124t21 113v11q0 150 -121 258q-95 80 -211 80h-12q-94 0 -188 -60q-88 -64 -125 -162q-21 -55 -21 -116v-11z" />
<glyph unicode="&#xf6;" horiz-adv-x="1224" d="M100 529q0 173 130 325q63 65 93 81q53 36 126 63t150 27h28q94 0 202 -47q47 -19 126 -83q64 -61 87 -101q84 -130 84 -294.5t-115 -312.5q-55 -62 -88 -84q-144 -103 -299 -103h-22q-150 0 -290 96q-69 51 -121 123q-91 137 -91 310zM274 503q0 -119 94 -226 q107 -104 240 -104t239 93q63 66 84 124t21 113v11q0 150 -121 258q-95 80 -211 80h-12q-94 0 -188 -60q-88 -64 -125 -162q-21 -55 -21 -116v-11zM326 1229v12q0 64 68 97q19 7 34 7h11q59 0 93 -63q9 -18 9 -41v-12q0 -43 -44 -80q-33 -20 -64 -20q-63 0 -98 63 q-9 23 -9 37zM685 1229v12q0 64 68 97q18 7 34 7h11q59 0 93 -63q9 -18 9 -41v-12q0 -43 -44 -80q-33 -20 -64 -20q-63 0 -98 63q-9 23 -9 37z" />
<glyph unicode="&#xf9;" horiz-adv-x="1090" d="M100 436v481q0 70 38 90q20 16 50 16q59 0 83 -65q2 -21 2 -41v-478q0 -102 83 -191q72 -60 129 -68q22 -6 58 -8q132 0 223 115q50 77 50 152v482q0 81 68 100q13 2 20 2h1q55 0 80 -60q4 -14 4 -23v-857q0 -55 -60 -79q-12 -4 -27 -4q-48 0 -77 47q-16 18 -31.5 18 t-69.5 -28q-87 -37 -172 -37h-19q-142 0 -274 102q-159 146 -159 334zM298 1399q0 10 1 20q22 69 86 69q35 0 63 -28q24 -31 154 -240q35 -46 35 -66q0 -38 -43 -43q-8 0 -17.5 3t-221.5 198q-57 42 -57 87z" />
<glyph unicode="&#xfa;" horiz-adv-x="1088" d="M100 436v481q0 70 38 90q20 16 50 16q59 0 83 -65q2 -21 2 -41v-478q0 -102 83 -191q72 -60 129 -68q22 -6 58 -8q132 0 223 115q50 77 50 152v482q0 81 68 100q13 2 20 2h1q55 0 80 -60q4 -14 4 -23v-857q0 -55 -60 -79q-12 -4 -27 -4q-48 0 -77 47q-16 18 -31.5 18 t-69.5 -28q-87 -37 -172 -37h-19q-142 0 -274 102q-159 146 -159 334zM501 1151q0 20 35 66q130 209 154 240q28 28 63 28q64 0 86 -69q1 -10 1 -20q0 -45 -57 -87q-212 -195 -221.5 -198t-17.5 -3q-43 5 -43 43z" />
<glyph unicode="&#xfb;" horiz-adv-x="1089" d="M100 436v481q0 70 38 90q20 16 50 16q59 0 83 -65q2 -21 2 -41v-478q0 -102 83 -191q72 -60 129 -68q22 -6 58 -8q132 0 223 115q50 77 50 152v482q0 81 68 100q13 2 20 2h1q55 0 80 -60q4 -14 4 -23v-857q0 -55 -60 -79q-12 -4 -27 -4q-48 0 -77 47q-16 18 -31.5 18 t-69.5 -28q-87 -37 -172 -37h-19q-142 0 -274 102q-159 146 -159 334zM196 1168q15 18 257 355q17 19 40 19h97q33 0 57 -45q8 -9 239 -330l-2 -2h-158q-23 0 -51 48l-134 183q-150 -207 -163 -222q-12 -8 -21 -9h-158q-3 0 -3 3z" />
<glyph unicode="&#xfc;" horiz-adv-x="1087" d="M100 438v503q0 44 45 74q23 9 38 9h7q45 0 73 -46q10 -21 10 -37v-460q0 -107 27 -152q6 -19 37 -58q53 -56 81 -65q60 -32 116 -32h19q87 0 170 66q55 54 74 101.5t19 92.5v490q0 70 50 92q17 8 34 8h7q45 0 73 -46q9 -21 9 -37v-858q0 -44 -42 -71q-23 -12 -42 -12h-5 q-47 0 -79 52q-15 13 -30.5 13t-81.5 -32.5t-158 -32.5h-12q-155 0 -290 111q-70 69 -90 113q-59 105 -59 214zM258 1233v9q0 57 61 91q22 10 41 10h7q65 0 98 -66q8 -20 8 -33v-11q0 -66 -68 -98q-20 -7 -41 -7q-56 0 -90 51q-16 25 -16 54zM617 1233v9q0 57 60 91 q22 10 42 10h7q64 0 98 -66q7 -20 7 -33v-11q0 -67 -69 -98q-17 -7 -40 -7q-56 0 -90 51q-15 25 -15 54z" />
<glyph unicode="&#xfd;" horiz-adv-x="868" />
<glyph unicode="&#xff;" horiz-adv-x="868" />
<glyph unicode="&#x2000;" horiz-adv-x="968" />
<glyph unicode="&#x2001;" horiz-adv-x="1937" />
<glyph unicode="&#x2002;" horiz-adv-x="968" />
<glyph unicode="&#x2003;" horiz-adv-x="1937" />
<glyph unicode="&#x2004;" horiz-adv-x="645" />
<glyph unicode="&#x2005;" horiz-adv-x="484" />
<glyph unicode="&#x2006;" horiz-adv-x="322" />
<glyph unicode="&#x2007;" horiz-adv-x="322" />
<glyph unicode="&#x2008;" horiz-adv-x="242" />
<glyph unicode="&#x2009;" horiz-adv-x="387" />
<glyph unicode="&#x200a;" horiz-adv-x="107" />
<glyph unicode="&#x2010;" horiz-adv-x="714" d="M140 506v13q0 45 49 72q18 8 33 8h265q52 0 79 -57q5 -17 5 -26v-9q0 -39 -44 -71q-24 -10 -37 -10h-268q-52 0 -79 58q-3 15 -3 22z" />
<glyph unicode="&#x2011;" horiz-adv-x="714" d="M140 506v13q0 45 49 72q18 8 33 8h265q52 0 79 -57q5 -17 5 -26v-9q0 -39 -44 -71q-24 -10 -37 -10h-268q-52 0 -79 58q-3 15 -3 22z" />
<glyph unicode="&#x2012;" horiz-adv-x="714" d="M140 506v13q0 45 49 72q18 8 33 8h265q52 0 79 -57q5 -17 5 -26v-9q0 -39 -44 -71q-24 -10 -37 -10h-268q-52 0 -79 58q-3 15 -3 22z" />
<glyph unicode="&#x2013;" horiz-adv-x="1307" d="M140 506v13q0 45 116 72q43 8 79 8h629q124 0 188 -57q12 -17 12 -26v-9q0 -39 -105 -71q-57 -10 -87 -10h-637q-124 0 -188 58q-7 15 -7 22z" />
<glyph unicode="&#x2014;" horiz-adv-x="2331" d="M140 506v13q0 45 233 72q85 8 157 8h1259q247 0 375 -57q24 -17 24 -26v-9q0 -39 -209 -71q-114 -10 -176 -10h-1273q-247 0 -376 58q-14 15 -14 22z" />
<glyph unicode="&#x2018;" horiz-adv-x="377" d="M109 1096q43 327 46 340q13 25 38 25h5q36 0 42 -46q41 -300 41.5 -335.5t-47.5 -62.5q-16 -9 -32 -9h-13q-43 0 -72 49q-8 18 -8 39z" />
<glyph unicode="&#x2019;" horiz-adv-x="373" d="M100 1381q0 48 50 76q18 8 36 8h1q58 0 83 -61q3 -15 3 -29.5t-45 -336.5q-14 -28 -43 -28q-38 0 -43 50q-42 311 -42 321z" />
<glyph unicode="&#x201c;" horiz-adv-x="680" d="M108 1098q43 328 46 341q14 25 38 25h5q36 0 42 -47q41 -300 41.5 -335.5t-46.5 -62.5q-17 -9 -33 -9h-13q-43 0 -72 49q-8 18 -8 39zM409 1097q42 318 46 341q14 26 38 26h6q37 0 42 -52q41 -305 41 -314v-5q0 -57 -63 -81q-9 -2 -20 -2h-6q-44 0 -72 42q-12 23 -12 45z " />
<glyph unicode="&#x201d;" horiz-adv-x="680" d="M106 1373q0 48 50 76q18 8 36 8h1q58 0 82 -61q4 -15 4 -29.5t-45 -336.5q-14 -27 -43 -27q-38 0 -43 50q-42 310 -42 320zM406 1371q0 53 56 80q15 6 34 6q47 0 74 -47q9 -17 9 -33v-9q-41 -326 -46 -341q-15 -24 -39 -24h-2q-29 0 -36.5 24t-49.5 344z" />
<glyph unicode="&#x202f;" horiz-adv-x="387" />
<glyph unicode="&#x205f;" horiz-adv-x="484" />
<glyph unicode="&#x20ac;" horiz-adv-x="1546" d="M40 537v3q48 121 51 121h141q-1 20 -1 30v26q0 21 1 64h-192v3q42 107 51 119h161q3 0 22 66q111 277 376 402q145 63 289 63h22q204 0 398 -127q53 -39 96 -83v-1l-50 -122h-4q-69 75 -105 97q-108 71 -185 92t-148 21h-29q-235 0 -427 -195q-91 -106 -123 -213h935 q3 0 3 -2q-48 -115 -51 -120h-914q-3 -31 -3 -60v-9q0 -16 1 -51h863q2 -1 2 -3q-43 -111 -50 -121h-789q22 -69 59 -129t115 -138q180 -147 386 -147h30q95 0 225 54q73 31 164 112l41 44h3v-170q-123 -106 -314 -149q-71 -14 -119 -14h-40q-204 0 -400 132 q-128 96 -191 203q-58 91 -88 202h-212z" />
<glyph unicode="&#xe000;" horiz-adv-x="1025" d="M0 0v1025h1025v-1025h-1025z" />
</font>
</defs>
</svg>
