<?xml version="1.0" standalone="no"?> <!DOCTYPE svg PUBLIC "-//W3C//DTD SVG 1.0//EN" "http://www.w3.org/TR/2001/REC-SVG-20010904/DTD/svg10.dtd" > <svg xmlns="http://www.w3.org/2000/svg" width="100%" height="100%">
<defs >
<font id="sfarcheryblack" horiz-adv-x="869" ><font-face
    font-family="SF Archery Black"
    units-per-em="2048"
    panose-1="2 0 5 6 0 0 0 2 0 4"
    ascent="2048"
    descent="-410"
    alphabetic="0" />
<missing-glyph horiz-adv-x="1024" />
<glyph unicode=" " glyph-name="space" horiz-adv-x="1024" />
<glyph unicode="!" glyph-name="exclam" horiz-adv-x="606" d="M442 1638L401 492H197L156 1638H442ZM442 143Q442 84 400 42T299 0Q240 0 198 42T156 143Q156 203 198 245T299 287Q358 287 400 245T442 143Z" />
<glyph unicode="&quot;" glyph-name="quotedbl" horiz-adv-x="903" d="M737 1638L696 1229H573L532 1638H737ZM369 1638L328 1229H205L164 1638H369Z" />
<glyph unicode="#" glyph-name="numbersign" horiz-adv-x="1307" d="M1196 778H942L924 553H719L737 778H512L494 553H289L307 778H111V983H326L346 1208H111V1413H365L383 1638H588L569 1413H795L813 1638H1018L999 1413H1196V1208H981L961 983H1196V778ZM776
1208H551L530 983H756L776 1208Z" />
<glyph unicode="$" glyph-name="dollar" horiz-adv-x="1024" d="M899 307L653 143V-102H367V102H121V512H408V307H612V717H121V1331L367 1495V1741H653V1536H899V1126H612V1331H408V922H899V307Z" />
<glyph unicode="%" glyph-name="percent" horiz-adv-x="1901" d="M1825 205L1518 0H1354L1047 205V614L1354 819H1518L1825 614V205ZM1436 1733L735 -193L465 -94L1165 1831L1436 1733ZM854 1024L547 819H383L76 1024V1434L383 1638H547L854 1434V1024ZM1538 205V614H1333V205H1538ZM567
1024V1434H362V1024H567Z" />
<glyph unicode="&amp;" glyph-name="ampersand" horiz-adv-x="1165" d="M1051 717H948V205L641 0H170V676L365 819L170 963V1434L477 1638H948V1126H662V1434H457V922H1051V717ZM662 205V717H457V205H662Z" />
<glyph unicode="&apos;" glyph-name="quotesingle" horiz-adv-x="471" d="M334 1638L293 1229H170L129 1638H334Z" />
<glyph unicode="(" glyph-name="parenleft" horiz-adv-x="768" d="M655 -205H471L164 0V1638L471 1843H655V1638H451V0H655V-205Z" />
<glyph unicode=")" glyph-name="parenright" horiz-adv-x="770" d="M600 0L293 -205H109V0H313V1638H109V1843H293L600 1638V0Z" />
<glyph unicode="*" glyph-name="asterisk" horiz-adv-x="1147" d="M1067 958L965 782L676 948V614H471V948L180 782L78 958L369 1126L78 1294L180 1470L471 1305V1638H676V1305L965 1470L1067 1294L778 1126L1067 958Z" />
<glyph unicode="+" glyph-name="plus" horiz-adv-x="911" d="M864 717H557V410H352V717H45V922H352V1229H557V922H864V717Z" />
<glyph unicode="," glyph-name="comma" horiz-adv-x="471" d="M334 205L293 -205H170L129 205H334Z" />
<glyph unicode="-" glyph-name="hyphen" horiz-adv-x="1192" d="M1004 717H184V922H1004V717Z" />
<glyph unicode="." glyph-name="period" horiz-adv-x="551" d="M414 143Q414 84 372 42T270 0Q211 0 169 42T127 143Q127 203 169 245T270 287Q330 287 372 245T414 143Z" />
<glyph unicode="/" glyph-name="slash" horiz-adv-x="1028" d="M999 1733L299 -193L29 -94L729 1831L999 1733Z" />
<glyph unicode="0" glyph-name="zero" horiz-adv-x="1112" d="M944 205L637 0H473L166 205V1434L473 1638H637L944 1434V205ZM657 205V1434H453V205H657Z" />
<glyph unicode="1" glyph-name="one" horiz-adv-x="666" d="M471 0H184V1638H471V0Z" />
<glyph unicode="2" glyph-name="two" horiz-adv-x="1067" d="M940 0H162V717L469 922H653V1434H449V1126H162V1434L469 1638H940V922L633 717H449V205H653V512H940V0Z" />
<glyph unicode="3" glyph-name="three" horiz-adv-x="1106" d="M936 205L629 0H158V512H444V205H649V717H444L301 922H649V1434H444V1126H158V1434L465 1638H936V963L741 819L936 676V205Z" />
<glyph unicode="4" glyph-name="four" horiz-adv-x="1085" d="M897 0H610V307H119V1638H406V512H610V1638H897V0Z" />
<glyph unicode="5" glyph-name="five" horiz-adv-x="1137" d="M963 205L655 0H184V512H471V205H676V717H184V1638H963V1126H676V1434H471V922H963V205Z" />
<glyph unicode="6" glyph-name="six" horiz-adv-x="1126" d="M952 205L645 0H174V1434L481 1638H952V1126H666V1434H461V922H952V205ZM666 205V717H461V205H666Z" />
<glyph unicode="7" glyph-name="seven" horiz-adv-x="997" d="M809 0H522V1434H317V1270L31 1075V1434L338 1638H809V0Z" />
<glyph unicode="8" glyph-name="eight" horiz-adv-x="1116" d="M946 205L639 0H168V676L383 819L168 963V1434L475 1638H946V963L731 819L946 676V205ZM659 922V1434H455V922H659ZM659 205V717H455V205H659Z" />
<glyph unicode="9" glyph-name="nine" horiz-adv-x="1126" d="M948 205L641 0H170V512H457V205H662V717H170V1434L477 1638H948V205ZM662 922V1434H457V922H662Z" />
<glyph unicode=":" glyph-name="colon" horiz-adv-x="580" d="M428 819Q428 760 386 718T285 676Q225 676 183 718T141 819Q141 879 183 921T285 963Q344 963 386 921T428 819ZM428 143Q428 84 386 42T285 0Q225 0 183 42T141 143Q141 203 183 245T285 287Q344
287 386 245T428 143Z" />
<glyph unicode=";" glyph-name="semicolon" horiz-adv-x="494" d="M387 819Q387 760 345 718T244 676Q184 676 142 718T100 819Q100 879 142 921T244 963Q303 963 345 921T387 819ZM346 205L305 -205H182L141 205H346Z" />
<glyph unicode="&lt;" glyph-name="less" horiz-adv-x="870" d="M729 397L584 252L16 819L584 1386L729 1241L305 819L729 397Z" />
<glyph unicode="=" glyph-name="equal" horiz-adv-x="1094" d="M1004 922H184V1126H1004V922ZM1004 512H184V717H1004V512Z" />
<glyph unicode="&gt;" glyph-name="greater" horiz-adv-x="866" d="M850 819L283 252L137 397L561 819L137 1241L283 1386L850 819Z" />
<glyph unicode="?" glyph-name="question" horiz-adv-x="987" d="M932 922L625 717H440V492H154V717L461 922H645V1434H440V1126H154V1434L461 1638H932V922ZM440 143Q440 84 398 42T297 0Q238 0 196 42T154 143Q154 203 196 245T297 287Q356 287 398 245T440 143Z" />
<glyph unicode="@" glyph-name="at" horiz-adv-x="1513" d="M1348 0H180V1075L412 1229H1348V461L1118 307H473V539L702 692H842V768H688V737H473V768L702 922H1057V461H1133V1075H395V154H1348V0ZM842 461V539H688V461H842Z" />
<glyph unicode="A" glyph-name="A" horiz-adv-x="907" d="M842 0H555V451H350V0H63V1434L371 1638H535L842 1434V0ZM555 655V1434H350V655H555Z" />
<glyph unicode="B" glyph-name="B" horiz-adv-x="905" d="M842 205L535 0H63V1434L371 1638H842V963L647 819L842 676V205ZM555 922V1434H350V922H555ZM555 205V717H350V205H555Z" />
<glyph unicode="C" glyph-name="C" horiz-adv-x="901" d="M842 205L535 0H63V1434L371 1638H842V1126H555V1434H350V205H555V512H842V205Z" />
<glyph unicode="D" glyph-name="D" horiz-adv-x="907" d="M846 205L539 0H68V1638H539L846 1434V205ZM559 205V1434H354V205H559Z" />
<glyph unicode="E" glyph-name="E" horiz-adv-x="889" d="M842 0H63V1434L371 1638H842V1126H555V1434H350V922H698L555 717H350V205H555V512H842V0Z" />
<glyph unicode="F" glyph-name="F" horiz-adv-x="856" d="M840 1126H553V1434H348V922H696L553 717H348V0H61V1434L369 1638H840V1126Z" />
<glyph unicode="G" glyph-name="G" horiz-adv-x="901" d="M840 205L532 0H61V1434L369 1638H840V1126H553V1434H348V205H553V717H471V819H840V205Z" />
<glyph unicode="H" glyph-name="H" horiz-adv-x="911" d="M844 0H557V717H352V0H66V1638H352V922H557V1638H844V0Z" />
<glyph unicode="I" glyph-name="I" horiz-adv-x="422" d="M352 0H66V1638H352V0Z" />
<glyph unicode="J" glyph-name="J" horiz-adv-x="852" d="M788 205L481 0H317L10 205V563L297 369V205H502V1638H788V205Z" />
<glyph unicode="K" glyph-name="K" horiz-adv-x="905" d="M844 0H557V573L455 676L352 573V0H66V1638H352V860L557 1065V1638H844V1065L598 819L844 573V0Z" />
<glyph unicode="L" glyph-name="L" horiz-adv-x="856" d="M840 0H369L61 205V1638H348V205H553V369L840 563V0Z" />
<glyph unicode="M" glyph-name="M" horiz-adv-x="1397" d="M1333 0H1047V1434H842V0L555 195V1434H350V0H63V1434L371 1638H1026L1333 1434V0Z" />
<glyph unicode="N" glyph-name="N" horiz-adv-x="907" d="M844 0H557V1434H352V0H66V1638H537L844 1434V0Z" />
<glyph unicode="O" glyph-name="O" horiz-adv-x="893" d="M836 205L528 0H365L57 205V1434L365 1638H528L836 1434V205ZM549 205V1434H344V205H549Z" />
<glyph unicode="P" glyph-name="P" horiz-adv-x="858" d="M838 922L530 717H346V0H59V1434L367 1638H838V922ZM551 922V1434H346V922H551Z" />
<glyph unicode="Q" glyph-name="Q" horiz-adv-x="944" d="M897 0H365L57 205V1434L365 1638H528L836 1434V307L733 205H897V0ZM549 205V1434H344V205H549Z" />
<glyph unicode="R" glyph-name="R" horiz-adv-x="899" d="M838 0H551V717H346V0H59V1434L367 1638H838V963L643 819L838 676V0ZM551 922V1434H346V922H551Z" />
<glyph unicode="S" glyph-name="S" horiz-adv-x="897" d="M838 205L530 0H59V512H346V205H551V717H59V1434L367 1638H838V1126H551V1434H346V922H838V205Z" />
<glyph unicode="T" glyph-name="T" horiz-adv-x="1065" d="M1044 1638L901 1434H676V0H389V1434H20L164 1638H1044Z" />
<glyph unicode="U" glyph-name="U" horiz-adv-x="903" d="M842 205L535 0H63V1638H350V205H555V1638H842V205Z" />
<glyph unicode="V" glyph-name="V" horiz-adv-x="881" d="M829 389L440 0L51 389V1638H338V389L440 287L543 389V1638H829V389Z" />
<glyph unicode="W" glyph-name="W" horiz-adv-x="1386" d="M1327 205L1020 0H365L57 205V1444L344 1638V205H549V1434L836 1239V205H1040V1638L1327 1444V205Z" />
<glyph unicode="X" glyph-name="X" horiz-adv-x="897" d="M840 0H553V573L451 676L348 573V0H61V573L307 819L61 1065V1638H348V1065L451 963L553 1065V1638H840V1065L594 819L840 573V0Z" />
<glyph unicode="Y" glyph-name="Y" horiz-adv-x="856" d="M817 860L571 614V0H285V614L39 860V1638H326V860L428 758L530 860V1638H817V860Z" />
<glyph unicode="Z" glyph-name="Z" horiz-adv-x="858" d="M817 0H346L39 205L530 1434H39V1638H510L817 1434L326 205H817V0Z" />
<glyph unicode="[" glyph-name="bracketleft" horiz-adv-x="788" d="M676 -205H184V1843H676V1638H471V0H676V-205Z" />
<glyph unicode="\" glyph-name="backslash" horiz-adv-x="1026" d="M997 -94L727 -193L27 1733L297 1831L997 -94Z" />
<glyph unicode="]" glyph-name="bracketright" horiz-adv-x="791" d="M600 -205H109V0H313V1638H109V1843H600V-205Z" />
<glyph unicode="^" glyph-name="asciicircum" horiz-adv-x="1006" d="M911 819H707L502 1419L297 819H92L379 1638H625L911 819Z" />
<glyph unicode="_" glyph-name="underscore" horiz-adv-x="1024" d="M1024 0H0V164H1024V0Z" />
<glyph unicode="`" glyph-name="grave" horiz-adv-x="401" d="M289 1741H186L43 1946H207L289 1741Z" />
<glyph unicode="a" glyph-name="a" horiz-adv-x="885" d="M827 205L520 0H49V512L356 717H541V1024H336V922H49V1024L356 1229H827V205ZM541 205V512H336V205H541Z" />
<glyph unicode="b" glyph-name="b" horiz-adv-x="872" d="M840 205L532 0H61V1638H348V1229H840V205ZM553 205V1024H348V205H553Z" />
<glyph unicode="c" glyph-name="c" horiz-adv-x="883" d="M836 205L528 0H57V1024L365 1229H836V922H549V1024H344V205H549V307H836V205Z" />
<glyph unicode="d" glyph-name="d" horiz-adv-x="868" d="M809 205L502 0H31V1024L338 1229H522V1638H809V205ZM522 205V1024H317V205H522Z" />
<glyph unicode="e" glyph-name="e" horiz-adv-x="885" d="M836 205L528 0H57V1024L365 1229H836V717L528 512H344V205H549V307H836V205ZM549 717V1024H344V717H549Z" />
<glyph unicode="f" glyph-name="f" horiz-adv-x="662" d="M651 1638L508 1434H344V922H549L406 717H344V0H57V1434L365 1638H651Z" />
<glyph unicode="g" glyph-name="g" horiz-adv-x="893" d="M834 -205L526 -410H55V-205H547V0H55V1024L362 1229H834V-205ZM547 205V1024H342V205H547Z" />
<glyph unicode="h" glyph-name="h" horiz-adv-x="874" d="M840 0H553V1024H348V0H61V1638H348V1229H840V0Z" />
<glyph unicode="i" glyph-name="i" horiz-adv-x="408" d="M346 1495Q346 1436 304 1394T203 1352Q143 1352 101 1394T59 1495Q59 1554 101 1596T203 1638Q262 1638 304 1596T346 1495ZM346 0H59V1229H346V0Z" />
<glyph unicode="j" glyph-name="j" horiz-adv-x="401" d="M342 1495Q342 1436 300 1394T199 1352Q139 1352 97 1394T55 1495Q55 1554 97 1596T199 1638Q258 1638 300 1596T342 1495ZM342 -410H55V1229H342V-410Z" />
<glyph unicode="k" glyph-name="k" horiz-adv-x="868" d="M840 0H553V369L451 471L348 369V0H61V1638H348V655L553 860V1229H840V860L594 614L840 369V0Z" />
<glyph unicode="l" glyph-name="l" horiz-adv-x="414" d="M348 0H61V1638H348V0Z" />
<glyph unicode="m" glyph-name="m" horiz-adv-x="1386" d="M1327 0H1040V1024H836V0L549 195V1024H344V0H57V1024L365 1229H1020L1327 1024V0Z" />
<glyph unicode="n" glyph-name="n" horiz-adv-x="897" d="M840 0H553V1024H348V0H61V1229H532L840 1024V0Z" />
<glyph unicode="o" glyph-name="o" horiz-adv-x="881" d="M829 205L522 0H358L51 205V1024L358 1229H522L829 1024V205ZM543 205V1024H338V205H543Z" />
<glyph unicode="p" glyph-name="p" horiz-adv-x="866" d="M836 205L528 0H344V-410H57V1024L365 1229H836V205ZM549 205V1024H344V205H549Z" />
<glyph unicode="q" glyph-name="q" horiz-adv-x="872" d="M809 -410H522V0H31V1024L338 1229H809V-410ZM522 205V1024H317V205H522Z" />
<glyph unicode="r" glyph-name="r" horiz-adv-x="852" d="M840 922H553V1024H348V0H61V1229H348V1147Q653 1229 655 1229H840V922Z" />
<glyph unicode="s" glyph-name="s" horiz-adv-x="887" d="M831 205L524 0H53V307H340V205H545V512H53V1024L360 1229H831V922H545V1024H340V717H831V205Z" />
<glyph unicode="t" glyph-name="t" horiz-adv-x="846" d="M831 1229L688 1024H565V0H279V1024H12L156 1229H279V1638H565V1229H831Z" />
<glyph unicode="u" glyph-name="u" horiz-adv-x="897" d="M840 205L532 0H61V1229H348V205H553V1229H840V205Z" />
<glyph unicode="v" glyph-name="v" horiz-adv-x="872" d="M825 389L436 0L47 389V1229H334V389L436 287L539 389V1229H825V389Z" />
<glyph unicode="w" glyph-name="w" horiz-adv-x="1380" d="M1325 205L1018 0H362L55 205V1034L342 1229V205H547V1024L834 829V205H1038V1229L1325 1034V205Z" />
<glyph unicode="x" glyph-name="x" horiz-adv-x="895" d="M840 0H553V369L451 471L348 369V0H61V369L307 614L61 860V1229H348V860L451 758L553 860V1229H840V860L594 614L840 369V0Z" />
<glyph unicode="y" glyph-name="y" horiz-adv-x="895" d="M836 -205L528 -410H57V-205H549V0H57V1229H344V205H549V1229H836V-205Z" />
<glyph unicode="z" glyph-name="z" horiz-adv-x="870" d="M823 0H352L45 205L537 1024H45V1229H516L823 1024L332 205H823V0Z" />
<glyph unicode="{" glyph-name="braceleft" horiz-adv-x="801" d="M676 -205H492L184 0V666L82 768V870L184 973V1638L492 1843H676V1638H471V922L369 819L471 717V0H676V-205Z" />
<glyph unicode="|" glyph-name="bar" horiz-adv-x="666" d="M471 -205H184V1843H471V-205Z" />
<glyph unicode="}" glyph-name="braceright" horiz-adv-x="801" d="M715 768L612 666V0L305 -205H121V0H326V717L428 819L326 922V1638H121V1843H305L612 1638V973L715 870V768Z" />
<glyph unicode="~" glyph-name="asciitilde" horiz-adv-x="1034" d="M903 963Q758 840 655 840Q586 840 514 932T373 1024Q270 1024 125 901V1147Q270 1270 373 1270Q442 1270 514 1178T655 1085Q758 1085 903 1208V963Z" />
</font>
</defs>
</svg>
