<?xml version="1.0" standalone="no"?>
<!DOCTYPE svg PUBLIC "-//W3C//DTD SVG 1.1//EN" "http://www.w3.org/Graphics/SVG/1.1/DTD/svg11.dtd" >
<svg xmlns="http://www.w3.org/2000/svg">
<metadata></metadata>
<defs>
<font id="BaarSophiaRegular" horiz-adv-x="1032" >
<font-face units-per-em="2048" ascent="1638" descent="-410" />
<missing-glyph horiz-adv-x="501" />
<glyph horiz-adv-x="0" />
<glyph horiz-adv-x="2048" />
<glyph unicode="&#xd;" horiz-adv-x="501" />
<glyph unicode=" "  horiz-adv-x="501" />
<glyph unicode="&#x09;" horiz-adv-x="501" />
<glyph unicode="&#xa0;" horiz-adv-x="501" />
<glyph unicode="!" horiz-adv-x="569" d="M223 180l6 6q117 0 191 4l6 -8q0 -61 2 -184l-4 -6q-102 -2 -195 -6l-4 6q2 84 -2 188zM246 1473l2 2q104 2 209 8q-60 -649 -60 -1030v-4q-74 -4 -139 -11l-2 4q2 188 2 464t-12 567z" />
<glyph unicode="&#x22;" horiz-adv-x="686" d="M94 1411q86 28 162 16q2 -10 4 -30v-2l-82 -557h-22zM350 1399v8q57 25 77.5 25t86.5 -2q4 -20 2 -25l-80 -555q-12 -4 -22 -4l-62 526q-2 18 -2 27z" />
<glyph unicode="#" horiz-adv-x="1224" d="M33 444l2 113l266 4l39 262l-260 -6v113l274 4l62 432l123 2l-64 -432l223 6l66 430l117 2l-60 -430l254 4l-2 -110l-266 -7l-39 -260l256 4l-2 -110l-270 -6l-66 -461l-121 -2l68 461l-225 -4l-68 -461l-123 -2l72 461zM422 565l227 4l37 260l-227 -4z" />
<glyph unicode="$" horiz-adv-x="880" d="M12 63q10 45 31 134l6 2q70 -55 182 -93l121 521q-160 109 -194 143q-98 98 -101 225q-4 188 142 277q123 74 319 63l29 154l6 4l86 2q-18 -59 -45 -170q100 -29 178 -70q-16 -74 -27 -125l-6 -2q-70 53 -168 93l-112 -482q174 -109 209 -141q104 -96 106 -253 t-117.5 -261t-294.5 -104q-27 0 -88 4l-36 -168q-49 2 -82 0q16 55 45 176q-121 33 -189 71zM207 1018q0 -76 63 -141q23 -23 117 -97l113 455q-100 -2 -187 -51q-109 -61 -106 -166zM303 88q322 14 318 252q-2 86 -70 154q-35 35 -133 96z" />
<glyph unicode="%" horiz-adv-x="1789" d="M119 858q-2 205 55 338q78 184 258 184q260 0 266 -409q4 -205 -53 -336q-78 -178 -260 -178q-260 0 -266 401zM250 848q4 -293 145 -293q180 0 174 463q-4 264 -141 264q-106 0 -152 -166q-29 -109 -26 -268zM528 -14q100 250 260 678.5t252 703.5l11 10l118 2 q-248 -643 -510 -1386l-8 -8h-123zM999 381q-4 211 56 344q78 182 264 182q256 0 262 -401q2 -205 -55 -340q-80 -184 -258 -184q-263 0 -269 399zM1130 373q6 -291 146 -291q180 0 174 448q-4 279 -143 279q-104 0 -150 -168q-29 -111 -27 -268z" />
<glyph unicode="&#x26;" horiz-adv-x="1107" d="M29 289q-2 139 88 246q47 55 194 161q-137 199 -139 332t86 221t217 88t207 -71.5t78 -189.5t-88 -224q-53 -63 -174 -154l241 -338q86 152 131 281h4q45 -68 87 -121q-49 -115 -152 -260q53 -74 211 -254l-6 -6h-215l-11 4q-37 61 -81 135q-193 -164 -361 -164 q-139 0 -227 87.5t-90 226.5zM188.5 310q-0.5 -91 54 -151.5t151.5 -60.5t249 131l-264 377q-90 -72 -140 -138.5t-50.5 -157.5zM320 1039q1 -88 116 -251q88 68 137 130.5t47.5 141.5t-41.5 128t-112 49t-110 -55t-37 -143z" />
<glyph unicode="'" horiz-adv-x="385" d="M-10 961q66 274 104 509l6 7q109 8 189 18q-121 -336 -170 -520l-6 -6q-70 -4 -123 -8z" />
<glyph unicode="(" horiz-adv-x="716" d="M127 483q-4 283 110.5 522.5t329.5 477.5q4 2 121 8q-393 -453 -385 -1020q8 -508 346 -891l-108 -8l-11 6q-395 403 -403 905z" />
<glyph unicode=")" horiz-adv-x="737" d="M-14 -428q391 451 383 1022q-8 504 -344 887l108 8l10 -4q403 -412 404 -905v-35q0 -488 -441 -963l-12 -8z" />
<glyph unicode="*" horiz-adv-x="804" d="M-8 952q92 45 293 150l-291 135q29 37 65 115l13 2q86 -72 227 -187q-16 207 -33 328q55 2 148 10q-18 -137 -41 -338q129 109 227 199h14q20 -35 58 -102l-6 -17q-123 -70 -263 -151l265 -123l-62 -121l-16 -2q-111 100 -221 197q16 -174 34 -332l-4 -6q-68 0 -145 -4 q20 137 51 335q-147 -121 -239 -200h-13q-33 63 -61 112z" />
<glyph unicode="+" horiz-adv-x="1224" d="M80 500l2 129l412 -6l8 485l131 4l-8 -483h415v-131h-415l-9 -508l-131 -4l7 508z" />
<glyph unicode="," horiz-adv-x="415" d="M61 -301q76 309 105 512l6 6q104 4 188 12q-82 -233 -167 -514l-7 -10q-59 0 -125 -6z" />
<glyph unicode="-" horiz-adv-x="821" d="M119 453q2 6 6 182l4 4q41 2 120 0t198.5 -2t248.5 10l-6 -186h-137q-264 0 -434 -8z" />
<glyph unicode="." horiz-adv-x="483" d="M125 -4q4 119 0 233l6 7q113 2 193 6l6 -6q-4 -128 -2 -228l-4 -6l-197 -8z" />
<glyph unicode="/" horiz-adv-x="839" d="M-43 -283q51 117 277.5 681t416.5 1068l8 9l148 4q-451 -1090 -692 -1751l-11 -13q-96 2 -147 2z" />
<glyph unicode="0" horiz-adv-x="1122" d="M39 637q-23 770 502 770q240 0 354 -211q88 -162 96 -428q25 -791 -493 -791q-439 1 -459 660zM229 663.5q6 -221.5 54 -356.5q74 -205 227 -205q311 0 293 652q-17 532 -273 532q-180 0 -254 -233q-53 -168 -47 -389.5z" />
<glyph unicode="1" horiz-adv-x="729" d="M90 1217q6 72 8 124l4 5q186 29 381 63l2 -2q-12 -201 -12 -705.5t12 -697.5q-86 -2 -200 -12q12 784 6 1268q-115 -25 -197 -46z" />
<glyph unicode="2" horiz-adv-x="1058" d="M59 76l2 24q244 297 484 598q70 88 104.5 153t32.5 155q-4 252 -223 251q-176 0 -332 -178l-8 6q2 59 2 177q12 18 53 47q145 100 323.5 100t272.5 -103.5t97 -264t-90 -298t-277 -368t-189 -234.5q293 4 611 27l2 -4q-2 -68 -4 -152l-9 -10l-559 10q-90 0 -262 -10l-6 2 z" />
<glyph unicode="3" horiz-adv-x="1083" d="M57 66q4 66 11 155l10 6q137 -121 296 -121t259 88.5t98 231.5t-85 219t-220 76q-59 0 -143 -31l-37 53q133 158 225.5 271.5t167.5 228.5q-129 -2 -537 -22q4 59 4 139l5 6q307 -6 482 -6t257 4l31 -68q-57 -84 -182.5 -236.5t-178.5 -221.5q176 -29 283 -123 q123 -104 125 -275q2 -90 -39 -180q-127 -281 -508 -280q-186 0 -320 81z" />
<glyph unicode="4" horiz-adv-x="1083" d="M16 360v72q0 51 28 99.5t56 93.5l86 139q135 221 351 590l8 8q100 2 276 8q-16 -453 -16 -862q96 2 182 8q-4 -41 -12 -137h-60q-14 0 -114 -2q-4 -162 -2 -373l-2 -4q-94 -2 -179 -8l-2 4q6 150 11 379zM195 494l438 8l12 729z" />
<glyph unicode="5" horiz-adv-x="1083" d="M72 47l10 156l8 4q125 -94 281 -94t261 95t103 251t-90 240.5t-239 84.5q-72 0 -114 -16t-122 -66l-47 43q18 193 41 598l6 7q193 4 674 18l-6 -139l-4 -4q-90 2 -144.5 2t-363.5 -10l-25 -310q98 14 166 15q203 0 330 -116t129 -319q4 -233 -162 -369t-404 -136 q-162 0 -284 61z" />
<glyph unicode="6" horiz-adv-x="1079" d="M57 575q-6 354 123 564q156 254 492 254q129 0 205 -33q-4 -45 -25 -137h-10q-78 47 -152 47q-219 0 -328 -164q-84 -127 -124 -401q184 170 359 169.5t277.5 -116t105.5 -308t-122 -330.5t-330 -138q-242 0 -364 184q-102 154 -107 409zM256 514q0 -160 55 -264 q72 -135 210 -135t209 96t69 227t-64.5 214t-185.5 83q-184 0 -293 -207v-14z" />
<glyph unicode="7" horiz-adv-x="915" d="M49 1214q0 74 4 142l6 4h9l381 -4q139 0 350 10l8 -4q35 -80 35 -86l-258 -627q-150 -367 -224 -641l-8 -6q-94 -2 -217 -10q281 627 496 1225q-53 0 -259 2t-317 -11z" />
<glyph unicode="8" horiz-adv-x="1083" d="M39 367q-2 133 70 225q51 66 172 141q-176 135 -179.5 312t148.5 274q121 78 292 78t282.5 -86t113.5 -247t-205 -314q117 -68 172 -136q66 -86 68 -204q2 -211 -160 -330q-137 -100 -329.5 -100t-317.5 100t-127 287zM229 389q2 -129 71 -206t193.5 -77t206.5 83t82 205 t-70.5 200t-195.5 78t-207 -77t-80 -206zM272 1026.5q0 -108.5 62.5 -170t170.5 -61.5t182.5 64.5t72.5 170.5t-65 172t-169.5 66t-180 -66.5t-73.5 -175z" />
<glyph unicode="9" horiz-adv-x="1079" d="M43 911q-4 211 125 349.5t338 138.5q451 0 459 -606q4 -340 -121 -553q-154 -258 -473 -258q-130 0 -267 53l-2 4q4 70 7 147l8 7q113 -88 241 -89q367 0 428 578q-166 -164 -352 -164t-287.5 108.5t-103.5 284.5zM223 946q2 -129 64 -214t180 -85q209 0 299 207 q14 187 -70 310q-69 104 -197 104t-203 -96.5t-73 -225.5z" />
<glyph unicode=":" horiz-adv-x="493" d="M168 2v207l4 8q106 0 190 4l7 -8q0 -35 2 -207l-4 -4q-102 -2 -195 -6zM168 809v209l4 6h27q59 0 166 4l4 -8q0 -90 2 -207l-4 -4l-195 -6z" />
<glyph unicode=";" horiz-adv-x="495" d="M104 -299q76 315 99 489l4 5q104 4 190 12q-84 -223 -168 -492l-6 -8q-59 0 -119 -6zM219 809v209l6 6h45q53 0 146 4l6 -8q-2 -55 -2 -106.5t2 -98.5l-4 -6l-197 -4z" />
<glyph unicode="&#x3c;" horiz-adv-x="1392" d="M63 596l3 141l1196 639v-129l-1069 -577l1050 -537v-129z" />
<glyph unicode="=" horiz-adv-x="1226" d="M156 313l2 129l850 -4l-2 -129zM162 659l2 132l848 -5l-2 -131z" />
<glyph unicode="&#x3e;" horiz-adv-x="1402" d="M68 -16l2 129l1069 579l-1053 537l2 129l1178 -594l-2 -139z" />
<glyph unicode="?" horiz-adv-x="856" d="M94 1225l12 157l5 7q125 86 280.5 86t250.5 -92.5t97 -251.5t-128 -385t-146 -347l-4 -6q-86 -2 -154 -6q14 102 41 167.5t90.5 174.5t94 186.5t29.5 178t-57 172.5t-168 71.5t-243 -112.5zM274 -6q4 141 2 196l7 9q113 4 192 12l6 -6q-4 -103 -4 -195l-4 -8 q-106 -6 -194 -12z" />
<glyph unicode="@" horiz-adv-x="1599" d="M98 485q-6 336 210 577t550 241q240 0 390.5 -143.5t154.5 -371t-94 -413.5q-113 -213 -287 -213q-90 0 -162 127q-96 -119 -218 -119t-185 86t-66 205q-2 180 82 325q100 170 270 170q115 0 205 -120l19 92l10 8l133 -4q-29 -57 -69 -282.5t-39 -308.5t47 -83 q70 0 143 125q109 186 104.5 390t-123 321.5t-321.5 117.5q-285 0 -470 -223t-181 -496.5t166.5 -428t420.5 -154.5q293 0 572 264l12 -2l49 -66q-293 -287 -608 -286.5t-513 182.5t-202 483zM535 469q2 -201 133 -201q156 0 219 281q14 63 14 78q0 80 -31 143 q-36 80 -108 80q-104 0 -166.5 -124t-60.5 -257z" />
<glyph unicode="A" horiz-adv-x="1136" d="M-16 -6l225 674q123 375 211 682l8 8q145 6 256 14l6 -6q107 -468 365 -1354l-8 -8l-191 -10l-6 6q-33 145 -102 434q-217 -2 -467 -8q-74 -254 -115 -416l-6 -8q-90 0 -176 -8zM317 545q182 2 400 8l-178 672z" />
<glyph unicode="B" horiz-adv-x="1155" d="M100 -6q2 78 15 651l8 432q0 104 -8 285q227 10 401 10q420 0 420 -307q0 -213 -260 -334q319 -76 319 -325q0 -172 -110 -277.5t-285 -124.5q-111 -12 -201 -12h-174q-84 2 -125 2zM289 373q0 -84 2 -252q211 4 233 6q283 27 283 285q0 239 -312 239h-3q-117 0 -117 -2 h2q-13 29 -23 111h37q127 0 234 59q135 76 135 211q0 223 -264 223h-56q-82 0 -141 -4z" />
<glyph unicode="C" horiz-adv-x="1144" d="M46 664v27q0 299 159 504q166 214 495 214q139 0 287 -55q4 -74 10 -217l-4 -4l-100 18l-33 104q-102 39 -164 39q-231 0 -354 -192q-104 -162 -105 -417q0 -16 1 -32q4 -231 102 -381q117 -174 336 -174q162 1 340 148q-8 -109 -12 -174l-5 -6q-160 -92 -356 -93 q-289 0 -439 186.5t-158 504.5z" />
<glyph unicode="D" horiz-adv-x="1314" d="M100 -8q20 398 20 841q0 164 -3 334q0 55 -13 189l11 6h49l371 14q258 0 389 -92q217 -154 223 -524v-13q0 -175 -53 -323q-144 -393 -609 -420zM289 123q252 2 362 45q176 68 254 276q51 138 51 318v14q-6 481 -450 481q-49 0 -199 -8q-18 -453 -18 -1013v-113z" />
<glyph unicode="E" horiz-adv-x="1003" d="M100 -6q18 324 21 545l2 237q1 127 1 234q0 213 -5 344l4 2q238 0 715 6q-13 -136 -15 -141l-483 14h-27q-10 -205 -14 -455h481l-12 -139l-428 10h-43q-6 -262 -6 -522h532q-4 -45 -8 -131l-4 -4q-57 -2 -123 -2z" />
<glyph unicode="F" horiz-adv-x="884" d="M100 -6q12 193 21 631l2 125q2 123 2 245q0 183 -4 365q39 1 95 1t128 -1l223 -2q136 0 240 4q-6 -57 -12 -139l-4 -4l-437 18h-37q-6 -158 -14 -481q35 0 78 -1q130 0 340 5q-11 -128 -16 -137l-379 8h-23q-4 -144 -4 -283q0 -174 6 -342q-41 -2 -205 -12z" />
<glyph unicode="G" horiz-adv-x="1304" d="M23 670v13q0 312 178 517q182 209 514 209q197 0 360 -78q-12 -86 -20 -164q-168 115 -338 115q-258 0 -387 -186q-109 -156 -109 -399v-17q4 -254 113 -408q125 -176 350 -176q98 0 227 43q7 299 7 355v10l-3 33l-122 -2l28 112l10 8q113 -4 128.5 -4t146.5 8 q-16 -236 -16 -527v-66l-3 -3q-205 -90 -411 -90q-303 0 -476 187.5t-177 509.5z" />
<glyph unicode="H" horiz-adv-x="1306" d="M90 -8q18 436 19 680v133l-3 549q47 2 195 12q-10 -336 -12 -557h59q61 -2 113 -2h172q154 0 274 6q1 106 1 194q0 262 -5 351q91 4 193 10q-22 -476 -22 -856q0 -289 13 -522q-74 -2 -200 -13q8 231 18 701h-311q-176 0 -309 -4q-4 -180 -4 -359.5t8 -312.5 q-94 -2 -199 -10z" />
<glyph unicode="I" horiz-adv-x="503" d="M35 1237l26 115l13 10l258 6q-21 -459 -21 -874q0 -252 8 -488q-82 -4 -194 -12q18 417 18 894q0 172 -2 351z" />
<glyph unicode="J" horiz-adv-x="616" d="M-23 0q0 45 3 135q51 -14 88 -14q121 0 170 108q26 57 26 930v66v10l-145 -4l26 117l13 8l118 -2q42 0 183 10q-8 -190 -21 -961q-4 -207 -67 -301q-79 -114 -272 -114h-3q-59 0 -119 12z" />
<glyph unicode="K" horiz-adv-x="1116" d="M100 -6q23 522 23 951q0 118 -2 229q-2 102 -10 188q63 0 202 10q-10 -201 -16 -629q92 109 326 408q45 66 147 207q74 2 191 8q-154 -199 -463 -614q227 -346 565 -740l-2 -6q-147 -4 -227 -14l-13 8q-176 240 -526 727q-1 -166 -1 -301q0 -271 5 -420l-4 -2 q-100 -2 -195 -10z" />
<glyph unicode="L" horiz-adv-x="882" d="M104 2q24 645 24 1000q0 260 -13 364q74 4 213 10q-33 -510 -33 -1233q215 6 506 21q-2 -54 -8 -158l-5 -4h-684z" />
<glyph unicode="M" horiz-adv-x="1572" d="M35 -10q12 111 37.5 543.5t48.5 818.5l12 8q111 2 238 10l6 -6q47 -156 154.5 -449.5t160.5 -449.5q66 174 211 505.5t162 379.5l6 6q66 2 248 12l8 -438q2 -117 16.5 -433.5t14.5 -488.5v-2q-70 -2 -191 -10l-2 1182q-217 -487 -442 -979q-12 0 -94 -6l-4 6 q-23 94 -201 553l-174 444q-18 -389 -47 -1194l-2 -4q-88 -2 -166 -8z" />
<glyph unicode="N" horiz-adv-x="1318" d="M100 -6q18 418 18 847q0 48 1 91q0 347 -4 424l10 6q49 0 221 12l14 -10l596 -1174v102q0 380 -12 1064l2 2q70 2 166 10q-19 -698 -19 -1151q0 -113 1 -211q-76 0 -220 -12l-10 10q-94 193 -297 577t-313 605q0 -383 16 -1180l-2 -2q-82 -2 -168 -10z" />
<glyph unicode="O" horiz-adv-x="1376" d="M39 666v25q0 290 131 487q160 233 469 233q276 0 422 -205q127 -178 135 -484v-34q0 -284 -129 -477q-156 -236 -467 -236q-279 0 -426 205q-129 178 -135 486zM238 666q4 -225 75 -371q96 -193 306 -193t313 224q72 160 72 389v24q-13 547 -369 547q-397 0 -397 -582 v-38z" />
<glyph unicode="P" horiz-adv-x="1103" d="M131 -6q6 145 12 545l2 125q2 126 2 247q0 242 -8 461l418 19q430 0 434 -385v-8q0 -116 -55 -216q-131 -236 -533 -239l-45 116q150 6 232 31q221 66 221 299v8q-4 272 -291 273q-72 0 -186 -13q-12 -434 -12 -737t6 -514l-2 -4q-100 -2 -195 -8z" />
<glyph unicode="Q" horiz-adv-x="1388" d="M45 659v36q0 301 129 491q158 229 469 229q272 0 422 -198q133 -176 139 -441v-36q0 -242 -76 -400q-81 -170 -280 -313q272 -105 438 -144q-33 -61 -72 -139l-10 -6q-66 29 -305 129t-278 117q-23 2 -80 6q-248 25 -379 229q-111 174 -117 440zM242 677q6 -230 80 -376 q98 -190 294 -190q219 0 320 219q72 156 72 366v33q-6 231 -80 375q-98 186 -306 186t-309 -217q-72 -153 -72 -361q0 -17 1 -35z" />
<glyph unicode="R" horiz-adv-x="1114" d="M117 -6q119 10 196 12q-8 176 -8 482.5t10 771.5q119 4 168 4q295 0 297 -250q0 -55 -22.5 -125t-57.5 -105q-66 -63 -323 -100l45 -96q133 -197 389 -600l10 -6q68 6 217 12q-47 55 -164 209q-45 63 -266 403q145 33 250 162q103 127 103 271v5q-6 344 -424 345 l-412 -15q9 -254 9 -488q0 -78 -1 -155l-2 -129q-2 -109 -14 -608z" />
<glyph unicode="S" horiz-adv-x="997" d="M39 51q8 68 16 164l8 4q152 -113 290.5 -113t222.5 66q83 64 83 182v6q-2 147 -157 230q-29 16 -289 143q-156 103 -158 293v6q-1 184 129 280q132 96 326 97q129 0 297 -55l2 -4q-8 -80 -14 -154l-7 -2q-156 86 -276.5 86t-200.5 -57q-78 -56 -78 -161v-5 q2 -133 162 -213q37 -18 297 -144q160 -106 163 -302v-9q0 -190 -131 -302q-134 -114 -332.5 -114t-352.5 78z" />
<glyph unicode="T" horiz-adv-x="913" d="M-25 1225q0 115 9 133q97 -1 228 -1q261 0 654 5q-8 -86 -8 -133l-4 -4h-63q-127 0 -279 -2q-14 -449 -14 -743t4 -474q-74 0 -205 -10q24 495 24 969q0 138 -2 274q-188 -6 -344 -14z" />
<glyph unicode="U" horiz-adv-x="1304" d="M117 432q6 264 8 795q-2 61 -6 125l8 8h25q76 0 172 8q-19 -641 -19 -891q6 -377 293 -377q293 0 320 369q2 33 6 341q1 103 1 198q0 191 -5 354q41 2 161 12q-8 -209 -12 -844q-2 -272 -115 -414.5t-379 -142.5q-174 0 -298.5 85t-151.5 251q-6 43 -8 123z" />
<glyph unicode="V" horiz-adv-x="1042" d="M-49 1356l12 6h23q51 0 168 8l4 -6q80 -375 301 -1196q121 385 346 1182l6 8q88 2 170 8q-102 -344 -416 -1356q-47 0 -250 -12l-6 8l-321 1213q-10 39 -37 137z" />
<glyph unicode="W" horiz-adv-x="1609" d="M-31 1356l4 4q111 4 203 10l4 -8q18 -133 74 -483l123 -711q96 371 268 1096l6 6q51 2 195 10l6 -6q8 -139 209 -1102l164 743q29 131 82 428l6 9q84 2 190 10q-92 -325 -305 -1352l-8 -8q-135 -4 -264 -12l-6 8q-25 199 -85 532.5t-90 511.5q-31 -119 -98 -389l-88 -368 q-20 -76 -70 -273l-6 -10q-63 -2 -239 -10l-6 8l-140 748q-39 215 -129 608z" />
<glyph unicode="X" horiz-adv-x="995" d="M-49 -4q139 236 411 717q-174 350 -339 647q135 10 202 22l8 -6q8 -18 240 -508q254 485 264 494q64 -2 187 -2q-127 -205 -377 -631l360 -717l-200 -18l-11 6q-84 186 -260 561q-156 -283 -282 -547l-13 -10q-94 -2 -190 -8z" />
<glyph unicode="Y" horiz-adv-x="991" d="M-35 1360q68 0 203 6l8 -4q35 -92 281 -637q209 414 307 635l8 8q18 -1 43 -1q50 0 125 3q-139 -258 -408 -786q-4 -174 -4 -318q0 -143 4 -260l-4 -2q-23 0 -192 -14q14 288 14 437q0 99 -6 136q-203 451 -379 797z" />
<glyph unicode="Z" horiz-adv-x="958" d="M-45 78q123 201 428 725l242 434q-72 2 -137.5 2t-182.5 -9q-96 -7 -154 -7h-24l-70 2q10 59 17 129l6 6q94 -5 235 -5q70 0 152 1l387 4l20 -60q-154 -231 -673 -1171q23 -1 50 -1q103 0 269 12q197 14 298 14h13q-2 -10 -20 -146l-6 -4q-102 5 -252 5q-94 0 -207 -2 q-209 -4 -315 -4q-42 0 -68 1z" />
<glyph unicode="[" horiz-adv-x="567" d="M141 -428q12 180 19 467q20 1098 12 1423h37q90 1 326 11q-4 -45 -5 -107h-176q-39 -596 -37 -1688q111 4 191 11q-4 -47 -6 -111q-20 0 -361 -6z" />
<glyph unicode="\" horiz-adv-x="839" d="M-14 1481l147 2l10 -8q174 -538 643 -1741l-6 -4l-143 -2l-8 8q-309 901 -643 1745z" />
<glyph unicode="]" horiz-adv-x="579" d="M-2 -428q4 45 6 106h59q43 0 130 3q25 360 26 841q0 6 -4 844q-109 -2 -188 -8q4 47 6 108q20 1 360 9q-14 -164 -26 -876t-7 -1017h-34q-129 0 -328 -10z" />
<glyph unicode="^" horiz-adv-x="1343" d="M203 647l329 725l132 2l294 -710l-145 -5l-221 545l-248 -555z" />
<glyph unicode="_" horiz-adv-x="917" d="M-16 -150l913 -2v-102l-913 2v102z" />
<glyph unicode="`" horiz-adv-x="862" d="M270 1456l199 -4l6 -4q12 -63 84 -307l-8 -6q-58 1 -111 -5q-102 205 -170 326z" />
<glyph unicode="a" d="M37 432v28q0 248 133 403q141 163 405 163q131 0 183 -27q78 -39 82 -153q0 -23 -2 -180l-4 -240l-3 -438q-45 2 -174 86q-137 -98 -247 -99q-176 0 -279 146q-88 125 -94 311zM211 442q4 -133 55 -221q63 -109 177 -109h1q116 0 218 101q6 397 6 541v57q0 37 -28 63.5 t-65 28.5q-12 1 -24 1q-175 0 -264 -136q-76 -116 -76 -299v-27z" />
<glyph unicode="b" horiz-adv-x="1021" d="M78 88q23 540 23 908q0 276 -13 456l188 45l3 -2l-19 -571q168 96 279 96q180 0 280 -141q92 -125 94 -320v-8q0 -189 -95 -337q-97 -150 -286 -202q-92 -24 -183 -24t-111.5 5t-81 41t-78.5 54zM250 117q66 -10 108 -11q188 0 286 130q96 127 95 315v8 q-2 133 -68.5 235.5t-191.5 102.5q-94 0 -217 -86z" />
<glyph unicode="c" horiz-adv-x="829" d="M27 475v18q0 208 130 372q136 171 363 171q125 0 213 -37q-6 -78 -10 -137l-6 -2q-78 53 -174 53q-162 0 -253 -136q-87 -130 -87 -283v-14q4 -161 69 -259q76 -119 208.5 -119t250.5 107q-8 -96 -10 -154q-88 -80 -278.5 -80t-300 140.5t-115.5 359.5z" />
<glyph unicode="d" horiz-adv-x="1071" d="M31 444v21q1 255 145 405q150 156 420 156q47 0 102 -4q1 50 1 97q0 175 -9 325q74 16 189 47q-23 -486 -23 -878t14 -599l-4 -6q-41 2 -98 29l-94 43q-143 -98 -258 -98q-182 0 -281.5 136t-103.5 326zM207 453q1 -131 65 -233q63 -102 184 -102h1q121 0 229 101 q6 309 6 686q-69 4 -96 4q-199 0 -296 -126q-93 -121 -93 -314v-16z" />
<glyph unicode="e" horiz-adv-x="970" d="M43 466v25q0 213 94 367q119 195 346 195q143 0 248 -90q94 -84 137 -228q-16 -33 -63 -88q-195 -57 -586 -170q23 -377 309 -377q152 0 295 129q-6 -72 -12 -163q-35 -41 -136 -66t-171 -25q-215 0 -335 130.5t-126 360.5zM209 610l483 129q-104 205 -219 205 q-190 0 -264 -334z" />
<glyph unicode="f" horiz-adv-x="634" d="M31 868q4 43 8 107l10 10h105q8 401 161 524q98 80 193 80q38 0 67 -2q-4 -20 -8 -112h-8q-139 0 -203 -117q-29 -53 -32 -136q-3 -53 -3 -130q0 -45 1 -97q78 2 231 11l-10 -125q-35 0 -221 -2q-2 -174 -2 -329q0 -309 8 -540q-14 0 -191 -16q18 338 21 876l-123 -6z " />
<glyph unicode="g" d="M37 432v28q0 249 133 403q141 163 405 163q139 0 193 -31q71 -40 71 -147l-1 -324q0 -213 -7 -510q-4 -174 -104 -293q-37 -45 -110.5 -80.5t-141.5 -37.5h-18q-63 0 -155 12q-104 14 -157 41l7 174q53 -41 135 -69.5t138 -28.5t89 12q158 60 158 317v13 q-135 -98 -262 -99q-176 0 -279 146q-88 125 -94 311zM211 442q4 -133 55 -221q63 -109 180 -109h2q118 1 220 101q2 133 2 282.5t-2 315.5q0 37 -28 63.5t-65 28.5q-12 1 -24 1q-175 0 -264 -136q-76 -116 -76 -299v-27z" />
<glyph unicode="h" horiz-adv-x="1105" d="M106 2q10 264 19 791l4 409q-2 131 -8 242q76 16 194 47q-16 -225 -22 -606q213 137 344 137q266 0 270 -309q1 -66 1 -135q0 -273 -19 -578q-8 -131 -158 -154l8 146q7 119 7 243q0 208 -19 431q-18 225 -170 225q-109 0 -262 -123q-4 -221 -4 -410q0 -188 4 -348 q-63 -2 -189 -8z" />
<glyph unicode="i" horiz-adv-x="491" d="M115 -4q21 358 21 621q0 222 -15 376q109 23 186 43l4 -2q-20 -350 -20 -602t6 -426q-100 -4 -182 -10zM164 1214q16 84 39 256q59 2 178 11l-86 -234l-12 -12q-39 -8 -119 -21z" />
<glyph unicode="j" horiz-adv-x="491" d="M-23 -330q98 31 136 105q29 53 34 170q12 224 12 468q0 68 -1 139q-4 319 -13 447q87 14 193 39q-25 -338 -25 -819v-41q2 -35 2 -55v-94q0 -147 -35.5 -246t-144.5 -160q-18 -10 -135 -35q-6 25 -23 82zM166 1217q16 84 39 251q59 2 178 11l-86 -230l-12 -12 q-39 -8 -119 -20z" />
<glyph unicode="k" horiz-adv-x="933" d="M104 -8q20 517 20 935q0 279 -9 515l2 4q49 10 184 43q-10 -293 -20 -875q41 45 337 404l183 10q-195 -240 -338 -424q246 -395 428 -551l-2 -6q-61 -16 -184 -57l-15 6q-186 256 -411 594q0 -375 4 -580z" />
<glyph unicode="l" horiz-adv-x="456" d="M102 1448q87 18 187 43q-6 -100 -10 -643q-1 -136 -1 -256q0 -362 9 -586q-59 -2 -181 -10q11 449 11 793q0 401 -15 659z" />
<glyph unicode="m" horiz-adv-x="1644" d="M78 -8q15 280 15 518q0 54 -1 104q-4 280 -12 377l12 6q39 0 81 -20t89 -41q149 108 325 108h3q133 0 223 -141q176 133 354 133q262 0 263 -301l-3 -729q-68 -2 -180 -10q15 193 15 523v114q-2 264 -183 264q-127 0 -239 -94q4 -75 3 -201q0 -84 -1 -190q-1 -89 -1 -164 q0 -149 5 -242q-41 -2 -187 -12q17 343 17 570v65q-4 280 -163 280h-1q-111 0 -250 -116q-4 -268 -4 -465t4 -324q-74 -2 -184 -12z" />
<glyph unicode="n" horiz-adv-x="1091" d="M98 989q12 8 35 8t66 -18l84 -39q139 98 346 98q254 0 258 -303q1 -32 1 -75q0 -64 -2 -151q-2 -106 -2 -199q0 -171 7 -298l-2 -2q-98 -4 -178 -10l-2 2q0 31 6 244q5 183 5 316v43q-2 302 -173 302q-129 0 -262 -114q-4 -207 -4 -406.5t6 -376.5l-2 -2 q-100 -4 -185 -12q11 326 11 520q-1 48 -1 89q-4 201 -12 384z" />
<glyph unicode="o" horiz-adv-x="1019" d="M34 478v28q0 216 99 356q121 172 365 172q205 0 313 -141q94 -127 101 -361q0 -16 1 -30q0 -213 -92 -352q-117 -176 -343 -176q-1 0 -2 -1q-226 1 -330 135q-106 134 -112 370zM213 442q4 -143 55 -237q68 -123 197 -123q271 0 271 399q0 21 -1 43q-12 400 -254 400 q-269 0 -268 -435q-1 -23 0 -47z" />
<glyph unicode="p" horiz-adv-x="1042" d="M86 -416q22 489 22 866q0 323 -16 564l4 4q111 -12 174 -64q143 98 305 98l1 1q161 0 256 -135q96 -136 98 -312v-12q0 -278 -184 -427q-177 -143 -443 -143q-17 0 -35 1q-1 -76 -1 -147q0 -142 3 -263l-4 -4zM268 133q41 -2 66 -2q201 0 310 128q106 125 106 322v11 q-2 131 -56 223q-63 111 -176.5 111t-238.5 -95q-10 -264 -11 -698z" />
<glyph unicode="q" horiz-adv-x="1044" d="M25 422v22q0 152 51 269q82 188 258 258q125 49 350 49h188l2 -2q-10 -240 -16 -668l66 41q-2 -27 -4 -98q-18 -27 -62 -80q3 -134 3 -359q0 -112 -1 -247l-4 -2l-178 -29q10 250 12 512q-174 -106 -287 -106q-176 0 -275 137t-103 303zM205 440q2 -135 66.5 -227 t183.5 -92t233 94l4 684q-70 0 -196 -12q-291 -58 -291 -427v-20z" />
<glyph unicode="r" horiz-adv-x="655" d="M111 -6q8 334 8.5 583t-8.5 412q59 14 182 45l-8 -239q41 109 148.5 205.5t211.5 97.5q13 0 29 -4q-12 -55 -37 -170q-47 -8 -103 -22q-183 -44 -231 -292q-20 -104 -20 -278.5t6 -327.5q-53 -2 -178 -10z" />
<glyph unicode="s" horiz-adv-x="847" d="M23 -39q4 39 24 148q174 -39 203 -39q100 0 178 43q100 56 100 152q0 102 -118 151q-72 29 -217 86q-117 70 -121 228v9q0 150 119 227q121 78 294 79q2 0 4 -1q98 0 179 -30l2 -4l-13 -142q-96 56 -186 56h-2q-89 0 -155 -39q-65 -38 -64 -109q0 -102 123 -147l223 -82 q121 -70 125 -230v-8q0 -128 -117 -243q-139 -137 -424 -138q-72 0 -155 29z" />
<glyph unicode="t" horiz-adv-x="643" d="M25 891v8l18 96l125 27l4 238l174 43q-8 -68 -12 -289q72 0 213 4q-6 -53 -6 -123q-49 0 -203 -2l-6 -643q-2 -166 217 -187l-4 -67q-53 -14 -109 -14q-268 0 -268 229l-2 680h-141z" />
<glyph unicode="u" horiz-adv-x="1064" d="M96 1014l2 2q82 6 195 20l2 -4q0 -70 -11 -202q-17 -202 -16 -394v-76q2 -102 43 -180t140.5 -78t244.5 127l11 373q0 197 -9 412l2 2q14 0 187 18q-12 -365 -12 -616.5t8 -419.5l-6 -8q-41 4 -89 37l-92 61q-168 -115 -338 -115q-254 0 -258 301q-1 31 -1 76q0 68 2 168 q2 94 2 181q0 173 -7 315z" />
<glyph unicode="v" horiz-adv-x="835" d="M-14 1014q92 8 190 20l6 -4l213 -887q86 289 242 871l4 4q76 0 162 4q-154 -457 -311 -1006l-7 -6q-25 -2 -225 -22l-4 6q-158 651 -270 1020z" />
<glyph unicode="w" horiz-adv-x="1400" d="M-20 1016q117 4 180 10l4 -4q23 -168 88 -438l102 -439q68 283 187 848l6 6h20q61 0 209 13l4 -6q66 -295 189 -887q55 104 114 431q54 301 54 440v22q63 2 188 14q-16 -141 -76.5 -468.5t-161.5 -549.5l-6 -8l-254 -10l-6 6q-57 297 -166 889l-100 -471 q-25 -111 -90 -404l-4 -4q-129 0 -236 -4l-4 6q-87 408 -241 1008z" />
<glyph unicode="x" horiz-adv-x="839" d="M-6 -6q195 295 332 524q-86 168 -263 496q113 10 197 22l4 -4q98 -240 160 -362q61 113 178 344l8 8l168 4q-106 -164 -293 -485l295 -529l-198 -18l-7 4q-66 152 -186 397q-68 -127 -199 -383l-8 -6q-39 0 -188 -12z" />
<glyph unicode="y" horiz-adv-x="845" d="M-2 1016q123 12 192 22l7 -4q66 -260 223 -809q82 262 235 797l9 6q75 2 161 6q-177 -465 -485 -1409l-10 -10q-106 -4 -180 -10q72 129 98 182t84 195q-67 230 -334 1034z" />
<glyph unicode="z" horiz-adv-x="833" d="M43 90q10 27 79 128.5t99.5 153.5t292.5 546q-143 -4 -430 -21l-2 4l14 115l4 8q158 -4 436 -4h199l6 -19q-158 -301 -479 -890q17 -1 38 -1q79 0 209 12t209 12q21 0 38 -1l-21 -133l-8 -6q-84 6 -190 6h-322q-51 0 -158 6l-8 4z" />
<glyph unicode="{" horiz-adv-x="643" d="M106 502l3 47q88 31 118 149q16 70 17 203v94q0 20 -1 52.5t-1 42.5q0 227 65 307q45 53 123 71q25 6 139 15v-39q-106 -33 -145 -106t-41 -222.5t-2 -263.5q-8 -150 -44 -203t-128 -119q96 -70 128 -121.5t32 -161t-2 -321.5q2 -129 28 -186q41 -86 148 -117v-39 q-176 6 -232 45q-78 55 -82 244q2 109 4 328q-2 123 -18 182q-27 92 -109 119z" />
<glyph unicode="|" horiz-adv-x="417" d="M137 1501l123 -2l-2 -1950l-119 5z" />
<glyph unicode="}" horiz-adv-x="653" d="M35 -381q104 33 143 108t42 211t5 318q2 104 37 156.5t133 119.5q-96 70 -128 122t-34 167q4 104 5 316q-2 127 -31 186q-41 86 -148 117v39q176 -6 232 -45q82 -57 84 -244q-2 -109 -4 -328q2 -121 18 -180q27 -94 109 -121l-2 -47q-88 -31 -119 -149q-16 -70 -17 -203 v-94q0 -20 1 -52.5t1 -42.5q0 -227 -65 -307q-45 -53 -123 -72q-25 -6 -139 -14v39z" />
<glyph unicode="~" horiz-adv-x="1337" d="M195 539q98 170 227 170q68 0 201 -72t184 -72q76 0 176 140l47 -117q-114 -162 -233 -162q-68 0 -192 71.5t-180 71.5t-106 -49q-18 -23 -73 -98z" />
<glyph unicode="&#xa1;" horiz-adv-x="501" d="M51 -4q51 557 60 1059l141 12q-2 -178 -2 -462t14 -597l-2 -2q-104 -2 -211 -10zM82 1298q2 106 2 185l4 6l197 12l2 -2q-4 -92 -2 -190l-6 -6q-106 -4 -191 -13z" />
<glyph unicode="&#xa2;" horiz-adv-x="876" d="M72 479q-4 221 109.5 384t326.5 171q2 0 59 -2q21 137 31 156q49 -2 90 0q-16 -66 -43 -162q88 -28 129 -51l-20 -135l-9 -4q-41 41 -122 82l-199 -816q37 -2 68 -2q147 0 270 103q-6 -57 -10 -148l-4 -4q-131 -72 -263 -71q-25 0 -84 6q-20 -94 -34 -168l-5 -4h-90 q23 72 56 188q-127 61 -190.5 192.5t-65.5 284.5zM231 504q4 -197 121 -389l193 821q-320 -80 -314 -432z" />
<glyph unicode="&#xa3;" horiz-adv-x="880" d="M-12 608l6 105l123 -2l-2 198q10 434 415 434q135 0 258 -51l3 -2q-10 -74 -13 -127l-6 -4q-121 66 -235 66q-182 0 -232 -166q-25 -82 -20 -344q184 4 403 16l-12 -108q-129 0 -391 -7q-6 -248 -80 -505q190 2 571 20l2 -2q-8 -126 -8 -127q-250 0 -750 -16 q84 264 99 628z" />
<glyph unicode="&#xa4;" horiz-adv-x="1224" d="M41 178l135 152q-90 164 -92 295q-4 166 104 340l-133 145l90 98l134 -145q147 109 285.5 108.5t279.5 -98.5l137 156l88 -96l-135 -150q90 -168 92 -281t-21.5 -185.5t-84.5 -172.5l135 -147l-90 -101l-138 152q-150 -106 -284.5 -106.5t-278.5 98.5l-137 -156zM205 643 q2 -162 95 -275.5t252 -113.5t257 131t96 292t-96 271.5t-251 110.5t-259 -133q-96 -121 -94 -283z" />
<glyph unicode="&#xa5;" horiz-adv-x="991" d="M-20 1303q66 4 196 18l8 -6q109 -256 277 -623q197 385 295 619l10 8q86 2 162 10q-166 -315 -301 -579l164 6l-11 -101h-45q-23 2 -155 -2q-23 -45 -45 -94q0 -23 -7 -119q86 2 258 11l-10 -103h-43q-35 0 -203 -2q0 -248 2 -346l-2 -2q-78 0 -190 -8q2 31 10 352 q-37 0 -250 -6q2 23 9 94l4 4l241 4l-2 101q-16 37 -51 110l-199 -6q4 31 11 94l4 4h141q-162 342 -278 562z" />
<glyph unicode="&#xa7;" horiz-adv-x="917" d="M27 603q-2 157 196 306q-55 59 -84 107.5t-30 109.5q-2 152 103 232t245.5 80t275.5 -54l2 -2q-8 -76 -10 -129l-4 -2q-121 74 -223.5 74t-168 -43t-65.5 -123q2 -104 146 -182l264 -141q143 -96 145 -238q2 -102 -48 -171.5t-144 -141.5q135 -133 137 -242 q2 -160 -121 -246q-106 -76 -266 -76t-299 76q4 72 4 135l6 5q135 -106 277 -107q92 0 161.5 45t69.5 133q-2 115 -147 195q-90 47 -273 143q-147 100 -149 257zM166 643q0 -80 70 -139q25 -20 131 -80l170 -94q141 102 139 221q0 98 -148 186q-41 25 -223 121 q-141 -100 -139 -215z" />
<glyph unicode="&#xa8;" horiz-adv-x="540" d="M-39 1217q8 61 23 217q61 4 194 12l-74 -193l-14 -14q-41 -8 -129 -22zM322 1217q10 61 22 217l197 12l-74 -193l-16 -14q-39 -8 -129 -22z" />
<glyph unicode="&#xa9;" horiz-adv-x="1701" d="M122 671q-5 294 197.5 498.5t497.5 204.5t489.5 -196.5t200.5 -491.5t-195.5 -497.5t-495.5 -202.5t-491.5 195.5t-202.5 489.5zM182 671q4 -269 187.5 -452.5t450.5 -183.5t449.5 192.5t178.5 461.5t-182.5 452.5t-447.5 183.5t-454.5 -192.5t-181.5 -461.5zM364 676 q-3 199 131 335t339.5 136t361.5 -170l-113 -115q-125 133 -256 133t-213 -94t-79.5 -224t86.5 -217t215 -87t251 137l121 -102q-160 -186 -371 -186.5t-340.5 127.5t-132.5 327z" />
<glyph unicode="&#xaa;" horiz-adv-x="616" d="M-4 897q-2 133 133 199q61 31 233 65q-12 156 -106 156q-80 0 -184 -55l-4 2q4 41 4 75q31 23 101.5 38t119.5 16q180 0 186 -258q2 -80 -2 -231.5t-4 -182.5l-2 -2q-59 -2 -119 -8l-24 34q-84 -49 -160 -49t-123 57.5t-49 143.5zM113 911q2 -135 104 -135q66 0 135 60 l6 256q-113 -23 -157 -45q-90 -46 -88 -136z" />
<glyph unicode="&#xab;" horiz-adv-x="800" d="M39 512v4q111 211 182 387l8 6h127l-186 -381q57 -131 184 -383q-80 0 -139 -4l-6 4q-51 127 -170 367zM375 528v4q57 125 170 375l8 8h135q-76 -135 -182 -370l184 -389l-133 -2l-4 4q-63 150 -178 370z" />
<glyph unicode="&#xac;" horiz-adv-x="1220" d="M-14 504l2 117l1188 26l-11 -645l-123 -2l9 528z" />
<glyph unicode="&#xad;" horiz-adv-x="821" d="M119 453q2 6 6 182l4 4q41 2 120 0t198.5 -2t248.5 10l-6 -186h-137q-264 0 -434 -8z" />
<glyph unicode="&#xae;" horiz-adv-x="1701" d="M122 669q-5 294 195.5 499.5t495.5 205.5t491.5 -195.5t202.5 -489.5t-197.5 -498.5t-495.5 -204.5t-489.5 194.5t-202.5 488.5zM182 672q4 -268 186.5 -452.5t449.5 -184.5t449.5 190.5t178.5 459.5t-183.5 454.5t-447.5 185.5t-452.5 -192.5t-180.5 -460.5zM514 240 v878l340 6q297 0 301 -221q2 -123 -160 -211q90 -76 107 -180q27 -166 67 -260l-192 -2q-25 41 -42 154.5t-38 156.5q-37 74 -119 74l-90 -2v-389zM690 764q164 4 184 8q109 23 107 117q-2 108 -129 108q-18 0 -162 -2v-231z" />
<glyph unicode="&#xaf;" horiz-adv-x="538" d="M-57 1223q10 84 12 129l4 8h64q305 0 473 18q-8 -76 -13 -135l-4 -4q-174 -4 -536 -16z" />
<glyph unicode="&#xb0;" horiz-adv-x="653" d="M-22.5 1147q-2.5 125 80.5 228.5t206 103.5t200 -86t79 -212t-80 -229.5t-206 -103.5t-200.5 87t-79 212zM104 1158q0 -73 42 -129t112 -56t114 62t44 134t-41 128.5t-110 56.5t-115 -61.5t-46 -134.5z" />
<glyph unicode="&#xb1;" horiz-adv-x="1226" d="M25 4l2 115l1038 4l-2 -117zM37 756l2 114l459 -2l8 486l121 2l-6 -486l454 9l-2 -115l-457 -8l-4 -488l-120 -2l6 486z" />
<glyph unicode="&#xb4;" horiz-adv-x="1079" d="M438 1128q61 170 103 316l6 6l39 -2q49 -2 166 8q-90 -127 -187 -319l-10 -7q-49 0 -117 -2z" />
<glyph unicode="&#xb6;" horiz-adv-x="1222" d="M133 979q-2 178 107.5 281.5t289.5 107.5l406 8v-65l-62 -2l-22 -1635l-82 -2l23 1635l-287 -4l-25 -1637l-80 -2l15 967q-129 29 -205 122t-78 226z" />
<glyph unicode="&#xb7;" horiz-adv-x="419" d="M94 418q4 96 4 223l4 6q63 4 195 17l4 -5q-4 -115 -4 -213l-4 -8q-72 -4 -199 -20z" />
<glyph unicode="&#xb8;" horiz-adv-x="528" d="M174 -373q49 100 117 273l8 8l119 2q-25 -96 -68 -268l-6 -9q-76 0 -170 -6z" />
<glyph unicode="&#xba;" horiz-adv-x="690" d="M2 1018q-2 164 74 268.5t233 104.5q254 0 260 -318q2 -164 -68.5 -271.5t-228.5 -107.5q-264 0 -270 324zM119 1020q4 -256 162 -256q174 0 170 301q-4 254 -160 254q-176 0 -172 -299z" />
<glyph unicode="&#xbb;" horiz-adv-x="800" d="M51 899q80 2 133 6l9 -8q78 -176 178 -369v-4q-57 -111 -172 -377l-9 -6q-47 2 -135 0q74 133 181 371q-11 27 -185 387zM387 147q61 125 184 381q-47 111 -182 383q82 0 139 4l9 -6l77 -188q43 -102 91 -178q-104 -203 -183 -389l-8 -7h-127z" />
<glyph unicode="&#xbc;" horiz-adv-x="1349" d="M43 1522q4 39 6 69l2 2q53 6 150.5 35t126.5 37l2 -2q-8 -111 -8 -388.5t8 -383.5q-61 0 -146 -6q12 580 11 671q-55 -14 -148 -36zM195 -68q51 117 277.5 681t416.5 1068l8 9l147 4q-451 -1090 -692 -1751l-10 -13q-96 2 -147 2zM707 154v41q0 31 49 104l49 76 q80 119 203 319l24 33h191v-477q55 0 106 4q-6 -31 -12 -94h-35q-8 0 -65 -2q-2 -33 0 -91.5t2 -86.5v-3q-53 0 -138 -6l-2 2q0 49 2 183zM838 240l252 4l2 377z" />
<glyph unicode="&#xbd;" horiz-adv-x="1349" d="M43 1522q4 39 6 69l2 2q53 6 150.5 35t126.5 37l2 -2q-8 -111 -8 -388.5t8 -383.5q-61 0 -146 -6q12 580 11 671q-55 -14 -148 -36zM195 -68q51 117 277.5 681t416.5 1068l8 9l147 4q-451 -1090 -692 -1751l-10 -13q-96 2 -147 2zM766 8v31q74 76 188.5 191.5 t132.5 140.5q63 90 64 106q-2 66 -35 89.5t-102 23.5t-99.5 -14.5t-85.5 -61.5l-6 4l-6 113q8 10 37 24q68 37 173 37t178 -50t75 -140.5t-72 -171.5q-27 -29 -86 -86q-39 -43 -174 -181q96 -6 338 -4l2 -2q-4 -36 -10 -102l-6 -6h-253t-224 -4h-4z" />
<glyph unicode="&#xbe;" horiz-adv-x="1349" d="M20 948q4 35 9 107l6 2q88 -72 164.5 -72t136 46t58.5 123t-51 119t-130 42q-35 0 -86 -19l6 35q80 88 121 139q37 39 106 125q-78 -2 -319 -14l8 98l2 4q184 -4 287.5 -4t153.5 2l18 -39q-33 -47 -107.5 -133t-105.5 -125q240 -37 242 -225q0 -51 -23 -100 q-76 -160 -303 -160q-119 0 -193 49zM195 -68q51 117 277.5 681t416.5 1068l8 9l147 4q-451 -1090 -692 -1751l-10 -13q-96 2 -147 2zM707 154v41q0 31 49 104l49 76q80 119 203 319l24 33h191v-477q55 0 106 4q-6 -31 -12 -94h-35q-8 0 -65 -2q-2 -33 0 -91.5t2 -86.5v-3 q-53 0 -138 -6l-2 2q0 49 2 183zM838 240l252 4l2 377z" />
<glyph unicode="&#xbf;" horiz-adv-x="768" d="M27 338q-2 158 127.5 383.5t146.5 347.5l4 6q70 0 154 6q-14 -109 -40 -170t-89.5 -170.5t-95 -190.5t-30.5 -181.5t60.5 -169t167.5 -68.5q109 0 240 113l-13 -158l-6 -6q-119 -86 -277.5 -86t-252.5 93t-96 251zM287 1294q0 31 2 187l4 4l194 14l5 -4q-3 -43 -3 -188 l-6 -9q-104 -4 -190 -10z" />
<glyph unicode="&#xc0;" horiz-adv-x="1136" d="M-16 -6l225 674q123 375 211 682l8 8q145 6 256 14l6 -6q107 -468 365 -1354l-8 -8l-191 -10l-6 6q-33 145 -102 434q-217 -2 -467 -8q-74 -254 -115 -416l-6 -8q-90 0 -176 -8zM317 545q182 2 400 8l-178 672zM344 1739l199 -4l6 -4q12 -63 84 -307l-8 -6q-58 1 -111 -5 q-102 205 -170 326z" />
<glyph unicode="&#xc1;" horiz-adv-x="1136" d="M-16 -6l225 674q123 375 211 682l8 8q145 6 256 14l6 -6q107 -468 365 -1354l-8 -8l-191 -10l-6 6q-33 145 -102 434q-217 -2 -467 -8q-74 -254 -115 -416l-6 -8q-90 0 -176 -8zM317 545q182 2 400 8l-178 672zM489 1427q61 170 103 316l6 6l39 -2q49 -2 166 8 q-90 -127 -187 -319l-10 -7q-49 0 -117 -2z" />
<glyph unicode="&#xc2;" horiz-adv-x="1136" d="M-16 -6l225 674q123 375 211 682l8 8q145 6 256 14l6 -6q107 -468 365 -1354l-8 -8l-191 -10l-6 6q-33 145 -102 434q-217 -2 -467 -8q-74 -254 -115 -416l-6 -8q-90 0 -176 -8zM301 1400q59 102 155 310l11 8q68 4 215 10l6 -6q43 -98 125 -291l-4 -12h-64q-31 0 -82 -4 q-6 9 -96 229q-16 -39 -63.5 -114.5t-63.5 -116.5l-8 -8q-82 -1 -131 -5zM317 545q182 2 400 8l-178 672z" />
<glyph unicode="&#xc3;" horiz-adv-x="1136" d="M-16 -6l225 674q123 375 211 682l8 8q145 6 256 14l6 -6q107 -468 365 -1354l-8 -8l-191 -10l-6 6q-33 145 -102 434q-217 -2 -467 -8q-74 -254 -115 -416l-6 -8q-90 0 -176 -8zM287 1423q6 82 8 143q10 33 58 62.5t89 29.5t132 -45t134 -45q76 0 142 103l4 -2 q-4 -50 -8 -142q-82 -92 -137.5 -92t-140.5 45t-132 45q-76 0 -147 -102h-2zM317 545q182 2 400 8l-178 672z" />
<glyph unicode="&#xc4;" horiz-adv-x="1136" d="M-16 -6l225 674q123 375 211 682l8 8q145 6 256 14l6 -6q107 -468 365 -1354l-8 -8l-191 -10l-6 6q-33 145 -102 434q-217 -2 -467 -8q-74 -254 -115 -416l-6 -8q-90 0 -176 -8zM315 1469q8 61 23 217q61 4 194 12l-74 -193l-14 -14q-41 -8 -129 -22zM317 545 q182 2 400 8l-178 672zM676 1469q10 61 22 217l197 12l-74 -193l-16 -14q-39 -8 -129 -22z" />
<glyph unicode="&#xc5;" horiz-adv-x="1136" d="M-16 -6l225 674q123 375 211 682l8 8q145 6 256 14l6 -6q107 -468 365 -1354l-8 -8l-191 -10l-6 6q-33 145 -102 434q-217 -2 -467 -8q-74 -254 -115 -416l-6 -8q-90 0 -176 -8zM317 545q182 2 400 8l-178 672zM355 1580q0 79 60 127t140 48t132.5 -46t52.5 -125 t-61.5 -124t-141.5 -45t-131 43t-51 122zM459 1581q2 -102 91 -102t87 105.5t-86 105.5q-43 0 -68.5 -32t-23.5 -77z" />
<glyph unicode="&#xc6;" horiz-adv-x="1570" d="M-66 -12q68 186 247.5 648t260.5 720l11 10l510 -2q317 0 452 8l-12 -147q-376 16 -433.5 16t-115.5 -2q-2 -68 -10 -463q49 2 79.5 2t187.5 -3t249 -1l-10 -143q-312 16 -422 16h-88l-4 -506q190 -4 571 4q-2 -45 -10 -137l-4 -6q-92 -2 -172 -2l-582 4q4 135 14 416 q-201 -2 -385 -8q-47 -131 -137 -406l-6 -8q-109 -4 -191 -10zM311 539q174 0 344 8q10 389 13 694l-105 -2z" />
<glyph unicode="&#xc7;" horiz-adv-x="1144" d="M47 643q-8 338 158 552t495 214q139 0 287 -55q4 -74 10 -217l-4 -4l-100 18l-33 104q-102 39 -164 39q-231 0 -354 -192q-111 -172 -104 -449q4 -231 102 -381q117 -174 336 -174q162 0 340 148q-8 -109 -12 -174l-5 -6q-143 -83 -317 -93q-23 -84 -59 -233l-7 -8 q-76 0 -170 -4q47 94 109 252q-252 31 -385 225q-117 172 -123 438z" />
<glyph unicode="&#xc8;" horiz-adv-x="1003" d="M100 -6q18 324 21 545l2 237q4 381 -4 578l4 2q238 0 715 6q-13 -136 -15 -141l-483 14h-27q-10 -205 -14 -455h481l-12 -139l-428 10h-43q-6 -262 -6 -522h532q-4 -45 -8 -131l-4 -4q-57 -2 -123 -2zM256 1745l199 -4l6 -4q12 -63 84 -307l-8 -6q-58 1 -111 -5 q-102 205 -170 326z" />
<glyph unicode="&#xc9;" horiz-adv-x="1003" d="M100 -6q18 324 21 545l2 237q4 381 -4 578l4 2q238 0 715 6q-13 -136 -15 -141l-483 14h-27q-10 -205 -14 -455h481l-12 -139l-428 10h-43q-6 -262 -6 -522h532q-4 -45 -8 -131l-4 -4q-57 -2 -123 -2zM424 1411q61 170 103 316l6 6l39 -2q49 -2 166 8q-90 -127 -187 -319 l-10 -7q-49 0 -117 -2z" />
<glyph unicode="&#xca;" horiz-adv-x="1003" d="M100 -6q18 324 21 545l2 237q4 381 -4 578l4 2q238 0 715 6q-13 -136 -15 -141l-483 14h-27q-10 -205 -14 -455h481l-12 -139l-428 10h-43q-6 -262 -6 -522h532q-4 -45 -8 -131l-4 -4q-57 -2 -123 -2zM236 1419q59 102 155 310l11 8q68 4 215 10l6 -6q43 -98 125 -291 l-4 -12h-64q-31 0 -82 -4q-6 9 -96 229q-16 -39 -63.5 -114.5t-63.5 -116.5l-8 -8q-82 -1 -131 -5z" />
<glyph unicode="&#xcb;" horiz-adv-x="1003" d="M100 -6q18 324 21 545l2 237q4 381 -4 578l4 2q238 0 715 6q-13 -136 -15 -141l-483 14h-27q-10 -205 -14 -455h481l-12 -139l-428 10h-43q-6 -262 -6 -522h532q-4 -45 -8 -131l-4 -4q-57 -2 -123 -2zM254 1471q8 61 23 217q61 4 194 12l-74 -193l-14 -14 q-41 -8 -129 -22zM615 1471q10 61 22 217l197 12l-74 -193l-16 -14q-39 -8 -129 -22z" />
<glyph unicode="&#xcc;" horiz-adv-x="503" d="M35 1237l26 115l13 10l258 6q-33 -737 -13 -1362q-82 -4 -194 -12q25 567 16 1245zM39 1755l199 -4l6 -4q12 -63 84 -307l-8 -6q-58 1 -111 -5q-102 205 -170 326z" />
<glyph unicode="&#xcd;" horiz-adv-x="503" d="M35 1237l26 115l13 10l258 6q-33 -737 -13 -1362q-82 -4 -194 -12q25 567 16 1245zM145 1443q61 170 103 316l6 6l39 -2q49 -2 166 8q-90 -127 -187 -319l-10 -7q-49 0 -117 -2z" />
<glyph unicode="&#xce;" horiz-adv-x="503" d="M-37 1417q59 102 155 310l11 8q68 4 215 10l6 -6q43 -98 125 -291l-4 -12h-64q-31 0 -82 -4q-6 9 -96 229q-16 -39 -63.5 -114.5t-63.5 -116.5l-8 -8q-82 -1 -131 -5zM35 1237l26 115l13 10l258 6q-33 -737 -13 -1362q-82 -4 -194 -12q25 567 16 1245z" />
<glyph unicode="&#xcf;" horiz-adv-x="503" d="M-37 1477q8 61 23 217q61 4 194 12l-74 -193l-14 -14q-41 -8 -129 -22zM35 1237l26 115l13 10l258 6q-33 -737 -13 -1362q-82 -4 -194 -12q25 567 16 1245zM324 1477q10 61 22 217l197 12l-74 -193l-16 -14q-39 -8 -129 -22z" />
<glyph unicode="&#xd0;" horiz-adv-x="1374" d="M55 604q2 6 6 182l5 5q39 2 118 0l41 -3q0 393 -16 572l10 6h49l371 14q260 0 389 -92q219 -153 223 -524q4 -182 -53 -336q-144 -393 -608 -420l-385 -12q14 295 18 614q-92 -2 -168 -6zM393 127q252 2 363 45q178 68 254 277q55 143 51 331q-6 481 -451 482 q-49 0 -198 -9q-8 -223 -13 -465q137 2 234 11l-6 -187h-232q-2 -213 -2 -485z" />
<glyph unicode="&#xd1;" horiz-adv-x="1318" d="M100 -6q18 418 18.5 847t-3.5 515l10 6q49 0 221 12l14 -10l596 -1174q2 385 -12 1166l2 2q70 2 166 10q-24 -873 -18 -1362q-76 0 -220 -12l-10 10q-94 193 -297 577t-313 605q0 -383 16 -1180l-2 -2q-82 -2 -168 -10zM191 1555q98 170 227 170q68 0 201 -72t184 -72 q76 0 176 140l47 -117q-114 -162 -233 -162q-68 0 -192 71.5t-180 71.5t-106 -49q-18 -23 -73 -98z" />
<glyph unicode="&#xd2;" horiz-adv-x="1376" d="M39 665.5q-6 307.5 131 512.5q160 233 469 233q276 0 422 -205q127 -178 135 -484.5t-129 -510.5q-156 -236 -467 -236q-279 0 -426 205q-129 178 -135 485.5zM238 666q4 -225 75 -371q96 -193 306 -193t313 224q76 168 72 413q-13 547 -369 547q-410 0 -397 -620z M424 1792l199 -4l6 -4q12 -63 84 -307l-8 -6q-58 1 -111 -5q-102 205 -170 326z" />
<glyph unicode="&#xd3;" horiz-adv-x="1376" d="M39 665.5q-6 307.5 131 512.5q160 233 469 233q276 0 422 -205q127 -178 135 -484.5t-129 -510.5q-156 -236 -467 -236q-279 0 -426 205q-129 178 -135 485.5zM238 666q4 -225 75 -371q96 -193 306 -193t313 224q76 168 72 413q-13 547 -369 547q-410 0 -397 -620z M571 1458q61 170 103 316l6 6l39 -2q49 -2 166 8q-90 -127 -187 -319l-10 -7q-49 0 -117 -2z" />
<glyph unicode="&#xd4;" horiz-adv-x="1376" d="M39 665.5q-6 307.5 131 512.5q160 233 469 233q276 0 422 -205q127 -178 135 -484.5t-129 -510.5q-156 -236 -467 -236q-279 0 -426 205q-129 178 -135 485.5zM238 666q4 -225 75 -371q96 -193 306 -193t313 224q76 168 72 413q-13 547 -369 547q-410 0 -397 -620z M379 1460q59 102 155 310l11 8q68 4 215 10l6 -6q43 -98 125 -291l-4 -12h-64q-31 0 -82 -4q-6 9 -96 229q-16 -39 -63.5 -114.5t-63.5 -116.5l-8 -8q-82 -1 -131 -5z" />
<glyph unicode="&#xd5;" horiz-adv-x="1376" d="M39 665.5q-6 307.5 131 512.5q160 233 469 233q276 0 422 -205q127 -178 135 -484.5t-129 -510.5q-156 -236 -467 -236q-279 0 -426 205q-129 178 -135 485.5zM238 666q4 -225 75 -371q96 -193 306 -193t313 224q76 168 72 413q-13 547 -369 547q-410 0 -397 -620z M349 1466q6 82 8 143q10 33 58 62.5t89 29.5t132 -45t134 -45q76 0 142 103l4 -2q-4 -50 -8 -142q-82 -92 -137.5 -92t-140.5 45t-132 45q-76 0 -147 -102h-2z" />
<glyph unicode="&#xd6;" horiz-adv-x="1376" d="M39 665.5q-6 307.5 131 512.5q160 233 469 233q276 0 422 -205q127 -178 135 -484.5t-129 -510.5q-156 -236 -467 -236q-279 0 -426 205q-129 178 -135 485.5zM238 666q4 -225 75 -371q96 -193 306 -193t313 224q76 168 72 413q-13 547 -369 547q-410 0 -397 -620z M395 1471q8 61 23 217q61 4 194 12l-74 -193l-14 -14q-41 -8 -129 -22zM756 1471q10 61 22 217l197 12l-74 -193l-16 -14q-39 -8 -129 -22z" />
<glyph unicode="&#xd8;" horiz-adv-x="1376" d="M-23 31q49 41 162 168q-96 199 -98 403q-4 334 129 547q158 250 475 250q246 0 416 -180q94 104 151 170l9 2l57 -64v-6l-170 -174q88 -197 92 -420q6 -324 -131 -526q-158 -236 -467 -236q-248 0 -407 164q-49 -55 -144 -168h-10q-20 25 -64 70zM266 340l680 752 q-125 190 -303 190q-217 0 -326 -215q-139 -278 -51 -727zM305 256q127 -174 299 -174q221 0 328 221q84 174 80 453q0 86 -27 248z" />
<glyph unicode="&#xd9;" horiz-adv-x="1304" d="M117 432q6 264 8 795q-2 61 -6 125l8 8h25q76 0 172 8q-19 -641 -19 -891q6 -377 293 -377q293 0 320 369q2 33 6 341t-4 552q41 2 161 12q-8 -209 -12 -844q-2 -272 -115 -414.5t-379 -142.5q-174 0 -298.5 85t-151.5 251q-6 43 -8 123zM417 1698l199 -4l6 -4 q12 -63 84 -307l-8 -6q-58 1 -111 -5q-102 205 -170 326z" />
<glyph unicode="&#xda;" horiz-adv-x="1304" d="M117 432q6 264 8 795q-2 61 -6 125l8 8h25q76 0 172 8q-19 -641 -19 -891q6 -377 293 -377q293 0 320 369q2 33 6 341t-4 552q41 2 161 12q-8 -209 -12 -844q-2 -272 -115 -414.5t-379 -142.5q-174 0 -298.5 85t-151.5 251q-6 43 -8 123zM522 1398q61 170 103 316l6 6 l39 -2q49 -2 166 8q-90 -127 -187 -319l-10 -7q-49 0 -117 -2z" />
<glyph unicode="&#xdb;" horiz-adv-x="1304" d="M117 432q6 264 8 795q-2 61 -6 125l8 8h25q76 0 172 8q-19 -641 -19 -891q6 -377 293 -377q293 0 320 369q2 33 6 341t-4 552q41 2 161 12q-8 -209 -12 -844q-2 -272 -115 -414.5t-379 -142.5q-174 0 -298.5 85t-151.5 251q-6 43 -8 123zM365 1423q59 102 155 310l11 8 q68 4 215 10l6 -6q43 -98 125 -291l-4 -12h-64q-31 0 -82 -4q-6 9 -96 229q-16 -39 -63.5 -114.5t-63.5 -116.5l-8 -8q-82 -1 -131 -5z" />
<glyph unicode="&#xdc;" horiz-adv-x="1304" d="M117 432q6 264 8 795q-2 61 -6 125l8 8h25q76 0 172 8q-19 -641 -19 -891q6 -377 293 -377q293 0 320 369q2 33 6 341t-4 552q41 2 161 12q-8 -209 -12 -844q-2 -272 -115 -414.5t-379 -142.5q-174 0 -298.5 85t-151.5 251q-6 43 -8 123zM377 1471q8 61 23 217 q61 4 194 12l-74 -193l-14 -14q-41 -8 -129 -22zM738 1471q10 61 22 217l197 12l-74 -193l-16 -14q-39 -8 -129 -22z" />
<glyph unicode="&#xdd;" horiz-adv-x="991" d="M-35 1360q68 0 203 6l8 -4q35 -92 281 -637q209 414 307 635l8 8q55 -2 168 2q-139 -258 -408 -786q-4 -174 -4 -318q0 -143 4 -260l-4 -2q-23 0 -192 -14q24 480 8 573q-203 451 -379 797zM405 1321q61 170 103 316l6 6l39 -2q49 -2 166 8q-90 -127 -187 -319l-10 -7 q-49 0 -117 -2z" />
<glyph unicode="&#xde;" horiz-adv-x="1103" d="M35 1237l26 115l13 10h270q-6 -94 -14 -283q60 -9 137.5 -1.5t85.5 7.5q430 0 434 -348q2 -109 -55 -200q-131 -213 -533 -215l-45 104q150 6 232 27q225 61 221 278q-4 246 -291 246q-72 0 -186 -12q-14 -489 -2 -959l-2 -4q-100 -2 -195 -8h-6q18 403 18 635.5 t-6 345.5l6 94q0 84 -2 170z" />
<glyph unicode="&#xdf;" horiz-adv-x="1073" d="M76 -16q12 211 24 1046q2 180 29 260q37 115 141.5 180.5t241.5 65.5t228 -76t94 -217q2 -102 -56 -194q-27 -43 -96 -124.5t-70 -115.5q2 -53 84 -131q133 -127 152 -148q82 -98 84 -211q2 -154 -92.5 -243.5t-247.5 -89.5q-20 0 -91 10t-77 20l2 127l2 2 q84 -45 158 -45t130 49.5t56 131.5t-84 180q-131 127 -139 135q-98 106 -98 152q0 27 65.5 110.5t95.5 138.5q57 104 55.5 200.5t-44.5 163.5t-131 66q-158 0 -205 -163q-20 -72 -27 -318q-16 -618 -2 -950q-102 -4 -182 -12z" />
<glyph unicode="&#xe0;" d="M37 432q-8 268 133 431t405 163q131 0 183 -27q78 -39 82 -153q0 -23 -2 -180l-4 -240l-3 -438q-45 2 -174 86q-137 -98 -247 -99q-176 0 -279 146q-88 125 -94 311zM211 442q4 -133 55 -221q63 -109 178.5 -108.5t217.5 100.5q8 496 6 598q0 37 -28 63.5t-65 28.5 q-193 10 -288 -135q-82 -125 -76 -326zM270 1456l199 -4l6 -4q12 -63 84 -307l-8 -6q-58 1 -111 -5q-102 205 -170 326z" />
<glyph unicode="&#xe1;" d="M37 432q-8 268 133 431t405 163q131 0 183 -27q78 -39 82 -153q0 -23 -2 -180l-4 -240l-3 -438q-45 2 -174 86q-137 -98 -247 -99q-176 0 -279 146q-88 125 -94 311zM211 442q4 -133 55 -221q63 -109 178.5 -108.5t217.5 100.5q8 496 6 598q0 37 -28 63.5t-65 28.5 q-193 10 -288 -135q-82 -125 -76 -326zM438 1128q61 170 103 316l6 6l39 -2q49 -2 166 8q-90 -127 -187 -319l-10 -7q-49 0 -117 -2z" />
<glyph unicode="&#xe2;" d="M37 432q-8 268 133 431t405 163q131 0 183 -27q78 -39 82 -153q0 -23 -2 -180l-4 -240l-3 -438q-45 2 -174 86q-137 -98 -247 -99q-176 0 -279 146q-88 125 -94 311zM211 442q4 -133 55 -221q63 -109 178.5 -108.5t217.5 100.5q8 496 6 598q0 37 -28 63.5t-65 28.5 q-193 10 -288 -135q-82 -125 -76 -326zM238 1130q59 102 155 310l11 8q68 4 215 10l6 -6q43 -98 125 -291l-4 -12h-64q-31 0 -82 -4q-6 9 -96 229q-16 -39 -63.5 -114.5t-63.5 -116.5l-8 -8q-82 -1 -131 -5z" />
<glyph unicode="&#xe3;" d="M37 432q-8 268 133 431t405 163q131 0 183 -27q78 -39 82 -153q0 -23 -2 -180l-4 -240l-3 -438q-45 2 -174 86q-137 -98 -247 -99q-176 0 -279 146q-88 125 -94 311zM211 442q4 -133 55 -221q63 -109 178.5 -108.5t217.5 100.5q8 496 6 598q0 37 -28 63.5t-65 28.5 q-193 10 -288 -135q-82 -125 -76 -326zM228 1147q6 82 8 143q10 33 58 62.5t89 29.5t132 -45t134 -45q76 0 142 103l4 -2q-4 -50 -8 -142q-82 -92 -137.5 -92t-140.5 45t-132 45q-76 0 -147 -102h-2z" />
<glyph unicode="&#xe4;" d="M37 432q-8 268 133 431t405 163q131 0 183 -27q78 -39 82 -153q0 -23 -2 -180l-4 -240l-3 -438q-45 2 -174 86q-137 -98 -247 -99q-176 0 -279 146q-88 125 -94 311zM211 442q4 -133 55 -221q63 -109 178.5 -108.5t217.5 100.5q8 496 6 598q0 37 -28 63.5t-65 28.5 q-193 10 -288 -135q-82 -125 -76 -326zM242 1217q8 61 23 217q61 4 194 12l-74 -193l-14 -14q-41 -8 -129 -22zM603 1217q10 61 22 217l197 12l-74 -193l-16 -14q-39 -8 -129 -22z" />
<glyph unicode="&#xe5;" d="M37 432q-8 268 133 431t405 163q131 0 183 -27q78 -39 82 -153q0 -23 -2 -180l-4 -240l-3 -438q-45 2 -174 86q-137 -98 -247 -99q-176 0 -279 146q-88 125 -94 311zM211 442q4 -133 55 -221q63 -109 178.5 -108.5t217.5 100.5q8 496 6 598q0 37 -28 63.5t-65 28.5 q-193 10 -288 -135q-82 -125 -76 -326zM326 1299q0 79 60 127t140 48t132.5 -46t52.5 -125t-61.5 -124t-141.5 -45t-131 43t-51 122zM430 1300q2 -102 91 -102t87 105.5t-86 105.5q-43 0 -68.5 -32t-23.5 -77z" />
<glyph unicode="&#xe6;" horiz-adv-x="1566" d="M6 258q-4 215 219 295q119 43 377 53v62q-2 113 -40 173.5t-152.5 60t-288.5 -92.5l-8 6q6 61 8 129l6 6q201 76 350.5 76t249.5 -141q158 154 329 153.5t268 -115t99 -284.5q2 -16 0 -39l-67 -47q-346 -51 -586 -66q12 -387 295 -387q150 0 309 127l10 -2 q-10 -82 -16 -155l-4 -9q-143 -90 -340 -90t-336 150q-166 -164 -354 -164q-137 0 -231.5 82t-96.5 219zM188 272q2 -84 51.5 -131t133.5 -47q129 0 260 144q-25 91 -33 243q-414 -4 -412 -209zM764 608q279 25 479 49q-12 125 -49 185q-51 84 -162 84q-186 0 -268 -318z " />
<glyph unicode="&#xe7;" horiz-adv-x="829" d="M27 465q-6 231 127 395q139 176 366 176q125 0 213 -37q-6 -78 -10 -137l-6 -2q-78 53 -174 53q-162 0 -253 -136t-87 -297t69 -259q76 -119 208.5 -119t250.5 107q-8 -96 -10 -154q-67 -61 -219 -75q-23 -88 -62 -244l-6 -8q-74 0 -170 -7q49 98 113 263 q-170 29 -257 163t-93 318z" />
<glyph unicode="&#xe8;" horiz-adv-x="970" d="M43 465.5q-6 229.5 94 392.5q119 195 346 195q143 0 248 -90q94 -84 137 -228q-16 -33 -63 -88q-195 -57 -586 -170q23 -377 309 -377q152 0 295 129q-6 -72 -12 -163q-35 -41 -136 -66t-171 -25q-215 0 -335 130.5t-126 360zM209 610l483 129q-104 205 -219 205 q-190 0 -264 -334zM270 1456l199 -4l6 -4q12 -63 84 -307l-8 -6q-58 1 -111 -5q-102 205 -170 326z" />
<glyph unicode="&#xe9;" horiz-adv-x="970" d="M43 465.5q-6 229.5 94 392.5q119 195 346 195q143 0 248 -90q94 -84 137 -228q-16 -33 -63 -88q-195 -57 -586 -170q23 -377 309 -377q152 0 295 129q-6 -72 -12 -163q-35 -41 -136 -66t-171 -25q-215 0 -335 130.5t-126 360zM209 610l483 129q-104 205 -219 205 q-190 0 -264 -334zM438 1128q61 170 103 316l6 6l39 -2q49 -2 166 8q-90 -127 -187 -319l-10 -7q-49 0 -117 -2z" />
<glyph unicode="&#xea;" horiz-adv-x="970" d="M43 465.5q-6 229.5 94 392.5q119 195 346 195q143 0 248 -90q94 -84 137 -228q-16 -33 -63 -88q-195 -57 -586 -170q23 -377 309 -377q152 0 295 129q-6 -72 -12 -163q-35 -41 -136 -66t-171 -25q-215 0 -335 130.5t-126 360zM207 1130q59 102 155 310l11 8q68 4 215 10 l6 -6q43 -98 125 -291l-4 -12h-64q-31 0 -82 -4q-6 9 -96 229q-16 -39 -63.5 -114.5t-63.5 -116.5l-8 -8q-82 -1 -131 -5zM209 610l483 129q-104 205 -219 205q-190 0 -264 -334z" />
<glyph unicode="&#xeb;" horiz-adv-x="970" d="M43 465.5q-6 229.5 94 392.5q119 195 346 195q143 0 248 -90q94 -84 137 -228q-16 -33 -63 -88q-195 -57 -586 -170q23 -377 309 -377q152 0 295 129q-6 -72 -12 -163q-35 -41 -136 -66t-171 -25q-215 0 -335 130.5t-126 360zM209 610l483 129q-104 205 -219 205 q-190 0 -264 -334zM237 1217q8 61 23 217q61 4 194 12l-74 -193l-14 -14q-41 -8 -129 -22zM598 1217q10 61 22 217l197 12l-74 -193l-16 -14q-39 -8 -129 -22z" />
<glyph unicode="&#xec;" horiz-adv-x="456" d="M16 1456l199 -4l6 -4q12 -63 84 -307l-8 -6q-58 1 -111 -5q-102 205 -170 326zM113 -8q27 354 20 778q-2 104 -12 213q86 16 194 45l4 -4q-20 -360 -20 -608t6 -412q-108 -4 -192 -12z" />
<glyph unicode="&#xed;" horiz-adv-x="456" d="M113 -8q27 354 20 778q-2 104 -12 213q86 16 194 45l4 -4q-20 -360 -20 -608t6 -412q-108 -4 -192 -12zM137 1128q61 170 103 316l6 6l39 -2q49 -2 166 8q-90 -127 -187 -319l-10 -7q-49 0 -117 -2z" />
<glyph unicode="&#xee;" horiz-adv-x="456" d="M-29 1130q59 102 155 310l11 8q68 4 215 10l6 -6q43 -98 125 -291l-4 -12h-64q-31 0 -82 -4q-6 9 -96 229q-16 -39 -63.5 -114.5t-63.5 -116.5l-8 -8q-82 -1 -131 -5zM113 -8q27 354 20 778q-2 104 -12 213q86 16 194 45l4 -4q-20 -360 -20 -608t6 -412q-108 -4 -192 -12 z" />
<glyph unicode="&#xef;" horiz-adv-x="456" d="M-14 1217q8 61 23 217q61 4 194 12l-74 -193l-14 -14q-41 -8 -129 -22zM113 -8q27 354 20 778q-2 104 -12 213q86 16 194 45l4 -4q-20 -360 -20 -608t6 -412q-108 -4 -192 -12zM347 1217q10 61 22 217l197 12l-74 -193l-16 -14q-39 -8 -129 -22z" />
<glyph unicode="&#xf0;" horiz-adv-x="1120" d="M31 444q-6 270 144.5 426t420.5 156q47 0 102 -4v137q-117 -2 -206 -4q2 4 6 141l4 2q41 2 119 0l77 -2q-2 68 -8 148q74 16 189 47q-4 -96 -9 -193q111 3 193 7l-6 -144h-191q-10 -332 -10 -636t14 -511l-4 -6q-41 2 -98 29l-94 43q-143 -98 -258 -98q-182 0 -281.5 136 t-103.5 326zM207 453q2 -131 65.5 -233t184.5 -101.5t229 100.5q6 309 6 686q-70 4 -96 4q-199 0 -296 -126t-93 -330z" />
<glyph unicode="&#xf1;" horiz-adv-x="1071" d="M98 989q12 8 35 8t66 -18l84 -39q139 98 346 98q254 0 258 -303q2 -80 -1 -226q-6 -301 5 -497l-2 -2q-98 -4 -178 -10l-2 2q0 31 6 244t5 359q-2 302 -173 302q-129 0 -262 -114q-4 -207 -4 -406.5t6 -376.5l-2 -2q-100 -4 -185 -12q14 408 10.5 609t-12.5 384z M211 1147q6 82 8 143q10 33 58 62.5t89 29.5t132 -45t134 -45q76 0 142 103l4 -2q-4 -50 -8 -142q-82 -92 -137.5 -92t-140.5 45t-132 45q-76 0 -147 -102h-2z" />
<glyph unicode="&#xf2;" horiz-adv-x="1019" d="M34 477.5q-7 235.5 99 384.5q121 172 365 172q205 0 313 -141q94 -127 101 -360.5t-91 -382.5q-117 -176 -343 -176.5t-331.5 134t-112.5 370zM213 442q4 -143 55 -237q68 -123 197 -123q285 0 270 442q-12 400 -254 400q-283 0 -268 -482zM270 1456l199 -4l6 -4 q12 -63 84 -307l-8 -6q-58 1 -111 -5q-102 205 -170 326z" />
<glyph unicode="&#xf3;" horiz-adv-x="1019" d="M34 477.5q-7 235.5 99 384.5q121 172 365 172q205 0 313 -141q94 -127 101 -360.5t-91 -382.5q-117 -176 -343 -176.5t-331.5 134t-112.5 370zM213 442q4 -143 55 -237q68 -123 197 -123q285 0 270 442q-12 400 -254 400q-283 0 -268 -482zM438 1128q61 170 103 316l6 6 l39 -2q49 -2 166 8q-90 -127 -187 -319l-10 -7q-49 0 -117 -2z" />
<glyph unicode="&#xf4;" horiz-adv-x="1019" d="M34 477.5q-7 235.5 99 384.5q121 172 365 172q205 0 313 -141q94 -127 101 -360.5t-91 -382.5q-117 -176 -343 -176.5t-331.5 134t-112.5 370zM207 1130q59 102 155 310l11 8q68 4 215 10l6 -6q43 -98 125 -291l-4 -12h-64q-31 0 -82 -4q-6 9 -96 229 q-16 -39 -63.5 -114.5t-63.5 -116.5l-8 -8q-82 -1 -131 -5zM213 442q4 -143 55 -237q68 -123 197 -123q285 0 270 442q-12 400 -254 400q-283 0 -268 -482z" />
<glyph unicode="&#xf5;" horiz-adv-x="1019" d="M34 477.5q-7 235.5 99 384.5q121 172 365 172q205 0 313 -141q94 -127 101 -360.5t-91 -382.5q-117 -176 -343 -176.5t-331.5 134t-112.5 370zM213 442q4 -143 55 -237q68 -123 197 -123q285 0 270 442q-12 400 -254 400q-283 0 -268 -482zM222 1147q6 82 8 143 q10 33 58 62.5t89 29.5t132 -45t134 -45q76 0 142 103l4 -2q-4 -50 -8 -142q-82 -92 -137.5 -92t-140.5 45t-132 45q-76 0 -147 -102h-2z" />
<glyph unicode="&#xf6;" horiz-adv-x="1019" d="M34 477.5q-7 235.5 99 384.5q121 172 365 172q205 0 313 -141q94 -127 101 -360.5t-91 -382.5q-117 -176 -343 -176.5t-331.5 134t-112.5 370zM213 442q4 -143 55 -237q68 -123 197 -123q285 0 270 442q-12 400 -254 400q-283 0 -268 -482zM242 1217q8 61 23 217 q61 4 194 12l-74 -193l-14 -14q-41 -8 -129 -22zM603 1217q10 61 22 217l197 12l-74 -193l-16 -14q-39 -8 -129 -22z" />
<glyph unicode="&#xf7;" horiz-adv-x="1224" d="M-27 489l2 117l1192 2l-4 -116zM473 246q0 41 26.5 68.5t67.5 27.5q84 0 86 -90q0 -39 -27.5 -67.5t-66.5 -28.5q-84 0 -86 90zM489 844q0 41 27 68.5t70 27.5q84 0 86 -90q0 -41 -28 -68.5t-69 -27.5q-84 0 -86 90z" />
<glyph unicode="&#xf8;" horiz-adv-x="1069" d="M-37 41l150 143q-51 147 -54 301q-4 240 115 394.5t350 154.5q172 0 310 -127q70 68 122 127h9q29 -35 51 -63l-2 -10q-47 -39 -137 -123q55 -137 57 -297q4 -254 -96 -400q-117 -170 -361 -170q-188 0 -321 146q-76 -78 -127 -137h-15zM233 430q0 -57 5 -123l485 490 q-94 137 -205 137q-293 0 -285 -504zM264 225q78 -156 223 -155q283 0 277 456q0 52 -12 187z" />
<glyph unicode="&#xf9;" horiz-adv-x="1064" d="M96 1014l2 2q82 6 195 20l2 -4q0 -70 -11 -202q-20 -243 -16 -470q2 -102 43 -180t140.5 -78t244.5 127l11 373q0 197 -9 412l2 2q14 0 187 18q-12 -365 -12 -616.5t8 -419.5l-6 -8q-41 4 -89 37l-92 61q-168 -115 -338 -115q-254 0 -258 301q-2 78 1 244q5 283 -5 496z M290 1456l199 -4l6 -4q12 -63 84 -307l-8 -6q-58 1 -111 -5q-102 205 -170 326z" />
<glyph unicode="&#xfa;" horiz-adv-x="1064" d="M96 1014l2 2q82 6 195 20l2 -4q0 -70 -11 -202q-20 -243 -16 -470q2 -102 43 -180t140.5 -78t244.5 127l11 373q0 197 -9 412l2 2q14 0 187 18q-12 -365 -12 -616.5t8 -419.5l-6 -8q-41 4 -89 37l-92 61q-168 -115 -338 -115q-254 0 -258 301q-2 78 1 244q5 283 -5 496z M438 1128q61 170 103 316l6 6l39 -2q49 -2 166 8q-90 -127 -187 -319l-10 -7q-49 0 -117 -2z" />
<glyph unicode="&#xfb;" horiz-adv-x="1064" d="M96 1014l2 2q82 6 195 20l2 -4q0 -70 -11 -202q-20 -243 -16 -470q2 -102 43 -180t140.5 -78t244.5 127l11 373q0 197 -9 412l2 2q14 0 187 18q-12 -365 -12 -616.5t8 -419.5l-6 -8q-41 4 -89 37l-92 61q-168 -115 -338 -115q-254 0 -258 301q-2 78 1 244q5 283 -5 496z M238 1130q59 102 155 310l11 8q68 4 215 10l6 -6q43 -98 125 -291l-4 -12h-64q-31 0 -82 -4q-6 9 -96 229q-16 -39 -63.5 -114.5t-63.5 -116.5l-8 -8q-82 -1 -131 -5z" />
<glyph unicode="&#xfc;" horiz-adv-x="1064" d="M96 1014l2 2q82 6 195 20l2 -4q0 -70 -11 -202q-20 -243 -16 -470q2 -102 43 -180t140.5 -78t244.5 127l11 373q0 197 -9 412l2 2q14 0 187 18q-12 -365 -12 -616.5t8 -419.5l-6 -8q-41 4 -89 37l-92 61q-168 -115 -338 -115q-254 0 -258 301q-2 78 1 244q5 283 -5 496z M252 1217q8 61 23 217q61 4 194 12l-74 -193l-14 -14q-41 -8 -129 -22zM613 1217q10 61 22 217l197 12l-74 -193l-16 -14q-39 -8 -129 -22z" />
<glyph unicode="&#xfd;" horiz-adv-x="845" d="M-2 1016q123 12 192 22l7 -4q66 -260 223 -809q82 262 235 797l9 6q75 2 161 6q-177 -465 -485 -1409l-10 -10q-106 -4 -180 -10q72 129 98 182t84 195q-67 230 -334 1034zM401 1124q61 170 103 316l6 6l39 -2q49 -2 166 8q-90 -127 -187 -319l-10 -7q-49 0 -117 -2z" />
<glyph unicode="&#xfe;" horiz-adv-x="1042" d="M86 -416q33 692 27 1024q0 123 -9 348l2 5q-6 160 -18 481q86 18 186 43q-4 -86 -8 -527l4 -4q143 98 305 98.5t257.5 -135t97.5 -311.5q4 -287 -184.5 -439t-477.5 -142q-2 -229 2 -410l-4 -4zM268 133q41 -2 66 -2q201 0 310 128t106 333q-2 131 -56 223 q-63 111 -176.5 111t-238.5 -95q-10 -264 -11 -698z" />
<glyph unicode="&#xff;" horiz-adv-x="833" d="M-8 985q123 12 192 23l6 -7q51 -207 224 -796q82 264 235 796l6 7q78 2 164 6q-303 -812 -485 -1426l-10 -10l-181 -10q68 111 183 393q-99 324 -334 1024zM104 1214q4 90 2 177l7 8q76 0 182 6l4 -4q-4 -80 -2 -178l-4 -4q-80 0 -187 -9zM516 1227q2 106 2 176l6 4h47 q47 0 136 6l4 -4q-2 -92 -2 -174l-4 -6q-98 -2 -187 -6z" />
<glyph unicode="&#x152;" horiz-adv-x="1755" d="M23 641v39q0 541 442 666q117 33 442 32h193l330 -4q53 0 165 4l-12 -141l-6 -6l-541 8q-8 -227 -12 -459h68q150 0 444 6q-2 -47 -8 -139l-4 -6l-441 6h-63q-6 -242 -6 -512q61 2 119 2l290 -6q74 0 156 6l4 -4q-8 -63 -10 -135l-4 -6h-43l-363 8l-514 -10 q-627 0 -626 651zM219 641q6 -311 174 -440q98 -76 297 -76q55 0 141 6q23 645 19 1110q-70 2 -105 2q-205 0 -319.5 -73.5t-169.5 -258.5q-39 -133 -37 -270z" />
<glyph unicode="&#x153;" horiz-adv-x="1679" d="M27 463q-4 232 98 383q119 176 352 176q111 0 187 -44t151 -140q164 199 353.5 198.5t299.5 -174.5q61 -96 64 -176q0 -4 -4 -49l-66 -68l-583 -90q2 -57 18 -170q57 -209 277 -209q152 0 307 125l6 -4q-12 -98 -17 -158l-6 -6q-143 -84 -309 -84q-213 0 -352 177 q-160 -190 -367 -191q-207 0 -306 136t-103 368zM209 453q6 -375 250 -375q264 0 258 457q-7 368 -234 368q-281 0 -274 -450zM874 598l492 76q-47 250 -215 250q-205 0 -277 -326z" />
<glyph unicode="&#x178;" horiz-adv-x="993" d="M-47 1354q10 2 201 18l10 -6q92 -215 282 -645q193 391 304 641l10 10q72 0 168 8q-139 -264 -408 -798q-6 -137 -6 -284.5t4 -297.5l-2 -2q-111 0 -194 -6q12 211 12 551v18q-221 481 -381 793zM131 1524l4 174l4 4q96 0 191 6q0 -31 -2 -178l-2 -6l-191 -2zM555 1534 q4 106 2 170l6 6h88l107 4l2 -2q-2 -67 -4 -176l-4 -4q-80 2 -193 0z" />
<glyph unicode="&#x2c6;" horiz-adv-x="948" d="M207 1130q59 102 155 310l11 8q68 4 215 10l6 -6q43 -98 125 -291l-4 -12h-64q-31 0 -82 -4q-6 9 -96 229q-16 -39 -63.5 -114.5t-63.5 -116.5l-8 -8q-82 -1 -131 -5z" />
<glyph unicode="&#x2dc;" horiz-adv-x="626" d="M-18 1147q6 82 8 143q10 33 58 62.5t89 29.5t132 -45t134 -45q76 0 142 103l4 -2q-4 -50 -8 -142q-82 -92 -137.5 -92t-140.5 45t-132 45q-76 0 -147 -102h-2z" />
<glyph unicode="&#x2000;" horiz-adv-x="896" />
<glyph unicode="&#x2001;" horiz-adv-x="1792" />
<glyph unicode="&#x2002;" horiz-adv-x="896" />
<glyph unicode="&#x2003;" horiz-adv-x="1792" />
<glyph unicode="&#x2004;" horiz-adv-x="597" />
<glyph unicode="&#x2005;" horiz-adv-x="448" />
<glyph unicode="&#x2006;" horiz-adv-x="298" />
<glyph unicode="&#x2007;" horiz-adv-x="298" />
<glyph unicode="&#x2008;" horiz-adv-x="224" />
<glyph unicode="&#x2009;" horiz-adv-x="358" />
<glyph unicode="&#x200a;" horiz-adv-x="99" />
<glyph unicode="&#x2010;" horiz-adv-x="821" d="M119 453q2 6 6 182l4 4q41 2 120 0t198.5 -2t248.5 10l-6 -186h-137q-264 0 -434 -8z" />
<glyph unicode="&#x2011;" horiz-adv-x="821" d="M119 453q2 6 6 182l4 4q41 2 120 0t198.5 -2t248.5 10l-6 -186h-137q-264 0 -434 -8z" />
<glyph unicode="&#x2012;" horiz-adv-x="821" d="M119 453q2 6 6 182l4 4q41 2 120 0t198.5 -2t248.5 10l-6 -186h-137q-264 0 -434 -8z" />
<glyph unicode="&#x2013;" horiz-adv-x="1148" d="M86 455q4 59 8 178l4 4l506 -6q193 -2 402 12q-2 -25 -9 -180q-82 -2 -231 0l-229 2q-207 0 -451 -10z" />
<glyph unicode="&#x2014;" horiz-adv-x="1337" d="M18 446q4 45 11 134q109 4 528 1t655 15q-4 -29 -12 -133l-4 -4q-150 -6 -552.5 -1t-625.5 -12z" />
<glyph unicode="&#x2018;" horiz-adv-x="380" d="M2 969q74 190 172 514l6 8q74 4 123 10q-82 -336 -104 -510l-4 -6q-84 -4 -193 -16z" />
<glyph unicode="&#x2019;" horiz-adv-x="370" d="M-2 969q80 334 104 508l4 6q117 8 193 16q-76 -193 -170 -510l-8 -10z" />
<glyph unicode="&#x201a;" horiz-adv-x="415" d="M61 -301q76 309 105 512l6 6q75 2 188 12q-82 -233 -167 -514l-9 -10z" />
<glyph unicode="&#x201c;" horiz-adv-x="655" d="M-14 961q109 299 170 516l6 8q72 4 123 8q-68 -274 -105 -508l-6 -6q-111 -8 -188 -18zM266 971q96 250 172 510l6 8l121 10q-74 -307 -104 -508l-2 -4q-121 -8 -193 -16z" />
<glyph unicode="&#x201d;" horiz-adv-x="688" d="M16 961l107 512q116 8 192 16q-90 -229 -170 -510l-8 -8zM297 967q66 272 104 508l7 6q108 8 188 18q-121 -334 -170 -518l-6 -6q-70 -4 -123 -8z" />
<glyph unicode="&#x201e;" horiz-adv-x="696" d="M66 -309l106 514q117 6 193 16q-90 -229 -170 -510l-9 -8q-37 -4 -120 -12zM346 -303q68 281 105 510l6 6q82 4 188 18q-106 -299 -170 -516l-6 -6z" />
<glyph unicode="&#x2022;" horiz-adv-x="610" d="M106 690q0 90 54.5 156.5t142.5 66.5t142.5 -70.5t54.5 -159.5t-54.5 -156.5t-142.5 -67.5t-142.5 70.5t-54.5 160.5z" />
<glyph unicode="&#x2026;" horiz-adv-x="1830" d="M176 53q0 45 27.5 75t70.5 30q80 0 82 -92q0 -43 -27.5 -74t-70.5 -31q-80 0 -82 92zM782 72q0 43 27 75.5t68 32.5q82 0 84 -84q1 -112 -93 -112q-84 0 -86 88zM1386 98q0 39 30 72t67 33q84 0 86 -94q0 -39 -26.5 -71t-65.5 -32q-88 0 -91 92z" />
<glyph unicode="&#x202f;" horiz-adv-x="358" />
<glyph unicode="&#x2039;" horiz-adv-x="497" d="M49 535q57 111 172 374l8 6q46 1 136 3q-74 -135 -183 -373l185 -389l-134 -4l-6 6q-57 135 -176 372z" />
<glyph unicode="&#x203a;" horiz-adv-x="493" d="M98 911q78 2 133 4l7 -6q49 -119 176 -372v-2q-94 -203 -170 -375l-8 -8h-136q82 147 183 372q-9 14 -185 387z" />
<glyph unicode="&#x205f;" horiz-adv-x="448" />
<glyph unicode="&#x20ac;" horiz-adv-x="1239" d="M35 768l26 137h93q55 240 220 372t412 132q139 0 287 -55l-39 -158l-90 59q-100 39 -164 39q-172 0 -282 -107t-154 -282h645l-31 -139h-636q-4 -41 -5 -113v-16l613 -2l-25 -137h-571q33 -180 131 -285q113 -115 287 -115q100 0 171.5 34t170.5 114q-10 -109 -15 -174 l-4 -6q-160 -92 -356 -93q-244 0 -393.5 139.5t-186.5 385.5h-100l27 139h61v6q0 82 4 123z" />
<glyph unicode="&#x2122;" horiz-adv-x="1265" d="M-47 1272l2 80l471 8l-2 -76l-168 -6l-8 -545l-109 -2l8 545zM485 719l13 624l145 3l141 -494l154 500l145 2l-10 -625l-104 -2l12 496l-154 -498l-100 -2l-133 485l-4 -487z" />
<glyph unicode="&#xe000;" horiz-adv-x="1034" d="M0 0v1034h1034v-1034h-1034z" />
</font>
</defs>
</svg>
